{
classes = (
{
automatic = 1;
code = "A Aacute Abreve Acircumflex Adieresis Agrave Amacron Aogonek Aring Aringacute Atilde AE AEacute B C Cacute Ccaron Ccedilla Ccircumflex Cdotaccent D Eth Dcaron Dcroat E Eacute Ebreve Ecaron Ecircumflex Edieresis Edotaccent Egrave Emacron Eogonek F G Gbreve Gcircumflex Gcommaaccent Gdotaccent H Hbar Hcircumflex I IJ Iacute Ibreve Icircumflex Idieresis Idotaccent Igrave Imacron Iogonek Itilde J Jcircumflex K Kcommaaccent L Lacute Lcaron Lcommaaccent Ldot Lslash M N Nacute Ncaron Ncommaaccent Eng Ntilde O Oacute Obreve Ocircumflex Odieresis Ograve Ohungarumlaut Omacron Oslash Oslashacute Otilde OE P Thorn Q R Racute Rcaron Rcommaaccent S Sacute Scaron Scedilla Scircumflex Scommaaccent T Tbar Tcaron Tcedilla Tcommaaccent U Uacute Ubreve Ucircumflex Udieresis Ugrave Uhungarumlaut Umacron Uogonek Uring Utilde V W Wacute Wcircumflex Wdieresis Wgrave X Y Yacute Ycircumflex Ydieresis Ygrave Z Zacute Zcaron Zdotaccent Delta Omega";
name = Uppercase;
},
{

glyphs = (
{
glyphname = A;
layers = (
{
anchors = (
{
name = ogonek;
position = "{424, 9}";
},
{
name = top;
position = "{236, 606}";
}
);
layerId = "F91748D5-4F43-431E-9F22-86E8B42883B3";
name = Regular;
paths = (
{
closed = 1;
nodes = (
"281 606 LINE",
"191 606 LINE",
"-2 0 LINE",
"67 0 LINE",
"109 140 LINE",
"355 140 LINE",
"398 0 LINE",
"473 0 LINE"
);
},
{
closed = 1;
nodes = (
"234 554 LINE",
"234 554 OFFCURVE",
"242 508 OFFCURVE",
"248 492 CURVE SMOOTH",
"336 202 LINE",
"129 202 LINE",
"218 492 LINE SMOOTH",
"223 508 OFFCURVE",
"231 554 OFFCURVE",
"231 554 CURVE"
);
}
);
width = 473;
}
);
unicode = 0041;
},
{
glyphname = Aacute;
layers = (
{
layerId = "F91748D5-4F43-431E-9F22-86E8B42883B3";
name = Regular;
paths = (
{
closed = 1;
nodes = (
"281 606 LINE",
"191 606 LINE",
"-2 0 LINE",
"67 0 LINE",
"109 140 LINE",
"355 140 LINE",
"398 0 LINE",
"473 0 LINE"
);
},
{
closed = 1;
nodes = (
"234 554 LINE",
"234 554 OFFCURVE",
"242 508 OFFCURVE",
"248 492 CURVE SMOOTH",
"336 202 LINE",
"129 202 LINE",
"218 492 LINE SMOOTH",
"223 508 OFFCURVE",
"231 554 OFFCURVE",
"231 554 CURVE"
);
},
{
closed = 1;
nodes = (
"333 781 LINE",
"261 781 LINE",
"185 664 LINE",
"238 664 LINE",
"334 778 LINE"
);
}
);
width = 473;
}
);
unicode = 00C1;
},
{
glyphname = Abreve;
layers = (
{
layerId = "F91748D5-4F43-431E-9F22-86E8B42883B3";
name = Regular;
paths = (
{
closed = 1;
nodes = (
"281 606 LINE",
"191 606 LINE",
"-2 0 LINE",
"67 0 LINE",
"109 140 LINE",
"355 140 LINE",
"398 0 LINE",
"473 0 LINE"
);
},
{
closed = 1;
nodes = (
"234 554 LINE",
"234 554 OFFCURVE",
"242 508 OFFCURVE",
"248 492 CURVE SMOOTH",
"336 202 LINE",
"129 202 LINE",
"218 492 LINE SMOOTH",
"223 508 OFFCURVE",
"231 554 OFFCURVE",
"231 554 CURVE"
);
},
{
closed = 1;
nodes = (
"288 781 LINE",
"287 768 OFFCURVE",
"265 751 OFFCURVE",
"235 751 CURVE SMOOTH",
"206 751 OFFCURVE",
"186 768 OFFCURVE",
"183 781 CURVE",
"130 781 LINE",
"130 742 OFFCURVE",
"170 698 OFFCURVE",
"235 698 CURVE SMOOTH",
"302 698 OFFCURVE",
"343 742 OFFCURVE",
"343 781 CURVE"
);
}
);
width = 473;
}
);
unicode = 0102;
},
{
glyphname = Acircumflex;
layers = (
{
layerId = "F91748D5-4F43-431E-9F22-86E8B42883B3";
name = Regular;
paths = (
{
closed = 1;
nodes = (
"281 606 LINE",
"191 606 LINE",
"-2 0 LINE",
"67 0 LINE",
"109 140 LINE",
"355 140 LINE",
"398 0 LINE",
"473 0 LINE"
);
},
{
closed = 1;
nodes = (
"234 554 LINE",
"234 554 OFFCURVE",
"242 508 OFFCURVE",
"248 492 CURVE SMOOTH",
"336 202 LINE",
"129 202 LINE",
"218 492 LINE SMOOTH",
"223 508 OFFCURVE",
"231 554 OFFCURVE",
"231 554 CURVE"
);
},
{
closed = 1;
nodes = (
"269 780 LINE",
"205 780 LINE",
"129 660 LINE",
"196 660 LINE",
"236 732 LINE",
"275 660 LINE",
"344 660 LINE"
);
}
);
width = 473;
}
);
unicode = 00C2;
},
{
glyphname = Adieresis;
layers = (
{
layerId = "F91748D5-4F43-431E-9F22-86E8B42883B3";
name = Regular;
paths = (
{
closed = 1;
nodes = (
"281 606 LINE",
"191 606 LINE",
"-2 0 LINE",
"67 0 LINE",
"109 140 LINE",
"355 140 LINE",
"398 0 LINE",
"473 0 LINE"
);
},
{
closed = 1;
nodes = (
"234 554 LINE",
"234 554 OFFCURVE",
"242 508 OFFCURVE",
"248 492 CURVE SMOOTH",
"336 202 LINE",
"129 202 LINE",
"218 492 LINE SMOOTH",
"223 508 OFFCURVE",
"231 554 OFFCURVE",
"231 554 CURVE"
);
},
{
closed = 1;
nodes = (
"210 781 LINE",
"136 781 LINE",
"136 701 LINE",
"210 701 LINE"
);
},
{
closed = 1;
nodes = (
"336 781 LINE",
"263 781 LINE",
"263 701 LINE",
"336 701 LINE"
);
}
);
width = 473;
}
);
unicode = 00C4;
},
{
glyphname = Agrave;
layers = (
{
layerId = "F91748D5-4F43-431E-9F22-86E8B42883B3";
name = Regular;
paths = (
{
closed = 1;
nodes = (
"281 606 LINE",
"191 606 LINE",
"-2 0 LINE",
"67 0 LINE",
"109 140 LINE",
"355 140 LINE",
"398 0 LINE",
"473 0 LINE"
);
},
{
closed = 1;
nodes = (
"234 554 LINE",
"234 554 OFFCURVE",
"242 508 OFFCURVE",
"248 492 CURVE SMOOTH",
"336 202 LINE",
"129 202 LINE",
"218 492 LINE SMOOTH",
"223 508 OFFCURVE",
"231 554 OFFCURVE",
"231 554 CURVE"
);
},
{
closed = 1;
nodes = (
"209 781 LINE",
"138 781 LINE",
"137 778 LINE",
"232 664 LINE",
"285 664 LINE"
);
}
);
width = 473;
}
);
unicode = 00C0;
},
{
glyphname = Amacron;
layers = (
{
layerId = "F91748D5-4F43-431E-9F22-86E8B42883B3";
name = Regular;
paths = (
{
closed = 1;
nodes = (
"281 606 LINE",
"191 606 LINE",
"-2 0 LINE",
"67 0 LINE",
"109 140 LINE",
"355 140 LINE",
"398 0 LINE",
"473 0 LINE"
);
},
{
closed = 1;
nodes = (
"234 554 LINE",
"234 554 OFFCURVE",
"242 508 OFFCURVE",
"248 492 CURVE SMOOTH",
"336 202 LINE",
"129 202 LINE",
"218 492 LINE SMOOTH",
"223 508 OFFCURVE",
"231 554 OFFCURVE",
"231 554 CURVE"
);
},
{
closed = 1;
nodes = (
"347 731 LINE",
"126 731 LINE",
"126 671 LINE",
"347 671 LINE"
);
}
);
width = 473;
}
);
unicode = 0100;
},
{
glyphname = Aogonek;
layers = (
{
layerId = "F91748D5-4F43-431E-9F22-86E8B42883B3";
name = Regular;
paths = (
{
closed = 1;
nodes = (
"398 0 LINE",
"473 0 LINE",
"281 606 LINE",
"191 606 LINE",
"-2 0 LINE",
"67 0 LINE",
"109 140 LINE",
"355 140 LINE"
);
},
{
closed = 1;
nodes = (
"234 554 LINE",
"234 554 OFFCURVE",
"242 508 OFFCURVE",
"248 492 CURVE SMOOTH",
"336 202 LINE",
"129 202 LINE",
"218 492 LINE SMOOTH",
"223 508 OFFCURVE",
"231 554 OFFCURVE",
"231 554 CURVE"
);
},
{
closed = 1;
nodes = (
"424 0 LINE",
"407 -20 OFFCURVE",
"390 -40 OFFCURVE",
"390 -79 CURVE SMOOTH",
"390 -140 OFFCURVE",
"434 -159 OFFCURVE",
"472 -159 CURVE SMOOTH",
"489 -159 OFFCURVE",
"507 -154 OFFCURVE",
"524 -147 CURVE",
"524 -102 LINE",
"495 -102 LINE SMOOTH",
"465 -102 OFFCURVE",
"454 -79 OFFCURVE",
"454 -53 CURVE SMOOTH",
"454 -29 OFFCURVE",
"465 -14 OFFCURVE",
"473 0 CURVE"
);
}
);
width = 473;
}
);
unicode = 0104;
},
{
glyphname = Aring;
layers = (
{
layerId = "F91748D5-4F43-431E-9F22-86E8B42883B3";
name = Regular;
paths = (
{
closed = 1;
nodes = (
"281 606 LINE",
"191 606 LINE",
"-2 0 LINE",
"67 0 LINE",
"109 140 LINE",
"355 140 LINE",
"398 0 LINE",
"473 0 LINE"
);
},
{
closed = 1;
nodes = (
"234 554 LINE",
"234 554 OFFCURVE",
"242 508 OFFCURVE",
"248 492 CURVE SMOOTH",
"336 202 LINE",
"129 202 LINE",
"218 492 LINE SMOOTH",
"223 508 OFFCURVE",
"231 554 OFFCURVE",
"231 554 CURVE"
);
},
{
closed = 1;
nodes = (
"188 810 OFFCURVE",
"150 772 OFFCURVE",
"150 725 CURVE SMOOTH",
"150 677 OFFCURVE",
"189 640 OFFCURVE",
"235 640 CURVE SMOOTH",
"283 640 OFFCURVE",
"320 678 OFFCURVE",
"320 725 CURVE SMOOTH",
"320 771 OFFCURVE",
"285 810 OFFCURVE",
"235 810 CURVE SMOOTH"
);
},
{
closed = 1;
nodes = (
"260 771 OFFCURVE",
"282 750 OFFCURVE",
"282 725 CURVE SMOOTH",
"282 699 OFFCURVE",
"260 678 OFFCURVE",
"235 678 CURVE SMOOTH",
"211 678 OFFCURVE",
"189 699 OFFCURVE",
"189 725 CURVE SMOOTH",
"189 750 OFFCURVE",
"211 771 OFFCURVE",
"235 771 CURVE SMOOTH"
);
}
);
width = 473;
}
);
unicode = 00C5;
},
{
glyphname = Aringacute;
layers = (
{
layerId = "F91748D5-4F43-431E-9F22-86E8B42883B3";
name = Regular;
paths = (
{
closed = 1;
nodes = (
"189 726 OFFCURVE",
"151 690 OFFCURVE",
"151 644 CURVE SMOOTH",
"151 618 OFFCURVE",
"164 595 OFFCURVE",
"183 580 CURVE",
"-2 0 LINE",
"67 0 LINE",
"109 140 LINE",
"355 140 LINE",
"398 0 LINE",
"473 0 LINE",
"289 579 LINE",
"309 595 OFFCURVE",
"321 618 OFFCURVE",
"321 644 CURVE SMOOTH",
"321 689 OFFCURVE",
"284 726 OFFCURVE",
"236 726 CURVE SMOOTH"
);
},
{
closed = 1;
nodes = (
"234 554 LINE",
"234 554 OFFCURVE",
"242 508 OFFCURVE",
"248 492 CURVE SMOOTH",
"336 202 LINE",
"129 202 LINE",
"218 492 LINE SMOOTH",
"223 508 OFFCURVE",
"231 554 OFFCURVE",
"231 554 CURVE"
);
},
{
closed = 1;
nodes = (
"348 842 LINE",
"346 846 LINE",
"275 846 LINE",
"212 750 LINE",
"265 750 LINE"
);
},
{
closed = 1;
nodes = (
"261 690 OFFCURVE",
"283 669 OFFCURVE",
"283 644 CURVE SMOOTH",
"283 621 OFFCURVE",
"261 600 OFFCURVE",
"236 600 CURVE SMOOTH",
"211 600 OFFCURVE",
"190 621 OFFCURVE",
"190 644 CURVE SMOOTH",
"190 669 OFFCURVE",
"211 690 OFFCURVE",
"236 690 CURVE SMOOTH"
);
}
);
width = 473;
}
);
unicode = 01FA;
},
{
glyphname = Atilde;
layers = (
{
layerId = "F91748D5-4F43-431E-9F22-86E8B42883B3";
name = Regular;
paths = (
{
closed = 1;
nodes = (
"281 606 LINE",
"191 606 LINE",
"-2 0 LINE",
"67 0 LINE",
"109 140 LINE",
"355 140 LINE",
"398 0 LINE",
"473 0 LINE"
);
},
{
closed = 1;
nodes = (
"234 554 LINE",
"234 554 OFFCURVE",
"242 508 OFFCURVE",
"248 492 CURVE SMOOTH",
"336 202 LINE",
"129 202 LINE",
"218 492 LINE SMOOTH",
"223 508 OFFCURVE",
"231 554 OFFCURVE",
"231 554 CURVE"
);
},
{
closed = 1;
nodes = (
"310 781 LINE",
"307 761 OFFCURVE",
"296 756 OFFCURVE",
"281 756 CURVE SMOOTH",
"249 756 OFFCURVE",
"220 781 OFFCURVE",
"183 781 CURVE SMOOTH",
"133 781 OFFCURVE",
"112 731 OFFCURVE",
"112 694 CURVE",
"162 694 LINE",
"164 713 OFFCURVE",
"176 719 OFFCURVE",
"191 719 CURVE SMOOTH",
"223 719 OFFCURVE",
"251 694 OFFCURVE",
"287 694 CURVE SMOOTH",
"339 694 OFFCURVE",
"359 742 OFFCURVE",
"359 781 CURVE"
);
}
);
width = 473;
}
);
unicode = 00C3;
},
{
glyphname = AE;
layers = (
{
anchors = (
{
name = top;
position = "{362, 606}";
}
);
layerId = "F91748D5-4F43-431E-9F22-86E8B42883B3";
name = Regular;
paths = (
{
closed = 1;
nodes = (
"689 606 LINE",
"254 606 LINE",
"1 0 LINE",
"71 0 LINE",
"125 140 LINE",
"371 140 LINE",
"402 0 LINE",
"694 0 LINE",
"694 62 LINE",
"463 62 LINE",
"415 279 LINE",
"650 279 LINE",
"650 342 LINE",
"401 342 LINE",
"355 545 LINE",
"689 545 LINE"
);
},
{
closed = 1;
nodes = (
"288 550 LINE",
"291 529 OFFCURVE",
"292 510 OFFCURVE",
"297 489 CURVE SMOOTH",
"359 202 LINE",
"149 202 LINE",
"262 489 LINE SMOOTH",
"271 510 OFFCURVE",
"277 529 OFFCURVE",
"283 550 CURVE"
);
}
);
width = 725;
}
);
unicode = 00C6;
},
{
glyphname = AEacute;
layers = (
{
layerId = "F91748D5-4F43-431E-9F22-86E8B42883B3";
name = Regular;
paths = (
{
closed = 1;
nodes = (
"689 606 LINE",
"254 606 LINE",
"1 0 LINE",
"71 0 LINE",
"125 140 LINE",
"371 140 LINE",
"402 0 LINE",
"694 0 LINE",
"694 62 LINE",
"463 62 LINE",
"415 279 LINE",
"650 279 LINE",
"650 342 LINE",
"401 342 LINE",
"355 545 LINE",
"689 545 LINE"
);
},
{
closed = 1;
nodes = (
"288 550 LINE",
"290 530 OFFCURVE",
"292 512 OFFCURVE",
"296 491 CURVE SMOOTH",
"359 202 LINE",
"149 202 LINE",
"263 492 LINE SMOOTH",
"272 513 OFFCURVE",
"277 530 OFFCURVE",
"283 550 CURVE"
);
},
{
closed = 1;
nodes = (
"572 781 LINE",
"500 781 LINE",
"424 664 LINE",
"477 664 LINE",
"572 778 LINE"
);
}
);
width = 725;
}
);
unicode = 01FC;
},
{
glyphname = B;
layers = (
{
layerId = "F91748D5-4F43-431E-9F22-86E8B42883B3";
name = Regular;
paths = (
{
closed = 1;
nodes = (
"58 606 LINE",
"58 0 LINE",
"279 0 LINE SMOOTH",
"371 0 OFFCURVE",
"448 58 OFFCURVE",
"448 160 CURVE SMOOTH",
"448 239 OFFCURVE",
"401 296 OFFCURVE",
"341 315 CURVE",
"341 318 LINE",
"393 337 OFFCURVE",
"434 389 OFFCURVE",
"434 459 CURVE SMOOTH",
"434 548 OFFCURVE",
"367 606 OFFCURVE",
"279 606 CURVE SMOOTH"
);
},
{
closed = 1;
nodes = (
"126 279 LINE",
"266 279 LINE SMOOTH",
"332 279 OFFCURVE",
"377 227 OFFCURVE",
"377 169 CURVE SMOOTH",
"377 100 OFFCURVE",
"332 62 OFFCURVE",
"272 62 CURVE SMOOTH",
"126 62 LINE"
);
},
{
closed = 1;
nodes = (
"126 545 LINE",
"265 545 LINE SMOOTH",
"323 545 OFFCURVE",
"362 512 OFFCURVE",
"362 442 CURVE SMOOTH",
"362 389 OFFCURVE",
"320 342 OFFCURVE",
"259 342 CURVE SMOOTH",
"126 342 LINE"
);
}
);
width = 473;
}
);
unicode = 0042;
},
{
glyphname = C;
layers = (
{
anchors = (
{
name = bottom;
position = "{262, 0}";
},
{
name = top;
position = "{262, 606}";
}
);
layerId = "F91748D5-4F43-431E-9F22-86E8B42883B3";
name = Regular;
paths = (
{
closed = 1;
nodes = (
"118 617 OFFCURVE",
"39 513 OFFCURVE",
"39 303 CURVE SMOOTH",
"39 94 OFFCURVE",
"118 -11 OFFCURVE",
"277 -11 CURVE SMOOTH",
"400 -11 OFFCURVE",
"485 60 OFFCURVE",
"485 215 CURVE",
"418 215 LINE",
"418 106 OFFCURVE",
"362 53 OFFCURVE",
"276 53 CURVE SMOOTH",
"165 53 OFFCURVE",
"109 125 OFFCURVE",
"109 281 CURVE SMOOTH",
"109 325 LINE SMOOTH",
"109 481 OFFCURVE",
"165 552 OFFCURVE",
"277 552 CURVE SMOOTH",
"361 552 OFFCURVE",
"417 498 OFFCURVE",
"417 389 CURVE",
"485 389 LINE",
"485 541 OFFCURVE",
"401 617 OFFCURVE",
"277 617 CURVE SMOOTH"
);
}
);
width = 523;
}
);
unicode = 0043;
},
{
glyphname = Cacute;
layers = (
{
layerId = "F91748D5-4F43-431E-9F22-86E8B42883B3";
name = Regular;
paths = (
{
closed = 1;
nodes = (
"118 617 OFFCURVE",
"39 513 OFFCURVE",
"39 303 CURVE SMOOTH",
"39 94 OFFCURVE",
"118 -11 OFFCURVE",
"277 -11 CURVE SMOOTH",
"400 -11 OFFCURVE",
"485 60 OFFCURVE",
"485 215 CURVE",
"418 215 LINE",
"418 106 OFFCURVE",
"362 53 OFFCURVE",
"276 53 CURVE SMOOTH",
"165 53 OFFCURVE",
"109 125 OFFCURVE",
"109 281 CURVE SMOOTH",
"109 325 LINE SMOOTH",
"109 481 OFFCURVE",
"165 552 OFFCURVE",
"277 552 CURVE SMOOTH",
"361 552 OFFCURVE",
"417 498 OFFCURVE",
"417 389 CURVE",
"485 389 LINE",
"485 541 OFFCURVE",
"401 617 OFFCURVE",
"277 617 CURVE SMOOTH"
);
},
{
closed = 1;
nodes = (
"373 781 LINE",
"302 781 LINE",
"226 664 LINE",
"279 664 LINE",
"374 778 LINE"
);
}
);
width = 523;
}
);
unicode = 0106;
},
{
glyphname = Ccaron;
layers = (
{
layerId = "F91748D5-4F43-431E-9F22-86E8B42883B3";
name = Regular;
paths = (
{
closed = 1;
nodes = (
"118 617 OFFCURVE",
"39 513 OFFCURVE",
"39 303 CURVE SMOOTH",
"39 94 OFFCURVE",
"118 -11 OFFCURVE",
"277 -11 CURVE SMOOTH",
"400 -11 OFFCURVE",
"485 60 OFFCURVE",
"485 215 CURVE",
"418 215 LINE",
"418 106 OFFCURVE",
"362 53 OFFCURVE",
"276 53 CURVE SMOOTH",
"165 53 OFFCURVE",
"109 125 OFFCURVE",
"109 281 CURVE SMOOTH",
"109 325 LINE SMOOTH",
"109 481 OFFCURVE",
"165 552 OFFCURVE",
"277 552 CURVE SMOOTH",
"361 552 OFFCURVE",
"417 498 OFFCURVE",
"417 389 CURVE",
"485 389 LINE",
"485 541 OFFCURVE",
"401 617 OFFCURVE",
"277 617 CURVE SMOOTH"
);
},
{
closed = 1;
nodes = (
"289 661 LINE",
"367 781 LINE",
"298 781 LINE",
"260 708 LINE",
"219 781 LINE",
"151 781 LINE",
"226 661 LINE"
);
}
);
width = 523;
}
);
unicode = 010C;
},
{
glyphname = Ccedilla;
layers = (
{
layerId = "F91748D5-4F43-431E-9F22-86E8B42883B3";
name = Regular;
paths = (
{
closed = 1;
nodes = (
"118 617 OFFCURVE",
"39 513 OFFCURVE",
"39 303 CURVE SMOOTH",
"39 117 OFFCURVE",
"102 13 OFFCURVE",
"227 -7 CURVE",
"216 -68 LINE",
"246 -68 LINE SMOOTH",
"269 -68 OFFCURVE",
"276 -75 OFFCURVE",
"276 -89 CURVE SMOOTH",
"276 -106 OFFCURVE",
"263 -111 OFFCURVE",
"244 -111 CURVE SMOOTH",
"176 -111 LINE",
"176 -154 LINE",
"197 -158 OFFCURVE",
"225 -161 OFFCURVE",
"250 -161 CURVE SMOOTH",
"285 -161 OFFCURVE",
"341 -149 OFFCURVE",
"341 -89 CURVE SMOOTH",
"341 -49 OFFCURVE",
"306 -35 OFFCURVE",
"268 -33 CURVE",
"271 -11 LINE",
"397 -14 OFFCURVE",
"485 57 OFFCURVE",
"485 215 CURVE",
"418 215 LINE",
"418 106 OFFCURVE",
"362 53 OFFCURVE",
"276 53 CURVE SMOOTH",
"165 53 OFFCURVE",
"109 125 OFFCURVE",
"109 281 CURVE SMOOTH",
"109 325 LINE SMOOTH",
"109 481 OFFCURVE",
"165 552 OFFCURVE",
"277 552 CURVE SMOOTH",
"361 552 OFFCURVE",
"417 498 OFFCURVE",
"417 389 CURVE",
"485 389 LINE",
"485 541 OFFCURVE",
"401 617 OFFCURVE",
"277 617 CURVE SMOOTH"
);
}
);
width = 523;
}
);
unicode = 00C7;
},
{
glyphname = Ccircumflex;
layers = (
{
layerId = "F91748D5-4F43-431E-9F22-86E8B42883B3";
name = Regular;
paths = (
{
closed = 1;
nodes = (
"118 617 OFFCURVE",
"39 513 OFFCURVE",
"39 303 CURVE SMOOTH",
"39 94 OFFCURVE",
"118 -11 OFFCURVE",
"277 -11 CURVE SMOOTH",
"400 -11 OFFCURVE",
"485 60 OFFCURVE",
"485 215 CURVE",
"418 215 LINE",
"418 106 OFFCURVE",
"362 53 OFFCURVE",
"276 53 CURVE SMOOTH",
"165 53 OFFCURVE",
"109 125 OFFCURVE",
"109 281 CURVE SMOOTH",
"109 325 LINE SMOOTH",
"109 481 OFFCURVE",
"165 552 OFFCURVE",
"277 552 CURVE SMOOTH",
"361 552 OFFCURVE",
"417 498 OFFCURVE",
"417 389 CURVE",
"485 389 LINE",
"485 541 OFFCURVE",
"401 617 OFFCURVE",
"277 617 CURVE SMOOTH"
);
},
{
closed = 1;
nodes = (
"367 660 LINE",
"291 780 LINE",
"227 780 LINE",
"151 660 LINE",
"219 660 LINE",
"261 732 LINE",
"298 660 LINE"
);
}
);
width = 523;
}
);
unicode = 0108;
},
{
glyphname = Cdotaccent;
layers = (
{
layerId = "F91748D5-4F43-431E-9F22-86E8B42883B3";
name = Regular;
paths = (
{
closed = 1;
nodes = (
"118 617 OFFCURVE",
"39 513 OFFCURVE",
"39 303 CURVE SMOOTH",
"39 94 OFFCURVE",
"118 -11 OFFCURVE",
"277 -11 CURVE SMOOTH",
"400 -11 OFFCURVE",
"485 60 OFFCURVE",
"485 215 CURVE",
"418 215 LINE",
"418 106 OFFCURVE",
"362 53 OFFCURVE",
"276 53 CURVE SMOOTH",
"165 53 OFFCURVE",
"109 125 OFFCURVE",
"109 281 CURVE SMOOTH",
"109 325 LINE SMOOTH",
"109 481 OFFCURVE",
"165 552 OFFCURVE",
"277 552 CURVE SMOOTH",
"361 552 OFFCURVE",
"417 498 OFFCURVE",
"417 389 CURVE",
"485 389 LINE",
"485 541 OFFCURVE",
"401 617 OFFCURVE",
"277 617 CURVE SMOOTH"
);
},
{
closed = 1;
nodes = (
"296 702 LINE",
"296 781 LINE",
"223 781 LINE",
"223 702 LINE"
);
}
);
width = 523;
}
);
unicode = 010A;
},
{
glyphname = D;
layers = (
{
anchors = (
{
name = center;
position = "{262, 303}";
},
{
name = top;
position = "{262, 606}";
}
);
layerId = "F91748D5-4F43-431E-9F22-86E8B42883B3";
name = Regular;
paths = (
{
closed = 1;
nodes = (
"65 0 LINE",
"250 0 LINE SMOOTH",
"391 0 OFFCURVE",
"477 104 OFFCURVE",
"477 312 CURVE SMOOTH",
"477 507 OFFCURVE",
"391 606 OFFCURVE",
"250 606 CURVE SMOOTH",
"65 606 LINE"
);
},
{
closed = 1;
nodes = (
"132 545 LINE",
"244 545 LINE SMOOTH",
"343 545 OFFCURVE",
"405 475 OFFCURVE",
"405 334 CURVE SMOOTH",
"405 290 LINE SMOOTH",
"405 136 OFFCURVE",
"343 62 OFFCURVE",
"244 62 CURVE SMOOTH",
"132 62 LINE"
);
}
);
width = 523;
}
);
unicode = 0044;
},
{
glyphname = Eth;
layers = (
{
layerId = "F91748D5-4F43-431E-9F22-86E8B42883B3";
name = Regular;
paths = (
{
closed = 1;
nodes = (
"3 339 LINE",
"3 289 LINE",
"65 289 LINE",
"65 0 LINE",
"250 0 LINE SMOOTH",
"391 0 OFFCURVE",
"477 104 OFFCURVE",
"477 312 CURVE SMOOTH",
"477 507 OFFCURVE",
"391 606 OFFCURVE",
"250 606 CURVE SMOOTH",
"65 606 LINE",
"65 339 LINE"
);
},
{
closed = 1;
nodes = (
"132 545 LINE",
"244 545 LINE SMOOTH",
"343 545 OFFCURVE",
"405 475 OFFCURVE",
"405 334 CURVE SMOOTH",
"405 290 LINE SMOOTH",
"405 136 OFFCURVE",
"343 62 OFFCURVE",
"244 62 CURVE SMOOTH",
"132 62 LINE",
"132 289 LINE",
"278 289 LINE",
"278 339 LINE",
"132 339 LINE"
);
}
);
width = 523;
}
);
unicode = 00D0;
},
{
glyphname = Dcaron;
layers = (
{
layerId = "F91748D5-4F43-431E-9F22-86E8B42883B3";
name = Regular;
paths = (
{
closed = 1;
nodes = (
"303 661 LINE",
"381 781 LINE",
"313 781 LINE",
"273 708 LINE",
"233 781 LINE",
"165 781 LINE",
"240 661 LINE"
);
},
{
closed = 1;
nodes = (
"65 0 LINE",
"250 0 LINE SMOOTH",
"391 0 OFFCURVE",
"477 104 OFFCURVE",
"477 312 CURVE SMOOTH",
"477 507 OFFCURVE",
"391 606 OFFCURVE",
"250 606 CURVE SMOOTH",
"65 606 LINE"
);
},
{
closed = 1;
nodes = (
"132 545 LINE",
"244 545 LINE SMOOTH",
"343 545 OFFCURVE",
"405 475 OFFCURVE",
"405 334 CURVE SMOOTH",
"405 290 LINE SMOOTH",
"405 136 OFFCURVE",
"343 62 OFFCURVE",
"244 62 CURVE SMOOTH",
"132 62 LINE"
);
}
);
width = 523;
}
);
unicode = 010E;
},
{
glyphname = Dcroat;
layers = (
{
layerId = "F91748D5-4F43-431E-9F22-86E8B42883B3";
name = Regular;
paths = (
{
closed = 1;
nodes = (
"3 339 LINE",
"3 289 LINE",
"65 289 LINE",
"65 0 LINE",
"250 0 LINE SMOOTH",
"391 0 OFFCURVE",
"477 104 OFFCURVE",
"477 312 CURVE SMOOTH",
"477 507 OFFCURVE",
"391 606 OFFCURVE",
"250 606 CURVE SMOOTH",
"65 606 LINE",
"65 339 LINE"
);
},
{
closed = 1;
nodes = (
"132 545 LINE",
"244 545 LINE SMOOTH",
"343 545 OFFCURVE",
"405 475 OFFCURVE",
"405 334 CURVE SMOOTH",
"405 290 LINE SMOOTH",
"405 136 OFFCURVE",
"343 62 OFFCURVE",
"244 62 CURVE SMOOTH",
"132 62 LINE",
"132 289 LINE",
"278 289 LINE",
"278 339 LINE",
"132 339 LINE"
);
}
);
width = 523;
}
);
unicode = 0110;
},
{
glyphname = E;
layers = (
{
anchors = (
{
name = bottom;
position = "{242, 0}";
},
{
name = ogonek;
position = "{435, 9}";
},
{
name = top;
position = "{242, 606}";
}
);
layerId = "F91748D5-4F43-431E-9F22-86E8B42883B3";
name = Regular;
paths = (
{
closed = 1;
nodes = (
"65 0 LINE",
"440 0 LINE",
"440 62 LINE",
"133 62 LINE",
"133 279 LINE",
"396 279 LINE",
"396 342 LINE",
"133 342 LINE",
"133 545 LINE",
"435 545 LINE",
"435 606 LINE",
"65 606 LINE"
);
}
);
width = 484;
}
);
unicode = 0045;
},
{
glyphname = Eacute;
layers = (
{
layerId = "F91748D5-4F43-431E-9F22-86E8B42883B3";
name = Regular;
paths = (
{
closed = 1;
nodes = (
"435 606 LINE",
"65 606 LINE",
"65 0 LINE",
"440 0 LINE",
"440 62 LINE",
"133 62 LINE",
"133 279 LINE",
"396 279 LINE",
"396 342 LINE",
"133 342 LINE",
"133 545 LINE",
"435 545 LINE"
);
},
{
closed = 1;
nodes = (
"339 781 LINE",
"267 781 LINE",
"191 664 LINE",
"244 664 LINE",
"340 778 LINE"
);
}
);
width = 484;
}
);
unicode = 00C9;
},
{
glyphname = Ebreve;
layers = (
{
layerId = "F91748D5-4F43-431E-9F22-86E8B42883B3";
name = Regular;
paths = (
{
closed = 1;
nodes = (
"294 781 LINE",
"293 768 OFFCURVE",
"271 751 OFFCURVE",
"241 751 CURVE SMOOTH",
"212 751 OFFCURVE",
"192 768 OFFCURVE",
"189 781 CURVE",
"136 781 LINE",
"136 742 OFFCURVE",
"176 698 OFFCURVE",
"241 698 CURVE SMOOTH",
"308 698 OFFCURVE",
"349 742 OFFCURVE",
"349 781 CURVE"
);
},
{
closed = 1;
nodes = (
"65 0 LINE",
"440 0 LINE",
"440 62 LINE",
"133 62 LINE",
"133 279 LINE",
"396 279 LINE",
"396 342 LINE",
"133 342 LINE",
"133 545 LINE",
"435 545 LINE",
"435 606 LINE",
"65 606 LINE"
);
}
);
width = 484;
}
);
unicode = 0114;
},
{
glyphname = Ecaron;
layers = (
{
layerId = "F91748D5-4F43-431E-9F22-86E8B42883B3";
name = Regular;
paths = (
{
closed = 1;
nodes = (
"273 661 LINE",
"350 781 LINE",
"281 781 LINE",
"241 708 LINE",
"202 781 LINE",
"135 781 LINE",
"210 661 LINE"
);
},
{
closed = 1;
nodes = (
"65 0 LINE",
"440 0 LINE",
"440 62 LINE",
"133 62 LINE",
"133 279 LINE",
"396 279 LINE",
"396 342 LINE",
"133 342 LINE",
"133 545 LINE",
"435 545 LINE",
"435 606 LINE",
"65 606 LINE"
);
}
);
width = 484;
}
);
unicode = 011A;
},
{
glyphname = Ecircumflex;
layers = (
{
layerId = "F91748D5-4F43-431E-9F22-86E8B42883B3";
name = Regular;
paths = (
{
closed = 1;
nodes = (
"350 660 LINE",
"275 780 LINE",
"211 780 LINE",
"135 660 LINE",
"202 660 LINE",
"242 732 LINE",
"281 660 LINE"
);
},
{
closed = 1;
nodes = (
"65 0 LINE",
"440 0 LINE",
"440 62 LINE",
"133 62 LINE",
"133 279 LINE",
"396 279 LINE",
"396 342 LINE",
"133 342 LINE",
"133 545 LINE",
"435 545 LINE",
"435 606 LINE",
"65 606 LINE"
);
}
);
width = 484;
}
);
unicode = 00CA;
},
{
glyphname = Edieresis;
layers = (
{
layerId = "F91748D5-4F43-431E-9F22-86E8B42883B3";
name = Regular;
paths = (
{
closed = 1;
nodes = (
"435 606 LINE",
"65 606 LINE",
"65 0 LINE",
"440 0 LINE",
"440 62 LINE",
"133 62 LINE",
"133 279 LINE",
"396 279 LINE",
"396 342 LINE",
"133 342 LINE",
"133 545 LINE",
"435 545 LINE"
);
},
{
closed = 1;
nodes = (
"215 781 LINE",
"142 781 LINE",
"142 701 LINE",
"215 701 LINE"
);
},
{
closed = 1;
nodes = (
"343 781 LINE",
"269 781 LINE",
"269 701 LINE",
"343 701 LINE"
);
}
);
width = 484;
}
);
unicode = 00CB;
},
{
glyphname = Edotaccent;
layers = (
{
layerId = "F91748D5-4F43-431E-9F22-86E8B42883B3";
name = Regular;
paths = (
{
closed = 1;
nodes = (
"278 702 LINE",
"278 781 LINE",
"206 781 LINE",
"206 702 LINE"
);
},
{
closed = 1;
nodes = (
"65 0 LINE",
"440 0 LINE",
"440 62 LINE",
"133 62 LINE",
"133 279 LINE",
"396 279 LINE",
"396 342 LINE",
"133 342 LINE",
"133 545 LINE",
"435 545 LINE",
"435 606 LINE",
"65 606 LINE"
);
}
);
width = 484;
}
);
unicode = 0116;
},
{
glyphname = Egrave;
layers = (
{
layerId = "F91748D5-4F43-431E-9F22-86E8B42883B3";
name = Regular;
paths = (
{
closed = 1;
nodes = (
"435 606 LINE",
"65 606 LINE",
"65 0 LINE",
"440 0 LINE",
"440 62 LINE",
"133 62 LINE",
"133 279 LINE",
"396 279 LINE",
"396 342 LINE",
"133 342 LINE",
"133 545 LINE",
"435 545 LINE"
);
},
{
closed = 1;
nodes = (
"216 781 LINE",
"145 781 LINE",
"144 778 LINE",
"239 664 LINE",
"292 664 LINE"
);
}
);
width = 484;
}
);
unicode = 00C8;
},
{
glyphname = Emacron;
layers = (
{
layerId = "F91748D5-4F43-431E-9F22-86E8B42883B3";
name = Regular;
paths = (
{
closed = 1;
nodes = (
"353 671 LINE",
"353 731 LINE",
"132 731 LINE",
"132 671 LINE"
);
},
{
closed = 1;
nodes = (
"65 0 LINE",
"440 0 LINE",
"440 62 LINE",
"133 62 LINE",
"133 279 LINE",
"396 279 LINE",
"396 342 LINE",
"133 342 LINE",
"133 545 LINE",
"435 545 LINE",
"435 606 LINE",
"65 606 LINE"
);
}
);
width = 484;
}
);
unicode = 0112;
},
{
glyphname = Eogonek;
layers = (
{
layerId = "F91748D5-4F43-431E-9F22-86E8B42883B3";
name = Regular;
paths = (
{
closed = 1;
nodes = (
"435 545 LINE",
"435 606 LINE",
"65 606 LINE",
"65 0 LINE",
"388 0 LINE",
"370 -19 OFFCURVE",
"357 -43 OFFCURVE",
"357 -79 CURVE SMOOTH",
"357 -140 OFFCURVE",
"402 -159 OFFCURVE",
"439 -159 CURVE SMOOTH",
"456 -159 OFFCURVE",
"473 -154 OFFCURVE",
"492 -147 CURVE",
"492 -102 LINE",
"462 -102 LINE SMOOTH",
"432 -102 OFFCURVE",
"421 -79 OFFCURVE",
"421 -53 CURVE SMOOTH",
"421 -33 OFFCURVE",
"430 -13 OFFCURVE",
"440 0 CURVE",
"440 62 LINE",
"133 62 LINE",
"133 279 LINE",
"396 279 LINE",
"396 342 LINE",
"133 342 LINE",
"133 545 LINE"
);
}
);
width = 484;
}
);
unicode = 0118;
},
{
glyphname = F;
layers = (
{
layerId = "F91748D5-4F43-431E-9F22-86E8B42883B3";
name = Regular;
paths = (
{
closed = 1;
nodes = (
"65 0 LINE",
"133 0 LINE",
"133 274 LINE",
"382 274 LINE",
"382 335 LINE",
"133 335 LINE",
"133 545 LINE",
"413 545 LINE",
"413 606 LINE",
"65 606 LINE"
);
}
);
width = 443;
}
);
unicode = 0046;
},
{
glyphname = G;
layers = (
{
anchors = (
{
name = bottom;
position = "{282, 0}";
},
{
name = top;
position = "{282, 606}";
}
);
layerId = "F91748D5-4F43-431E-9F22-86E8B42883B3";
name = Regular;
paths = (
{
closed = 1;
nodes = (
"138 617 OFFCURVE",
"47 513 OFFCURVE",
"47 303 CURVE SMOOTH",
"47 94 OFFCURVE",
"133 -11 OFFCURVE",
"287 -11 CURVE SMOOTH",
"353 -11 OFFCURVE",
"405 11 OFFCURVE",
"442 67 CURVE",
"458 0 LINE",
"504 0 LINE",
"504 312 LINE",
"271 312 LINE",
"271 253 LINE",
"463 253 LINE",
"434 281 LINE",
"434 233 LINE SMOOTH",
"434 111 OFFCURVE",
"392 53 OFFCURVE",
"281 53 CURVE SMOOTH",
"177 53 OFFCURVE",
"119 126 OFFCURVE",
"119 281 CURVE SMOOTH",
"119 325 LINE SMOOTH",
"119 481 OFFCURVE",
"187 552 OFFCURVE",
"287 552 CURVE SMOOTH",
"376 552 OFFCURVE",
"434 507 OFFCURVE",
"434 402 CURVE",
"504 402 LINE",
"504 548 OFFCURVE",
"414 617 OFFCURVE",
"286 617 CURVE SMOOTH"
);
}
);
width = 564;
}
);
unicode = 0047;
},
{
glyphname = Gbreve;
layers = (
{
layerId = "F91748D5-4F43-431E-9F22-86E8B42883B3";
name = Regular;
paths = (
{
closed = 1;
nodes = (
"335 781 LINE",
"333 768 OFFCURVE",
"312 751 OFFCURVE",
"282 751 CURVE SMOOTH",
"253 751 OFFCURVE",
"232 768 OFFCURVE",
"230 781 CURVE",
"176 781 LINE",
"176 742 OFFCURVE",
"217 698 OFFCURVE",
"282 698 CURVE SMOOTH",
"349 698 OFFCURVE",
"390 742 OFFCURVE",
"390 781 CURVE"
);
},
{
closed = 1;
nodes = (
"138 617 OFFCURVE",
"47 513 OFFCURVE",
"47 303 CURVE SMOOTH",
"47 94 OFFCURVE",
"133 -11 OFFCURVE",
"287 -11 CURVE SMOOTH",
"353 -11 OFFCURVE",
"405 11 OFFCURVE",
"442 67 CURVE",
"458 0 LINE",
"504 0 LINE",
"504 312 LINE",
"271 312 LINE",
"271 253 LINE",
"463 253 LINE",
"434 281 LINE",
"434 233 LINE SMOOTH",
"434 111 OFFCURVE",
"392 53 OFFCURVE",
"281 53 CURVE SMOOTH",
"177 53 OFFCURVE",
"119 126 OFFCURVE",
"119 281 CURVE SMOOTH",
"119 325 LINE SMOOTH",
"119 481 OFFCURVE",
"187 552 OFFCURVE",
"287 552 CURVE SMOOTH",
"376 552 OFFCURVE",
"434 507 OFFCURVE",
"434 402 CURVE",
"504 402 LINE",
"504 548 OFFCURVE",
"414 617 OFFCURVE",
"286 617 CURVE SMOOTH"
);
}
);
width = 564;
}
);
unicode = 011E;
},
{
glyphname = Gcircumflex;
layers = (
{
layerId = "F91748D5-4F43-431E-9F22-86E8B42883B3";
name = Regular;
paths = (
{
closed = 1;
nodes = (
"389 660 LINE",
"314 780 LINE",
"250 780 LINE",
"174 660 LINE",
"243 660 LINE",
"283 732 LINE",
"322 660 LINE"
);
},
{
closed = 1;
nodes = (
"138 617 OFFCURVE",
"47 513 OFFCURVE",
"47 303 CURVE SMOOTH",
"47 94 OFFCURVE",
"133 -11 OFFCURVE",
"287 -11 CURVE SMOOTH",
"353 -11 OFFCURVE",
"405 11 OFFCURVE",
"442 67 CURVE",
"458 0 LINE",
"504 0 LINE",
"504 312 LINE",
"271 312 LINE",
"271 253 LINE",
"463 253 LINE",
"434 281 LINE",
"434 233 LINE SMOOTH",
"434 111 OFFCURVE",
"392 53 OFFCURVE",
"281 53 CURVE SMOOTH",
"177 53 OFFCURVE",
"119 126 OFFCURVE",
"119 281 CURVE SMOOTH",
"119 325 LINE SMOOTH",
"119 481 OFFCURVE",
"187 552 OFFCURVE",
"287 552 CURVE SMOOTH",
"376 552 OFFCURVE",
"434 507 OFFCURVE",
"434 402 CURVE",
"504 402 LINE",
"504 548 OFFCURVE",
"414 617 OFFCURVE",
"286 617 CURVE SMOOTH"
);
}
);
width = 564;
}
);
unicode = 011C;
},
{
glyphname = Gcommaaccent;
layers = (
{
layerId = "F91748D5-4F43-431E-9F22-86E8B42883B3";
name = Regular;
paths = (
{
closed = 1;
nodes = (
"319 -121 LINE",
"319 -54 LINE",
"254 -54 LINE",
"254 -126 LINE",
"280 -126 LINE",
"264 -185 LINE",
"297 -185 LINE"
);
},
{
closed = 1;
nodes = (
"138 617 OFFCURVE",
"47 513 OFFCURVE",
"47 303 CURVE SMOOTH",
"47 94 OFFCURVE",
"133 -11 OFFCURVE",
"287 -11 CURVE SMOOTH",
"353 -11 OFFCURVE",
"405 11 OFFCURVE",
"442 67 CURVE",
"458 0 LINE",
"504 0 LINE",
"504 312 LINE",
"271 312 LINE",
"271 253 LINE",
"463 253 LINE",
"434 281 LINE",
"434 233 LINE SMOOTH",
"434 111 OFFCURVE",
"392 53 OFFCURVE",
"281 53 CURVE SMOOTH",
"177 53 OFFCURVE",
"119 126 OFFCURVE",
"119 281 CURVE SMOOTH",
"119 325 LINE SMOOTH",
"119 481 OFFCURVE",
"187 552 OFFCURVE",
"287 552 CURVE SMOOTH",
"376 552 OFFCURVE",
"434 507 OFFCURVE",
"434 402 CURVE",
"504 402 LINE",
"504 548 OFFCURVE",
"414 617 OFFCURVE",
"286 617 CURVE SMOOTH"
);
}
);
width = 564;
}
);
unicode = 0122;
},
{
glyphname = Gdotaccent;
layers = (
{
layerId = "F91748D5-4F43-431E-9F22-86E8B42883B3";
name = Regular;
paths = (
{
closed = 1;
nodes = (
"319 702 LINE",
"319 781 LINE",
"247 781 LINE",
"247 702 LINE"
);
},
{
closed = 1;
nodes = (
"138 617 OFFCURVE",
"47 513 OFFCURVE",
"47 303 CURVE SMOOTH",
"47 94 OFFCURVE",
"133 -11 OFFCURVE",
"287 -11 CURVE SMOOTH",
"353 -11 OFFCURVE",
"405 11 OFFCURVE",
"442 67 CURVE",
"458 0 LINE",
"504 0 LINE",
"504 312 LINE",
"271 312 LINE",
"271 253 LINE",
"463 253 LINE",
"434 281 LINE",
"434 233 LINE SMOOTH",
"434 111 OFFCURVE",
"392 53 OFFCURVE",
"281 53 CURVE SMOOTH",
"177 53 OFFCURVE",
"119 126 OFFCURVE",
"119 281 CURVE SMOOTH",
"119 325 LINE SMOOTH",
"119 481 OFFCURVE",
"187 552 OFFCURVE",
"287 552 CURVE SMOOTH",
"376 552 OFFCURVE",
"434 507 OFFCURVE",
"434 402 CURVE",
"504 402 LINE",
"504 548 OFFCURVE",
"414 617 OFFCURVE",
"286 617 CURVE SMOOTH"
);
}
);
width = 564;
}
);
unicode = 0120;
},
{
glyphname = H;
layers = (
{
anchors = (
{
name = center;
position = "{262, 303}";
},
{
name = top;
position = "{262, 606}";
}
);
layerId = "F91748D5-4F43-431E-9F22-86E8B42883B3";
name = Regular;
paths = (
{
closed = 1;
nodes = (
"459 606 LINE",
"392 606 LINE",
"392 342 LINE",
"133 342 LINE",
"133 606 LINE",
"65 606 LINE",
"65 0 LINE",
"133 0 LINE",
"133 279 LINE",
"392 279 LINE",
"392 0 LINE",
"459 0 LINE"
);
}
);
width = 523;
}
);
unicode = 0048;
},
{
glyphname = Hbar;
layers = (
{
layerId = "F91748D5-4F43-431E-9F22-86E8B42883B3";
name = Regular;
paths = (
{
closed = 1;
nodes = (
"504 433 LINE",
"504 493 LINE",
"459 493 LINE",
"459 606 LINE",
"392 606 LINE",
"392 493 LINE",
"133 493 LINE",
"133 606 LINE",
"65 606 LINE",
"65 493 LINE",
"21 493 LINE",
"21 433 LINE",
"65 433 LINE",
"65 0 LINE",
"133 0 LINE",
"133 276 LINE",
"392 276 LINE",
"392 0 LINE",
"459 0 LINE",
"459 433 LINE"
);
},
{
closed = 1;
nodes = (
"392 337 LINE",
"132 337 LINE",
"132 433 LINE",
"392 433 LINE"
);
}
);
width = 523;
}
);
unicode = 0126;
},
{
glyphname = Hcircumflex;
layers = (
{
layerId = "F91748D5-4F43-431E-9F22-86E8B42883B3";
name = Regular;
paths = (
{
closed = 1;
nodes = (
"459 606 LINE",
"392 606 LINE",
"392 342 LINE",
"133 342 LINE",
"133 606 LINE",
"65 606 LINE",
"65 0 LINE",
"133 0 LINE",
"133 279 LINE",
"392 279 LINE",
"392 0 LINE",
"459 0 LINE"
);
},
{
closed = 1;
nodes = (
"293 780 LINE",
"229 780 LINE",
"153 660 LINE",
"222 660 LINE",
"263 732 LINE",
"301 660 LINE",
"369 660 LINE"
);
}
);
width = 523;
}
);
unicode = 0124;
},
{
glyphname = I;
layers = (
{
anchors = (
{
name = ogonek;
position = "{181, 9}";
},
{
name = top;
position = "{101, 606}";
}
);
layerId = "F91748D5-4F43-431E-9F22-86E8B42883B3";
name = Regular;
paths = (
{
closed = 1;
nodes = (
"135 0 LINE",
"135 606 LINE",
"67 606 LINE",
"67 0 LINE"
);
}
);
width = 202;
}
);
unicode = 0049;
},
{
glyphname = IJ;
layers = (
{
layerId = "F91748D5-4F43-431E-9F22-86E8B42883B3";
name = Regular;
paths = (
{
closed = 1;
nodes = (
"494 606 LINE",
"426 606 LINE",
"426 136 LINE SMOOTH",
"426 82 OFFCURVE",
"400 53 OFFCURVE",
"354 53 CURVE SMOOTH",
"308 53 OFFCURVE",
"282 82 OFFCURVE",
"282 136 CURVE SMOOTH",
"282 182 LINE",
"214 182 LINE",
"214 144 LINE SMOOTH",
"214 43 OFFCURVE",
"266 -11 OFFCURVE",
"354 -11 CURVE SMOOTH",
"442 -11 OFFCURVE",
"494 43 OFFCURVE",
"494 144 CURVE SMOOTH"
);
},
{
closed = 1;
nodes = (
"135 606 LINE",
"67 606 LINE",
"67 0 LINE",
"135 0 LINE"
);
}
);
width = 552;
}
);
unicode = 0132;
},
{
glyphname = Iacute;
layers = (
{
layerId = "F91748D5-4F43-431E-9F22-86E8B42883B3";
name = Regular;
paths = (
{
closed = 1;
nodes = (
"135 606 LINE",
"67 606 LINE",
"67 0 LINE",
"135 0 LINE"
);
},
{
closed = 1;
nodes = (
"198 781 LINE",
"128 781 LINE",
"52 664 LINE",
"105 664 LINE",
"199 778 LINE"
);
}
);
width = 202;
}
);
unicode = 00CD;
},
{
glyphname = Ibreve;
layers = (
{
layerId = "F91748D5-4F43-431E-9F22-86E8B42883B3";
name = Regular;
paths = (
{
closed = 1;
nodes = (
"135 0 LINE",
"135 606 LINE",
"67 606 LINE",
"67 0 LINE"
);
},
{
closed = 1;
nodes = (
"154 781 LINE",
"152 768 OFFCURVE",
"131 751 OFFCURVE",
"101 751 CURVE SMOOTH",
"72 751 OFFCURVE",
"51 768 OFFCURVE",
"49 781 CURVE",
"-7 781 LINE",
"-7 742 OFFCURVE",
"35 698 OFFCURVE",
"101 698 CURVE SMOOTH",
"167 698 OFFCURVE",
"207 742 OFFCURVE",
"207 781 CURVE"
);
}
);
width = 202;
}
);
unicode = 012C;
},
{
glyphname = Icircumflex;
layers = (
{
layerId = "F91748D5-4F43-431E-9F22-86E8B42883B3";
name = Regular;
paths = (
{
closed = 1;
nodes = (
"135 0 LINE",
"135 606 LINE",
"67 606 LINE",
"67 0 LINE"
);
},
{
closed = 1;
nodes = (
"208 660 LINE",
"133 780 LINE",
"69 780 LINE",
"-8 660 LINE",
"62 660 LINE",
"102 732 LINE",
"141 660 LINE"
);
}
);
width = 202;
}
);
unicode = 00CE;
},
{
glyphname = Idieresis;
layers = (
{
layerId = "F91748D5-4F43-431E-9F22-86E8B42883B3";
name = Regular;
paths = (
{
closed = 1;
nodes = (
"135 606 LINE",
"67 606 LINE",
"67 0 LINE",
"135 0 LINE"
);
},
{
closed = 1;
nodes = (
"75 781 LINE",
"1 781 LINE",
"1 701 LINE",
"75 701 LINE"
);
},
{
closed = 1;
nodes = (
"201 781 LINE",
"128 781 LINE",
"128 701 LINE",
"201 701 LINE"
);
}
);
width = 202;
}
);
unicode = 00CF;
},
{
glyphname = Idotaccent;
layers = (
{
layerId = "F91748D5-4F43-431E-9F22-86E8B42883B3";
name = Regular;
paths = (
{
closed = 1;
nodes = (
"135 0 LINE",
"135 606 LINE",
"67 606 LINE",
"67 0 LINE"
);
},
{
closed = 1;
nodes = (
"138 702 LINE",
"138 781 LINE",
"66 781 LINE",
"66 702 LINE"
);
}
);
width = 202;
}
);
unicode = 0130;
},
{
glyphname = Igrave;
layers = (
{
layerId = "F91748D5-4F43-431E-9F22-86E8B42883B3";
name = Regular;
paths = (
{
closed = 1;
nodes = (
"135 606 LINE",
"67 606 LINE",
"67 0 LINE",
"135 0 LINE"
);
},
{
closed = 1;
nodes = (
"75 781 LINE",
"3 781 LINE",
"2 778 LINE",
"98 664 LINE",
"151 664 LINE"
);
}
);
width = 202;
}
);
unicode = 00CC;
},
{
glyphname = Imacron;
layers = (
{
layerId = "F91748D5-4F43-431E-9F22-86E8B42883B3";
name = Regular;
paths = (
{
closed = 1;
nodes = (
"135 0 LINE",
"135 606 LINE",
"67 606 LINE",
"67 0 LINE"
);
},
{
closed = 1;
nodes = (
"211 671 LINE",
"211 731 LINE",
"-10 731 LINE",
"-10 671 LINE"
);
}
);
width = 202;
}
);
unicode = 012A;
},
{
glyphname = Iogonek;
layers = (
{
layerId = "F91748D5-4F43-431E-9F22-86E8B42883B3";
name = Regular;
paths = (
{
closed = 1;
nodes = (
"135 606 LINE",
"68 606 LINE",
"68 0 LINE",
"82 0 LINE",
"65 -19 OFFCURVE",
"52 -42 OFFCURVE",
"52 -79 CURVE SMOOTH",
"52 -140 OFFCURVE",
"96 -159 OFFCURVE",
"134 -159 CURVE SMOOTH",
"151 -159 OFFCURVE",
"169 -154 OFFCURVE",
"186 -147 CURVE",
"186 -102 LINE",
"156 -102 LINE SMOOTH",
"127 -102 OFFCURVE",
"114 -79 OFFCURVE",
"114 -53 CURVE SMOOTH",
"114 -28 OFFCURVE",
"126 -13 OFFCURVE",
"135 0 CURVE"
);
}
);
width = 202;
}
);
unicode = 012E;
},
{
glyphname = Itilde;
layers = (
{
layerId = "F91748D5-4F43-431E-9F22-86E8B42883B3";
name = Regular;
paths = (
{
closed = 1;
nodes = (
"135 0 LINE",
"135 606 LINE",
"67 606 LINE",
"67 0 LINE"
);
},
{
closed = 1;
nodes = (
"175 781 LINE",
"173 761 OFFCURVE",
"160 756 OFFCURVE",
"147 756 CURVE SMOOTH",
"113 756 OFFCURVE",
"85 781 OFFCURVE",
"49 781 CURVE SMOOTH",
"-1 781 OFFCURVE",
"-22 731 OFFCURVE",
"-22 694 CURVE",
"26 694 LINE",
"29 713 OFFCURVE",
"40 719 OFFCURVE",
"55 719 CURVE SMOOTH",
"88 719 OFFCURVE",
"116 694 OFFCURVE",
"153 694 CURVE SMOOTH",
"203 694 OFFCURVE",
"224 742 OFFCURVE",
"224 781 CURVE"
);
}
);
width = 202;
}
);
unicode = 0128;
},
{
glyphname = J;
layers = (
{
anchors = (
{
name = top;
position = "{175, 606}";
}
);
layerId = "F91748D5-4F43-431E-9F22-86E8B42883B3";
name = Regular;
paths = (
{
closed = 1;
nodes = (
"292 606 LINE",
"224 606 LINE",
"224 136 LINE SMOOTH",
"224 82 OFFCURVE",
"198 53 OFFCURVE",
"152 53 CURVE SMOOTH",
"106 53 OFFCURVE",
"80 82 OFFCURVE",
"80 136 CURVE SMOOTH",
"80 182 LINE",
"12 182 LINE",
"12 144 LINE SMOOTH",
"12 43 OFFCURVE",
"64 -11 OFFCURVE",
"152 -11 CURVE SMOOTH",
"240 -11 OFFCURVE",
"292 43 OFFCURVE",
"292 144 CURVE SMOOTH"
);
}
);
width = 350;
}
);
unicode = 004A;
},
{
glyphname = Jcircumflex;
layers = (
{
layerId = "F91748D5-4F43-431E-9F22-86E8B42883B3";
name = Regular;
paths = (
{
closed = 1;
nodes = (
"292 606 LINE",
"224 606 LINE",
"224 136 LINE SMOOTH",
"224 82 OFFCURVE",
"198 53 OFFCURVE",
"152 53 CURVE SMOOTH",
"106 53 OFFCURVE",
"80 82 OFFCURVE",
"80 136 CURVE SMOOTH",
"80 182 LINE",
"12 182 LINE",
"12 144 LINE SMOOTH",
"12 43 OFFCURVE",
"64 -11 OFFCURVE",
"152 -11 CURVE SMOOTH",
"240 -11 OFFCURVE",
"292 43 OFFCURVE",
"292 144 CURVE SMOOTH"
);
},
{
closed = 1;
nodes = (
"287 780 LINE",
"223 780 LINE",
"147 660 LINE",
"216 660 LINE",
"257 732 LINE",
"296 660 LINE",
"363 660 LINE"
);
}
);
width = 350;
}
);
unicode = 0134;
},
{
glyphname = K;
layers = (
{
anchors = (
{
name = bottom;
position = "{236, 0}";
},
{
name = top;
position = "{236, 606}";
}
);
layerId = "F91748D5-4F43-431E-9F22-86E8B42883B3";
name = Regular;
paths = (
{
closed = 1;
nodes = (
"132 283 LINE",
"132 606 LINE",
"65 606 LINE",
"65 0 LINE",
"132 0 LINE",
"132 198 LINE",
"230 303 LINE",
"383 0 LINE",
"459 0 LINE",
"270 363 LINE",
"453 606 LINE",
"378 606 LINE"
);
}
);
width = 473;
}
);
unicode = 004B;
},
{
glyphname = Kcommaaccent;
layers = (
{
layerId = "F91748D5-4F43-431E-9F22-86E8B42883B3";
name = Regular;
paths = (
{
closed = 1;
nodes = (
"268 -121 LINE",
"268 -54 LINE",
"203 -54 LINE",
"203 -126 LINE",
"229 -126 LINE",
"214 -185 LINE",
"247 -185 LINE"
);
},
{
closed = 1;
nodes = (
"132 283 LINE",
"132 606 LINE",
"65 606 LINE",
"65 0 LINE",
"132 0 LINE",
"132 198 LINE",
"230 303 LINE",
"383 0 LINE",
"459 0 LINE",
"270 363 LINE",
"453 606 LINE",
"378 606 LINE"
);
}
);
width = 473;
}
);
unicode = 0136;
},
{
glyphname = L;
layers = (
{
anchors = (
{
name = bottom;
position = "{196, 0}";
},
{
name = top;
position = "{196, 606}";
}
);
layerId = "F91748D5-4F43-431E-9F22-86E8B42883B3";
name = Regular;
paths = (
{
closed = 1;
nodes = (
"133 606 LINE",
"65 606 LINE",
"65 0 LINE",
"377 0 LINE",
"377 61 LINE",
"133 61 LINE"
);
}
);
width = 391;
}
);
unicode = 004C;
},
{
glyphname = Lacute;
layers = (
{
layerId = "F91748D5-4F43-431E-9F22-86E8B42883B3";
name = Regular;
paths = (
{
closed = 1;
nodes = (
"133 606 LINE",
"65 606 LINE",
"65 0 LINE",
"377 0 LINE",
"377 61 LINE",
"133 61 LINE"
);
},
{
closed = 1;
nodes = (
"191 781 LINE",
"119 781 LINE",
"43 664 LINE",
"97 664 LINE",
"192 778 LINE"
);
}
);
width = 391;
}
);
unicode = 0139;
},
{
glyphname = Lcaron;
layers = (
{
layerId = "F91748D5-4F43-431E-9F22-86E8B42883B3";
name = Regular;
paths = (
{
closed = 1;
nodes = (
"133 606 LINE",
"65 606 LINE",
"65 0 LINE",
"377 0 LINE",
"377 61 LINE",
"133 61 LINE"
);
},
{
closed = 1;
nodes = (
"354 606 LINE",
"276 606 LINE",
"276 519 LINE",
"307 519 LINE",
"276 417 LINE",
"317 417 LINE",
"354 526 LINE"
);
}
);
width = 391;
}
);
unicode = 013D;
},
{
glyphname = Lcommaaccent;
layers = (
{
layerId = "F91748D5-4F43-431E-9F22-86E8B42883B3";
name = Regular;
paths = (
{
closed = 1;
nodes = (
"133 606 LINE",
"65 606 LINE",
"65 0 LINE",
"377 0 LINE",
"377 61 LINE",
"133 61 LINE"
);
},
{
closed = 1;
nodes = (
"229 -54 LINE",
"163 -54 LINE",
"163 -126 LINE",
"189 -126 LINE",
"172 -185 LINE",
"207 -185 LINE",
"229 -121 LINE"
);
}
);
width = 391;
}
);
unicode = 013B;
},
{
glyphname = Ldot;
layers = (
{
layerId = "F91748D5-4F43-431E-9F22-86E8B42883B3";
name = Regular;
paths = (
{
closed = 1;
nodes = (
"133 606 LINE",
"65 606 LINE",
"65 0 LINE",
"377 0 LINE",
"377 61 LINE",
"133 61 LINE"
);
},
{
closed = 1;
nodes = (
"344 464 LINE",
"256 464 LINE",
"256 367 LINE",
"344 367 LINE"
);
}
);
width = 391;
}
);
unicode = 013F;
},
{
glyphname = Lslash;
layers = (
{
layerId = "F91748D5-4F43-431E-9F22-86E8B42883B3";
name = Regular;
paths = (
{
closed = 1;
nodes = (
"132 606 LINE",
"65 606 LINE",
"65 276 LINE",
"0 219 LINE",
"0 163 LINE",
"65 219 LINE",
"65 0 LINE",
"376 0 LINE",
"376 61 LINE",
"132 61 LINE",
"132 279 LINE",
"259 390 LINE",
"259 448 LINE",
"132 336 LINE"
);
}
);
width = 391;
}
);
unicode = 0141;
},
{
glyphname = M;
layers = (
{
layerId = "F91748D5-4F43-431E-9F22-86E8B42883B3";
name = Regular;
paths = (
{
closed = 1;
nodes = (
"546 606 LINE",
"439 606 LINE",
"322 190 LINE SMOOTH",
"309 145 OFFCURVE",
"302 53 OFFCURVE",
"302 53 CURVE SMOOTH",
"299 53 LINE SMOOTH",
"299 53 OFFCURVE",
"292 144 OFFCURVE",
"279 190 CURVE SMOOTH",
"163 606 LINE",
"57 606 LINE",
"57 0 LINE",
"119 0 LINE",
"119 456 LINE SMOOTH",
"119 472 OFFCURVE",
"113 549 OFFCURVE",
"113 549 CURVE",
"117 549 LINE",
"123 518 OFFCURVE",
"126 484 OFFCURVE",
"134 455 CURVE SMOOTH",
"267 0 LINE",
"327 0 LINE",
"457 447 LINE SMOOTH",
"467 481 OFFCURVE",
"472 515 OFFCURVE",
"480 549 CURVE",
"483 549 LINE",
"483 549 OFFCURVE",
"476 475 OFFCURVE",
"476 456 CURVE SMOOTH",
"476 0 LINE",
"546 0 LINE"
);
}
);
width = 604;
}
);
unicode = 004D;
},
{
glyphname = N;
layers = (
{
anchors = (
{
name = bottom;
position = "{262, 0}";
},
{
name = top;
position = "{262, 606}";
}
);
layerId = "F91748D5-4F43-431E-9F22-86E8B42883B3";
name = Regular;
paths = (
{
closed = 1;
nodes = (
"459 606 LINE",
"399 606 LINE",
"399 212 LINE SMOOTH",
"399 190 OFFCURVE",
"401 124 OFFCURVE",
"401 124 CURVE",
"399 123 LINE",
"399 123 OFFCURVE",
"374 186 OFFCURVE",
"358 211 CURVE SMOOTH",
"122 606 LINE",
"65 606 LINE",
"65 0 LINE",
"126 0 LINE",
"126 400 LINE SMOOTH",
"126 428 OFFCURVE",
"122 490 OFFCURVE",
"122 490 CURVE",
"124 491 LINE",
"124 491 OFFCURVE",
"149 431 OFFCURVE",
"167 401 CURVE SMOOTH",
"405 0 LINE",
"459 0 LINE"
);
}
);
width = 523;
}
);
unicode = 004E;
},
{
glyphname = Nacute;
layers = (
{
layerId = "F91748D5-4F43-431E-9F22-86E8B42883B3";
name = Regular;
paths = (
{
closed = 1;
nodes = (
"459 606 LINE",
"399 606 LINE",
"399 212 LINE SMOOTH",
"399 190 OFFCURVE",
"401 124 OFFCURVE",
"401 124 CURVE",
"399 123 LINE",
"399 123 OFFCURVE",
"374 186 OFFCURVE",
"358 211 CURVE SMOOTH",
"122 606 LINE",
"65 606 LINE",
"65 0 LINE",
"126 0 LINE",
"126 400 LINE SMOOTH",
"126 428 OFFCURVE",
"122 490 OFFCURVE",
"122 490 CURVE",
"124 491 LINE",
"124 491 OFFCURVE",
"149 431 OFFCURVE",
"167 401 CURVE SMOOTH",
"405 0 LINE",
"459 0 LINE"
);
},
{
closed = 1;
nodes = (
"358 781 LINE",
"287 781 LINE",
"211 664 LINE",
"266 664 LINE",
"359 778 LINE"
);
}
);
width = 523;
}
);
unicode = 0143;
},
{
glyphname = Ncaron;
layers = (
{
layerId = "F91748D5-4F43-431E-9F22-86E8B42883B3";
name = Regular;
paths = (
{
closed = 1;
nodes = (
"459 606 LINE",
"399 606 LINE",
"399 212 LINE SMOOTH",
"399 190 OFFCURVE",
"401 124 OFFCURVE",
"401 124 CURVE",
"399 123 LINE",
"399 123 OFFCURVE",
"374 186 OFFCURVE",
"358 211 CURVE SMOOTH",
"122 606 LINE",
"65 606 LINE",
"65 0 LINE",
"126 0 LINE",
"126 400 LINE SMOOTH",
"126 428 OFFCURVE",
"122 490 OFFCURVE",
"122 490 CURVE",
"124 491 LINE",
"124 491 OFFCURVE",
"149 431 OFFCURVE",
"167 401 CURVE SMOOTH",
"405 0 LINE",
"459 0 LINE"
);
},
{
closed = 1;
nodes = (
"369 781 LINE",
"301 781 LINE",
"262 708 LINE",
"222 781 LINE",
"153 781 LINE",
"228 661 LINE",
"291 661 LINE"
);
}
);
width = 523;
}
);
unicode = 0147;
},
{
glyphname = Ncommaaccent;
layers = (
{
layerId = "F91748D5-4F43-431E-9F22-86E8B42883B3";
name = Regular;
paths = (
{
closed = 1;
nodes = (
"459 606 LINE",
"399 606 LINE",
"399 212 LINE SMOOTH",
"399 190 OFFCURVE",
"401 124 OFFCURVE",
"401 124 CURVE",
"399 123 LINE",
"399 123 OFFCURVE",
"374 186 OFFCURVE",
"358 211 CURVE SMOOTH",
"122 606 LINE",
"65 606 LINE",
"65 0 LINE",
"126 0 LINE",
"126 400 LINE SMOOTH",
"126 428 OFFCURVE",
"122 490 OFFCURVE",
"122 490 CURVE",
"124 491 LINE",
"124 491 OFFCURVE",
"149 431 OFFCURVE",
"167 401 CURVE SMOOTH",
"405 0 LINE",
"459 0 LINE"
);
},
{
closed = 1;
nodes = (
"295 -54 LINE",
"229 -54 LINE",
"229 -126 LINE",
"256 -126 LINE",
"238 -185 LINE",
"273 -185 LINE",
"295 -121 LINE"
);
}
);
width = 523;
}
);
unicode = 0145;
},
{
glyphname = Eng;
layers = (
{
layerId = "F91748D5-4F43-431E-9F22-86E8B42883B3";
name = Regular;
paths = (
{
closed = 1;
nodes = (
"459 606 LINE",
"395 606 LINE",
"399 212 LINE SMOOTH",
"399 190 OFFCURVE",
"401 124 OFFCURVE",
"401 124 CURVE",
"399 123 LINE",
"399 123 OFFCURVE",
"374 186 OFFCURVE",
"358 211 CURVE SMOOTH",
"122 606 LINE",
"65 606 LINE",
"65 0 LINE",
"126 0 LINE",
"126 400 LINE SMOOTH",
"126 428 OFFCURVE",
"122 490 OFFCURVE",
"122 490 CURVE",
"124 491 LINE",
"124 491 OFFCURVE",
"149 431 OFFCURVE",
"167 401 CURVE SMOOTH",
"396 17 LINE",
"396 -65 LINE SMOOTH",
"396 -93 OFFCURVE",
"382 -108 OFFCURVE",
"354 -108 CURVE SMOOTH",
"316 -108 LINE",
"316 -150 LINE",
"330 -156 OFFCURVE",
"352 -161 OFFCURVE",
"373 -161 CURVE SMOOTH",
"438 -161 OFFCURVE",
"459 -110 OFFCURVE",
"459 -59 CURVE SMOOTH"
);
}
);
width = 523;
}
);
unicode = 014A;
},
{
glyphname = Ntilde;
layers = (
{
layerId = "F91748D5-4F43-431E-9F22-86E8B42883B3";
name = Regular;
paths = (
{
closed = 1;
nodes = (
"459 606 LINE",
"399 606 LINE",
"399 212 LINE SMOOTH",
"399 190 OFFCURVE",
"401 124 OFFCURVE",
"401 124 CURVE",
"399 123 LINE",
"399 123 OFFCURVE",
"374 186 OFFCURVE",
"358 211 CURVE SMOOTH",
"122 606 LINE",
"65 606 LINE",
"65 0 LINE",
"126 0 LINE",
"126 400 LINE SMOOTH",
"126 428 OFFCURVE",
"122 490 OFFCURVE",
"122 490 CURVE",
"124 491 LINE",
"124 491 OFFCURVE",
"149 431 OFFCURVE",
"167 401 CURVE SMOOTH",
"405 0 LINE",
"459 0 LINE"
);
},
{
closed = 1;
nodes = (
"335 781 LINE",
"334 761 OFFCURVE",
"322 756 OFFCURVE",
"307 756 CURVE SMOOTH",
"274 756 OFFCURVE",
"247 781 OFFCURVE",
"210 781 CURVE SMOOTH",
"160 781 OFFCURVE",
"139 731 OFFCURVE",
"139 694 CURVE",
"188 694 LINE",
"191 713 OFFCURVE",
"201 719 OFFCURVE",
"216 719 CURVE SMOOTH",
"249 719 OFFCURVE",
"276 694 OFFCURVE",
"314 694 CURVE SMOOTH",
"364 694 OFFCURVE",
"386 742 OFFCURVE",
"386 781 CURVE"
);
}
);
width = 523;
}
);
unicode = 00D1;
},
{
glyphname = O;
layers = (
{
anchors = (
{
name = top;
position = "{282, 606}";
}
);
layerId = "F91748D5-4F43-431E-9F22-86E8B42883B3";
name = Regular;
paths = (
{
closed = 1;
nodes = (
"135 617 OFFCURVE",
"47 513 OFFCURVE",
"47 303 CURVE SMOOTH",
"47 94 OFFCURVE",
"135 -11 OFFCURVE",
"282 -11 CURVE SMOOTH",
"429 -11 OFFCURVE",
"517 94 OFFCURVE",
"517 303 CURVE SMOOTH",
"517 513 OFFCURVE",
"429 617 OFFCURVE",
"282 617 CURVE SMOOTH"
);
},
{
closed = 1;
nodes = (
"382 552 OFFCURVE",
"446 481 OFFCURVE",
"446 325 CURVE SMOOTH",
"446 281 LINE SMOOTH",
"446 125 OFFCURVE",
"382 53 OFFCURVE",
"282 53 CURVE SMOOTH",
"183 53 OFFCURVE",
"119 125 OFFCURVE",
"119 281 CURVE SMOOTH",
"119 325 LINE SMOOTH",
"119 481 OFFCURVE",
"183 552 OFFCURVE",
"282 552 CURVE SMOOTH"
);
}
);
width = 564;
}
);
unicode = 004F;
},
{
glyphname = Oacute;
layers = (
{
layerId = "F91748D5-4F43-431E-9F22-86E8B42883B3";
name = Regular;
paths = (
{
closed = 1;
nodes = (
"135 617 OFFCURVE",
"47 513 OFFCURVE",
"47 303 CURVE SMOOTH",
"47 94 OFFCURVE",
"135 -11 OFFCURVE",
"282 -11 CURVE SMOOTH",
"429 -11 OFFCURVE",
"517 94 OFFCURVE",
"517 303 CURVE SMOOTH",
"517 513 OFFCURVE",
"429 617 OFFCURVE",
"282 617 CURVE SMOOTH"
);
},
{
closed = 1;
nodes = (
"382 552 OFFCURVE",
"446 481 OFFCURVE",
"446 325 CURVE SMOOTH",
"446 281 LINE SMOOTH",
"446 125 OFFCURVE",
"382 53 OFFCURVE",
"282 53 CURVE SMOOTH",
"183 53 OFFCURVE",
"119 125 OFFCURVE",
"119 281 CURVE SMOOTH",
"119 325 LINE SMOOTH",
"119 481 OFFCURVE",
"183 552 OFFCURVE",
"282 552 CURVE SMOOTH"
);
},
{
closed = 1;
nodes = (
"380 781 LINE",
"309 781 LINE",
"233 664 LINE",
"286 664 LINE",
"381 778 LINE"
);
}
);
width = 564;
}
);
unicode = 00D3;
},
{
glyphname = Obreve;
layers = (
{
layerId = "F91748D5-4F43-431E-9F22-86E8B42883B3";
name = Regular;
paths = (
{
closed = 1;
nodes = (
"135 617 OFFCURVE",
"47 513 OFFCURVE",
"47 303 CURVE SMOOTH",
"47 94 OFFCURVE",
"135 -11 OFFCURVE",
"282 -11 CURVE SMOOTH",
"429 -11 OFFCURVE",
"517 94 OFFCURVE",
"517 303 CURVE SMOOTH",
"517 513 OFFCURVE",
"429 617 OFFCURVE",
"282 617 CURVE SMOOTH"
);
},
{
closed = 1;
nodes = (
"382 552 OFFCURVE",
"446 481 OFFCURVE",
"446 325 CURVE SMOOTH",
"446 281 LINE SMOOTH",
"446 125 OFFCURVE",
"382 53 OFFCURVE",
"282 53 CURVE SMOOTH",
"183 53 OFFCURVE",
"119 125 OFFCURVE",
"119 281 CURVE SMOOTH",
"119 325 LINE SMOOTH",
"119 481 OFFCURVE",
"183 552 OFFCURVE",
"282 552 CURVE SMOOTH"
);
},
{
closed = 1;
nodes = (
"335 781 LINE",
"333 768 OFFCURVE",
"312 751 OFFCURVE",
"282 751 CURVE SMOOTH",
"253 751 OFFCURVE",
"232 768 OFFCURVE",
"230 781 CURVE",
"176 781 LINE",
"176 742 OFFCURVE",
"217 698 OFFCURVE",
"282 698 CURVE SMOOTH",
"349 698 OFFCURVE",
"390 742 OFFCURVE",
"390 781 CURVE"
);
}
);
width = 564;
}
);
unicode = 014E;
},
{
glyphname = Ocircumflex;
layers = (
{
layerId = "F91748D5-4F43-431E-9F22-86E8B42883B3";
name = Regular;
paths = (
{
closed = 1;
nodes = (
"135 617 OFFCURVE",
"47 513 OFFCURVE",
"47 303 CURVE SMOOTH",
"47 94 OFFCURVE",
"135 -11 OFFCURVE",
"282 -11 CURVE SMOOTH",
"429 -11 OFFCURVE",
"517 94 OFFCURVE",
"517 303 CURVE SMOOTH",
"517 513 OFFCURVE",
"429 617 OFFCURVE",
"282 617 CURVE SMOOTH"
);
},
{
closed = 1;
nodes = (
"382 552 OFFCURVE",
"446 481 OFFCURVE",
"446 325 CURVE SMOOTH",
"446 281 LINE SMOOTH",
"446 125 OFFCURVE",
"382 53 OFFCURVE",
"282 53 CURVE SMOOTH",
"183 53 OFFCURVE",
"119 125 OFFCURVE",
"119 281 CURVE SMOOTH",
"119 325 LINE SMOOTH",
"119 481 OFFCURVE",
"183 552 OFFCURVE",
"282 552 CURVE SMOOTH"
);
},
{
closed = 1;
nodes = (
"389 660 LINE",
"314 780 LINE",
"250 780 LINE",
"174 660 LINE",
"243 660 LINE",
"283 732 LINE",
"322 660 LINE"
);
}
);
width = 564;
}
);
unicode = 00D4;
},
{
glyphname = Odieresis;
layers = (
{
layerId = "F91748D5-4F43-431E-9F22-86E8B42883B3";
name = Regular;
paths = (
{
closed = 1;
nodes = (
"135 617 OFFCURVE",
"47 513 OFFCURVE",
"47 303 CURVE SMOOTH",
"47 94 OFFCURVE",
"135 -11 OFFCURVE",
"282 -11 CURVE SMOOTH",
"429 -11 OFFCURVE",
"517 94 OFFCURVE",
"517 303 CURVE SMOOTH",
"517 513 OFFCURVE",
"429 617 OFFCURVE",
"282 617 CURVE SMOOTH"
);
},
{
closed = 1;
nodes = (
"382 552 OFFCURVE",
"446 481 OFFCURVE",
"446 325 CURVE SMOOTH",
"446 281 LINE SMOOTH",
"446 125 OFFCURVE",
"382 53 OFFCURVE",
"282 53 CURVE SMOOTH",
"183 53 OFFCURVE",
"119 125 OFFCURVE",
"119 281 CURVE SMOOTH",
"119 325 LINE SMOOTH",
"119 481 OFFCURVE",
"183 552 OFFCURVE",
"282 552 CURVE SMOOTH"
);
},
{
closed = 1;
nodes = (
"257 781 LINE",
"183 781 LINE",
"183 701 LINE",
"257 701 LINE"
);
},
{
closed = 1;
nodes = (
"382 781 LINE",
"308 781 LINE",
"308 701 LINE",
"382 701 LINE"
);
}
);
width = 564;
}
);
unicode = 00D6;
},
{
glyphname = Ograve;
layers = (
{
layerId = "F91748D5-4F43-431E-9F22-86E8B42883B3";
name = Regular;
paths = (
{
closed = 1;
nodes = (
"135 617 OFFCURVE",
"47 513 OFFCURVE",
"47 303 CURVE SMOOTH",
"47 94 OFFCURVE",
"135 -11 OFFCURVE",
"282 -11 CURVE SMOOTH",
"429 -11 OFFCURVE",
"517 94 OFFCURVE",
"517 303 CURVE SMOOTH",
"517 513 OFFCURVE",
"429 617 OFFCURVE",
"282 617 CURVE SMOOTH"
);
},
{
closed = 1;
nodes = (
"382 552 OFFCURVE",
"446 481 OFFCURVE",
"446 325 CURVE SMOOTH",
"446 281 LINE SMOOTH",
"446 125 OFFCURVE",
"382 53 OFFCURVE",
"282 53 CURVE SMOOTH",
"183 53 OFFCURVE",
"119 125 OFFCURVE",
"119 281 CURVE SMOOTH",
"119 325 LINE SMOOTH",
"119 481 OFFCURVE",
"183 552 OFFCURVE",
"282 552 CURVE SMOOTH"
);
},
{
closed = 1;
nodes = (
"256 781 LINE",
"184 781 LINE",
"184 778 LINE",
"279 664 LINE",
"332 664 LINE"
);
}
);
width = 564;
}
);
unicode = 00D2;
},
{
glyphname = Ohungarumlaut;
layers = (
{
layerId = "F91748D5-4F43-431E-9F22-86E8B42883B3";
name = Regular;
paths = (
{
closed = 1;
nodes = (
"135 617 OFFCURVE",
"47 513 OFFCURVE",
"47 303 CURVE SMOOTH",
"47 94 OFFCURVE",
"135 -11 OFFCURVE",
"282 -11 CURVE SMOOTH",
"429 -11 OFFCURVE",
"517 94 OFFCURVE",
"517 303 CURVE SMOOTH",
"517 513 OFFCURVE",
"429 617 OFFCURVE",
"282 617 CURVE SMOOTH"
);
},
{
closed = 1;
nodes = (
"382 552 OFFCURVE",
"446 481 OFFCURVE",
"446 325 CURVE SMOOTH",
"446 281 LINE SMOOTH",
"446 125 OFFCURVE",
"382 53 OFFCURVE",
"282 53 CURVE SMOOTH",
"183 53 OFFCURVE",
"119 125 OFFCURVE",
"119 281 CURVE SMOOTH",
"119 325 LINE SMOOTH",
"119 481 OFFCURVE",
"183 552 OFFCURVE",
"282 552 CURVE SMOOTH"
);
},
{
closed = 1;
nodes = (
"332 781 LINE",
"257 781 LINE",
"202 664 LINE",
"259 664 LINE",
"333 778 LINE"
);
},
{
closed = 1;
nodes = (
"446 781 LINE",
"370 781 LINE",
"315 664 LINE",
"373 664 LINE",
"447 778 LINE"
);
}
);
width = 564;
}
);
unicode = 0150;
},
{
glyphname = Omacron;
layers = (
{
layerId = "F91748D5-4F43-431E-9F22-86E8B42883B3";
name = Regular;
paths = (
{
closed = 1;
nodes = (
"135 617 OFFCURVE",
"47 513 OFFCURVE",
"47 303 CURVE SMOOTH",
"47 94 OFFCURVE",
"135 -11 OFFCURVE",
"282 -11 CURVE SMOOTH",
"429 -11 OFFCURVE",
"517 94 OFFCURVE",
"517 303 CURVE SMOOTH",
"517 513 OFFCURVE",
"429 617 OFFCURVE",
"282 617 CURVE SMOOTH"
);
},
{
closed = 1;
nodes = (
"382 552 OFFCURVE",
"446 481 OFFCURVE",
"446 325 CURVE SMOOTH",
"446 281 LINE SMOOTH",
"446 125 OFFCURVE",
"382 53 OFFCURVE",
"282 53 CURVE SMOOTH",
"183 53 OFFCURVE",
"119 125 OFFCURVE",
"119 281 CURVE SMOOTH",
"119 325 LINE SMOOTH",
"119 481 OFFCURVE",
"183 552 OFFCURVE",
"282 552 CURVE SMOOTH"
);
},
{
closed = 1;
nodes = (
"392 671 LINE",
"392 731 LINE",
"171 731 LINE",
"171 671 LINE"
);
}
);
width = 564;
}
);
unicode = 014C;
},
{
glyphname = Oslash;
layers = (
{
anchors = (
{
name = top;
position = "{282, 606}";
}
);
layerId = "F91748D5-4F43-431E-9F22-86E8B42883B3";
name = Regular;
paths = (
{
closed = 1;
nodes = (
"519 639 LINE",
"467 639 LINE",
"425 570 LINE",
"387 601 OFFCURVE",
"339 617 OFFCURVE",
"282 617 CURVE SMOOTH",
"135 617 OFFCURVE",
"47 513 OFFCURVE",
"47 303 CURVE SMOOTH",
"47 199 OFFCURVE",
"69 119 OFFCURVE",
"110 67 CURVE",
"47 -33 LINE",
"99 -33 LINE",
"140 36 LINE",
"178 5 OFFCURVE",
"225 -11 OFFCURVE",
"282 -11 CURVE SMOOTH",
"429 -11 OFFCURVE",
"518 94 OFFCURVE",
"518 303 CURVE SMOOTH",
"518 408 OFFCURVE",
"495 485 OFFCURVE",
"454 538 CURVE"
);
},
{
closed = 1;
nodes = (
"415 476 LINE",
"435 439 OFFCURVE",
"445 389 OFFCURVE",
"445 325 CURVE SMOOTH",
"445 281 LINE SMOOTH",
"445 125 OFFCURVE",
"381 53 OFFCURVE",
"282 53 CURVE SMOOTH",
"239 53 OFFCURVE",
"204 66 OFFCURVE",
"176 93 CURVE"
);
},
{
closed = 1;
nodes = (
"325 552 OFFCURVE",
"359 540 OFFCURVE",
"388 511 CURVE",
"149 131 LINE",
"129 167 OFFCURVE",
"119 217 OFFCURVE",
"119 281 CURVE SMOOTH",
"119 325 LINE SMOOTH",
"119 481 OFFCURVE",
"183 552 OFFCURVE",
"282 552 CURVE SMOOTH"
);
}
);
width = 564;
}
);
unicode = 00D8;
},
{
glyphname = Oslashacute;
layers = (
{
layerId = "F91748D5-4F43-431E-9F22-86E8B42883B3";
name = Regular;
paths = (
{
closed = 1;
nodes = (
"519 639 LINE",
"467 639 LINE",
"425 570 LINE",
"387 601 OFFCURVE",
"339 617 OFFCURVE",
"282 617 CURVE SMOOTH",
"135 617 OFFCURVE",
"47 513 OFFCURVE",
"47 303 CURVE SMOOTH",
"47 199 OFFCURVE",
"69 119 OFFCURVE",
"110 67 CURVE",
"47 -33 LINE",
"99 -33 LINE",
"140 36 LINE",
"178 5 OFFCURVE",
"225 -11 OFFCURVE",
"282 -11 CURVE SMOOTH",
"429 -11 OFFCURVE",
"518 94 OFFCURVE",
"518 303 CURVE SMOOTH",
"518 408 OFFCURVE",
"495 485 OFFCURVE",
"454 538 CURVE"
);
},
{
closed = 1;
nodes = (
"415 476 LINE",
"435 439 OFFCURVE",
"445 389 OFFCURVE",
"445 325 CURVE SMOOTH",
"445 281 LINE SMOOTH",
"445 125 OFFCURVE",
"381 53 OFFCURVE",
"282 53 CURVE SMOOTH",
"239 53 OFFCURVE",
"204 66 OFFCURVE",
"176 93 CURVE"
);
},
{
closed = 1;
nodes = (
"325 552 OFFCURVE",
"359 540 OFFCURVE",
"388 511 CURVE",
"149 131 LINE",
"129 167 OFFCURVE",
"119 217 OFFCURVE",
"119 281 CURVE SMOOTH",
"119 325 LINE SMOOTH",
"119 481 OFFCURVE",
"183 552 OFFCURVE",
"282 552 CURVE SMOOTH"
);
},
{
closed = 1;
nodes = (
"380 781 LINE",
"309 781 LINE",
"233 664 LINE",
"286 664 LINE",
"381 778 LINE"
);
}
);
width = 564;
}
);
unicode = 01FE;
},
{
glyphname = Otilde;
layers = (
{
layerId = "F91748D5-4F43-431E-9F22-86E8B42883B3";
name = Regular;
paths = (
{
closed = 1;
nodes = (
"135 617 OFFCURVE",
"47 513 OFFCURVE",
"47 303 CURVE SMOOTH",
"47 94 OFFCURVE",
"135 -11 OFFCURVE",
"282 -11 CURVE SMOOTH",
"429 -11 OFFCURVE",
"517 94 OFFCURVE",
"517 303 CURVE SMOOTH",
"517 513 OFFCURVE",
"429 617 OFFCURVE",
"282 617 CURVE SMOOTH"
);
},
{
closed = 1;
nodes = (
"382 552 OFFCURVE",
"446 481 OFFCURVE",
"446 325 CURVE SMOOTH",
"446 281 LINE SMOOTH",
"446 125 OFFCURVE",
"382 53 OFFCURVE",
"282 53 CURVE SMOOTH",
"183 53 OFFCURVE",
"119 125 OFFCURVE",
"119 281 CURVE SMOOTH",
"119 325 LINE SMOOTH",
"119 481 OFFCURVE",
"183 552 OFFCURVE",
"282 552 CURVE SMOOTH"
);
},
{
closed = 1;
nodes = (
"357 781 LINE",
"354 761 OFFCURVE",
"343 756 OFFCURVE",
"327 756 CURVE SMOOTH",
"294 756 OFFCURVE",
"267 781 OFFCURVE",
"230 781 CURVE SMOOTH",
"180 781 OFFCURVE",
"159 731 OFFCURVE",
"159 694 CURVE",
"207 694 LINE",
"210 713 OFFCURVE",
"221 719 OFFCURVE",
"236 719 CURVE SMOOTH",
"270 719 OFFCURVE",
"297 694 OFFCURVE",
"334 694 CURVE SMOOTH",
"384 694 OFFCURVE",
"405 742 OFFCURVE",
"405 781 CURVE"
);
}
);
width = 564;
}
);
unicode = 00D5;
},
{
glyphname = OE;
layers = (
{
anchors = (
{
name = top;
position = "{362, 606}";
}
);
layerId = "F91748D5-4F43-431E-9F22-86E8B42883B3";
name = Regular;
paths = (
{
closed = 1;
nodes = (
"121 617 OFFCURVE",
"48 513 OFFCURVE",
"48 303 CURVE SMOOTH",
"48 94 OFFCURVE",
"121 -11 OFFCURVE",
"245 -11 CURVE SMOOTH",
"303 -11 OFFCURVE",
"348 13 OFFCURVE",
"381 62 CURVE",
"381 0 LINE",
"691 0 LINE",
"691 62 LINE",
"447 62 LINE",
"447 279 LINE",
"646 279 LINE",
"646 342 LINE",
"447 342 LINE",
"447 545 LINE",
"687 545 LINE",
"687 606 LINE",
"381 606 LINE",
"381 544 LINE",
"348 592 OFFCURVE",
"303 617 OFFCURVE",
"245 617 CURVE SMOOTH"
);
},
{
closed = 1;
nodes = (
"329 552 OFFCURVE",
"381 476 OFFCURVE",
"381 325 CURVE SMOOTH",
"381 281 LINE SMOOTH",
"381 130 OFFCURVE",
"329 53 OFFCURVE",
"250 53 CURVE SMOOTH",
"170 53 OFFCURVE",
"120 130 OFFCURVE",
"120 281 CURVE SMOOTH",
"120 325 LINE SMOOTH",
"120 476 OFFCURVE",
"170 552 OFFCURVE",
"250 552 CURVE SMOOTH"
);
}
);
width = 725;
}
);
unicode = 0152;
},
{
glyphname = P;
layers = (
{
layerId = "F91748D5-4F43-431E-9F22-86E8B42883B3";
name = Regular;
paths = (
{
closed = 1;
nodes = (
"133 254 LINE",
"281 254 LINE SMOOTH",
"393 254 OFFCURVE",
"460 327 OFFCURVE",
"460 432 CURVE SMOOTH",
"460 536 OFFCURVE",
"399 606 OFFCURVE",
"281 606 CURVE SMOOTH",
"65 606 LINE",
"65 0 LINE",
"133 0 LINE"
);
},
{
closed = 1;
nodes = (
"132 545 LINE",
"281 545 LINE SMOOTH",
"350 545 OFFCURVE",
"388 501 OFFCURVE",
"388 432 CURVE SMOOTH",
"388 363 OFFCURVE",
"345 317 OFFCURVE",
"281 317 CURVE SMOOTH",
"132 317 LINE"
);
}
);
width = 484;
}
);
unicode = 0050;
},
{
glyphname = Thorn;
layers = (
{
layerId = "F91748D5-4F43-431E-9F22-86E8B42883B3";
name = Regular;
paths = (
{
closed = 1;
nodes = (
"133 606 LINE",
"65 606 LINE",
"65 0 LINE",
"133 0 LINE",
"133 131 LINE",
"281 131 LINE SMOOTH",
"393 131 OFFCURVE",
"460 202 OFFCURVE",
"460 307 CURVE SMOOTH",
"460 413 OFFCURVE",
"399 482 OFFCURVE",
"281 482 CURVE SMOOTH",
"133 482 LINE"
);
},
{
closed = 1;
nodes = (
"281 420 LINE",
"350 420 OFFCURVE",
"388 378 OFFCURVE",
"388 307 CURVE SMOOTH",
"388 239 OFFCURVE",
"345 193 OFFCURVE",
"281 193 CURVE SMOOTH",
"132 193 LINE",
"132 420 LINE"
);
}
);
width = 484;
}
);
unicode = 00DE;
},
{
glyphname = Q;
layers = (
{
layerId = "F91748D5-4F43-431E-9F22-86E8B42883B3";
name = Regular;
paths = (
{
closed = 1;
nodes = (
"47 94 OFFCURVE",
"135 -11 OFFCURVE",
"282 -11 CURVE SMOOTH",
"293 -11 LINE",
"403 -110 LINE",
"497 -110 LINE",
"370 3 LINE",
"463 39 OFFCURVE",
"517 139 OFFCURVE",
"517 303 CURVE SMOOTH",
"517 513 OFFCURVE",
"429 617 OFFCURVE",
"282 617 CURVE SMOOTH",
"135 617 OFFCURVE",
"47 513 OFFCURVE",
"47 303 CURVE SMOOTH"
);
},
{
closed = 1;
nodes = (
"119 325 LINE",
"119 481 OFFCURVE",
"183 552 OFFCURVE",
"282 552 CURVE SMOOTH",
"382 552 OFFCURVE",
"446 481 OFFCURVE",
"446 325 CURVE SMOOTH",
"446 281 LINE SMOOTH",
"446 125 OFFCURVE",
"382 53 OFFCURVE",
"282 53 CURVE SMOOTH",
"183 53 OFFCURVE",
"119 125 OFFCURVE",
"119 281 CURVE SMOOTH"
);
}
);
width = 564;
}
);
unicode = 0051;
},
{
glyphname = R;
layers = (
{
anchors = (
{
name = bottom;
position = "{262, 0}";
},
{
name = top;
position = "{262, 606}";
}
);
layerId = "F91748D5-4F43-431E-9F22-86E8B42883B3";
name = Regular;
paths = (
{
closed = 1;
nodes = (
"65 606 LINE",
"65 0 LINE",
"133 0 LINE",
"133 272 LINE",
"308 272 LINE",
"424 0 LINE",
"500 0 LINE",
"376 283 LINE",
"446 306 OFFCURVE",
"486 364 OFFCURVE",
"486 439 CURVE SMOOTH",
"486 539 OFFCURVE",
"424 606 OFFCURVE",
"306 606 CURVE SMOOTH"
);
},
{
closed = 1;
nodes = (
"305 545 LINE",
"376 545 OFFCURVE",
"416 505 OFFCURVE",
"416 439 CURVE SMOOTH",
"416 377 OFFCURVE",
"370 335 OFFCURVE",
"306 335 CURVE SMOOTH",
"132 335 LINE",
"132 545 LINE"
);
}
);
width = 523;
}
);
unicode = 0052;
},
{
glyphname = Racute;
layers = (
{
layerId = "F91748D5-4F43-431E-9F22-86E8B42883B3";
name = Regular;
paths = (
{
closed = 1;
nodes = (
"65 606 LINE",
"65 0 LINE",
"133 0 LINE",
"133 272 LINE",
"308 272 LINE",
"424 0 LINE",
"500 0 LINE",
"376 283 LINE",
"446 306 OFFCURVE",
"486 364 OFFCURVE",
"486 439 CURVE SMOOTH",
"486 539 OFFCURVE",
"424 606 OFFCURVE",
"306 606 CURVE SMOOTH"
);
},
{
closed = 1;
nodes = (
"305 545 LINE",
"376 545 OFFCURVE",
"416 505 OFFCURVE",
"416 439 CURVE SMOOTH",
"416 377 OFFCURVE",
"370 335 OFFCURVE",
"306 335 CURVE SMOOTH",
"132 335 LINE",
"132 545 LINE"
);
},
{
closed = 1;
nodes = (
"333 781 LINE",
"261 781 LINE",
"185 664 LINE",
"240 664 LINE",
"334 778 LINE"
);
}
);
width = 523;
}
);
unicode = 0154;
},
{
glyphname = Rcaron;
layers = (
{
layerId = "F91748D5-4F43-431E-9F22-86E8B42883B3";
name = Regular;
paths = (
{
closed = 1;
nodes = (
"65 606 LINE",
"65 0 LINE",
"133 0 LINE",
"133 272 LINE",
"308 272 LINE",
"424 0 LINE",
"500 0 LINE",
"376 283 LINE",
"446 306 OFFCURVE",
"486 364 OFFCURVE",
"486 439 CURVE SMOOTH",
"486 539 OFFCURVE",
"424 606 OFFCURVE",
"306 606 CURVE SMOOTH"
);
},
{
closed = 1;
nodes = (
"305 545 LINE",
"376 545 OFFCURVE",
"416 505 OFFCURVE",
"416 439 CURVE SMOOTH",
"416 377 OFFCURVE",
"370 335 OFFCURVE",
"306 335 CURVE SMOOTH",
"132 335 LINE",
"132 545 LINE"
);
},
{
closed = 1;
nodes = (
"369 781 LINE",
"301 781 LINE",
"262 708 LINE",
"222 781 LINE",
"153 781 LINE",
"228 661 LINE",
"291 661 LINE"
);
}
);
width = 523;
}
);
unicode = 0158;
},
{
glyphname = Rcommaaccent;
layers = (
{
layerId = "F91748D5-4F43-431E-9F22-86E8B42883B3";
name = Regular;
paths = (
{
closed = 1;
nodes = (
"65 606 LINE",
"65 0 LINE",
"133 0 LINE",
"133 272 LINE",
"308 272 LINE",
"424 0 LINE",
"500 0 LINE",
"376 283 LINE",
"446 306 OFFCURVE",
"486 364 OFFCURVE",
"486 439 CURVE SMOOTH",
"486 539 OFFCURVE",
"424 606 OFFCURVE",
"306 606 CURVE SMOOTH"
);
},
{
closed = 1;
nodes = (
"295 -54 LINE",
"229 -54 LINE",
"229 -126 LINE",
"256 -126 LINE",
"238 -185 LINE",
"273 -185 LINE",
"295 -121 LINE"
);
},
{
closed = 1;
nodes = (
"305 545 LINE",
"376 545 OFFCURVE",
"416 505 OFFCURVE",
"416 439 CURVE SMOOTH",
"416 377 OFFCURVE",
"370 335 OFFCURVE",
"306 335 CURVE SMOOTH",
"132 335 LINE",
"132 545 LINE"
);
}
);
width = 523;
}
);
unicode = 0156;
},
{
glyphname = S;
layers = (
{
anchors = (
{
name = bottom;
position = "{242, 0}";
},
{
name = top;
position = "{242, 606}";
}
);
layerId = "F91748D5-4F43-431E-9F22-86E8B42883B3";
name = Regular;
paths = (
{
closed = 1;
nodes = (
"136 617 OFFCURVE",
"52 567 OFFCURVE",
"52 456 CURVE SMOOTH",
"52 240 OFFCURVE",
"373 319 OFFCURVE",
"373 163 CURVE SMOOTH",
"373 88 OFFCURVE",
"321 53 OFFCURVE",
"236 53 CURVE SMOOTH",
"165 53 OFFCURVE",
"109 87 OFFCURVE",
"109 167 CURVE SMOOTH",
"109 173 OFFCURVE",
"110 186 OFFCURVE",
"110 187 CURVE",
"40 187 LINE",
"40 185 OFFCURVE",
"39 176 OFFCURVE",
"39 169 CURVE SMOOTH",
"39 34 OFFCURVE",
"132 -11 OFFCURVE",
"242 -11 CURVE SMOOTH",
"357 -11 OFFCURVE",
"445 38 OFFCURVE",
"445 173 CURVE SMOOTH",
"445 383 OFFCURVE",
"124 311 OFFCURVE",
"124 463 CURVE SMOOTH",
"124 527 OFFCURVE",
"177 552 OFFCURVE",
"244 552 CURVE SMOOTH",
"308 552 OFFCURVE",
"360 518 OFFCURVE",
"360 453 CURVE SMOOTH",
"360 438 LINE",
"429 438 LINE",
"429 448 LINE SMOOTH",
"429 569 OFFCURVE",
"347 617 OFFCURVE",
"241 617 CURVE SMOOTH"
);
}
);
width = 484;
}
);
unicode = 0053;
},
{
glyphname = Sacute;
layers = (
{
layerId = "F91748D5-4F43-431E-9F22-86E8B42883B3";
name = Regular;
paths = (
{
closed = 1;
nodes = (
"136 617 OFFCURVE",
"52 567 OFFCURVE",
"52 456 CURVE SMOOTH",
"52 240 OFFCURVE",
"373 319 OFFCURVE",
"373 163 CURVE SMOOTH",
"373 88 OFFCURVE",
"321 53 OFFCURVE",
"236 53 CURVE SMOOTH",
"165 53 OFFCURVE",
"109 87 OFFCURVE",
"109 167 CURVE SMOOTH",
"109 173 OFFCURVE",
"110 186 OFFCURVE",
"110 187 CURVE",
"40 187 LINE",
"40 185 OFFCURVE",
"39 176 OFFCURVE",
"39 169 CURVE SMOOTH",
"39 34 OFFCURVE",
"132 -11 OFFCURVE",
"242 -11 CURVE SMOOTH",
"357 -11 OFFCURVE",
"445 38 OFFCURVE",
"445 173 CURVE SMOOTH",
"445 383 OFFCURVE",
"124 311 OFFCURVE",
"124 463 CURVE SMOOTH",
"124 527 OFFCURVE",
"177 552 OFFCURVE",
"244 552 CURVE SMOOTH",
"308 552 OFFCURVE",
"360 518 OFFCURVE",
"360 453 CURVE SMOOTH",
"360 438 LINE",
"429 438 LINE",
"429 448 LINE SMOOTH",
"429 569 OFFCURVE",
"347 617 OFFCURVE",
"241 617 CURVE SMOOTH"
);
},
{
closed = 1;
nodes = (
"339 781 LINE",
"267 781 LINE",
"191 664 LINE",
"244 664 LINE",
"340 778 LINE"
);
}
);
width = 484;
}
);
unicode = 015A;
},
{
glyphname = Scaron;
layers = (
{
layerId = "F91748D5-4F43-431E-9F22-86E8B42883B3";
name = Regular;
paths = (
{
closed = 1;
nodes = (
"136 617 OFFCURVE",
"52 567 OFFCURVE",
"52 456 CURVE SMOOTH",
"52 240 OFFCURVE",
"373 319 OFFCURVE",
"373 163 CURVE SMOOTH",
"373 88 OFFCURVE",
"321 53 OFFCURVE",
"236 53 CURVE SMOOTH",
"165 53 OFFCURVE",
"109 87 OFFCURVE",
"109 167 CURVE SMOOTH",
"109 173 OFFCURVE",
"110 186 OFFCURVE",
"110 187 CURVE",
"40 187 LINE",
"40 185 OFFCURVE",
"39 176 OFFCURVE",
"39 169 CURVE SMOOTH",
"39 34 OFFCURVE",
"132 -11 OFFCURVE",
"242 -11 CURVE SMOOTH",
"357 -11 OFFCURVE",
"445 38 OFFCURVE",
"445 173 CURVE SMOOTH",
"445 383 OFFCURVE",
"124 311 OFFCURVE",
"124 463 CURVE SMOOTH",
"124 527 OFFCURVE",
"177 552 OFFCURVE",
"244 552 CURVE SMOOTH",
"308 552 OFFCURVE",
"360 518 OFFCURVE",
"360 453 CURVE SMOOTH",
"360 438 LINE",
"429 438 LINE",
"429 448 LINE SMOOTH",
"429 569 OFFCURVE",
"347 617 OFFCURVE",
"241 617 CURVE SMOOTH"
);
},
{
closed = 1;
nodes = (
"273 661 LINE",
"350 781 LINE",
"281 781 LINE",
"241 708 LINE",
"202 781 LINE",
"135 781 LINE",
"210 661 LINE"
);
}
);
width = 484;
}
);
unicode = 0160;
},
{
glyphname = Scedilla;
layers = (
{
layerId = "F91748D5-4F43-431E-9F22-86E8B42883B3";
name = Regular;
paths = (
{
closed = 1;
nodes = (
"136 617 OFFCURVE",
"52 567 OFFCURVE",
"52 456 CURVE SMOOTH",
"52 240 OFFCURVE",
"373 319 OFFCURVE",
"373 163 CURVE SMOOTH",
"373 88 OFFCURVE",
"321 53 OFFCURVE",
"236 53 CURVE SMOOTH",
"165 53 OFFCURVE",
"109 87 OFFCURVE",
"109 167 CURVE SMOOTH",
"109 173 OFFCURVE",
"110 186 OFFCURVE",
"110 187 CURVE",
"40 187 LINE",
"40 185 OFFCURVE",
"39 176 OFFCURVE",
"39 169 CURVE SMOOTH",
"39 47 OFFCURVE",
"114 -1 OFFCURVE",
"211 -9 CURVE",
"201 -68 LINE",
"230 -68 LINE SMOOTH",
"253 -68 OFFCURVE",
"260 -75 OFFCURVE",
"260 -89 CURVE SMOOTH",
"260 -106 OFFCURVE",
"248 -111 OFFCURVE",
"228 -111 CURVE SMOOTH",
"160 -111 LINE",
"160 -154 LINE",
"181 -158 OFFCURVE",
"209 -161 OFFCURVE",
"234 -161 CURVE SMOOTH",
"269 -161 OFFCURVE",
"325 -149 OFFCURVE",
"325 -89 CURVE SMOOTH",
"325 -49 OFFCURVE",
"291 -35 OFFCURVE",
"253 -33 CURVE",
"255 -10 LINE",
"365 -6 OFFCURVE",
"445 43 OFFCURVE",
"445 173 CURVE SMOOTH",
"445 383 OFFCURVE",
"124 311 OFFCURVE",
"124 463 CURVE SMOOTH",
"124 527 OFFCURVE",
"177 552 OFFCURVE",
"244 552 CURVE SMOOTH",
"308 552 OFFCURVE",
"360 518 OFFCURVE",
"360 453 CURVE SMOOTH",
"360 438 LINE",
"429 438 LINE",
"429 448 LINE SMOOTH",
"429 569 OFFCURVE",
"347 617 OFFCURVE",
"241 617 CURVE SMOOTH"
);
}
);
width = 484;
}
);
unicode = 015E;
},
{
glyphname = Scircumflex;
layers = (
{
layerId = "F91748D5-4F43-431E-9F22-86E8B42883B3";
name = Regular;
paths = (
{
closed = 1;
nodes = (
"136 617 OFFCURVE",
"52 567 OFFCURVE",
"52 456 CURVE SMOOTH",
"52 240 OFFCURVE",
"373 319 OFFCURVE",
"373 163 CURVE SMOOTH",
"373 88 OFFCURVE",
"321 53 OFFCURVE",
"236 53 CURVE SMOOTH",
"165 53 OFFCURVE",
"109 87 OFFCURVE",
"109 167 CURVE SMOOTH",
"109 173 OFFCURVE",
"110 186 OFFCURVE",
"110 187 CURVE",
"40 187 LINE",
"40 185 OFFCURVE",
"39 176 OFFCURVE",
"39 169 CURVE SMOOTH",
"39 34 OFFCURVE",
"132 -11 OFFCURVE",
"242 -11 CURVE SMOOTH",
"357 -11 OFFCURVE",
"445 38 OFFCURVE",
"445 173 CURVE SMOOTH",
"445 383 OFFCURVE",
"124 311 OFFCURVE",
"124 463 CURVE SMOOTH",
"124 527 OFFCURVE",
"177 552 OFFCURVE",
"244 552 CURVE SMOOTH",
"308 552 OFFCURVE",
"360 518 OFFCURVE",
"360 453 CURVE SMOOTH",
"360 438 LINE",
"429 438 LINE",
"429 448 LINE SMOOTH",
"429 569 OFFCURVE",
"347 617 OFFCURVE",
"241 617 CURVE SMOOTH"
);
},
{
closed = 1;
nodes = (
"350 660 LINE",
"275 780 LINE",
"211 780 LINE",
"135 660 LINE",
"202 660 LINE",
"242 732 LINE",
"281 660 LINE"
);
}
);
width = 484;
}
);
unicode = 015C;
},
{
glyphname = T;
layers = (
{
anchors = (
{
name = bottom;
position = "{222, 0}";
},
{
name = center;
position = "{222, 303}";
},
{
name = top;
position = "{222, 606}";
}
);
layerId = "F91748D5-4F43-431E-9F22-86E8B42883B3";
name = Regular;
paths = (
{
closed = 1;
nodes = (
"424 606 LINE",
"18 606 LINE",
"18 545 LINE",
"187 545 LINE",
"187 0 LINE",
"255 0 LINE",
"255 545 LINE",
"424 545 LINE"
);
}
);
width = 443;
}
);
unicode = 0054;
},
{
glyphname = Tbar;
layers = (
{
layerId = "F91748D5-4F43-431E-9F22-86E8B42883B3";
name = Regular;
paths = (
{
closed = 1;
nodes = (
"424 606 LINE",
"18 606 LINE",
"18 545 LINE",
"187 545 LINE",
"187 347 LINE",
"69 347 LINE",
"69 287 LINE",
"187 287 LINE",
"187 0 LINE",
"255 0 LINE",
"255 287 LINE",
"376 287 LINE",
"376 347 LINE",
"255 347 LINE",
"255 545 LINE",
"424 545 LINE"
);
}
);
width = 443;
}
);
unicode = 0166;
},
{
glyphname = Tcaron;
layers = (
{
layerId = "F91748D5-4F43-431E-9F22-86E8B42883B3";
name = Regular;
paths = (
{
closed = 1;
nodes = (
"424 606 LINE",
"18 606 LINE",
"18 545 LINE",
"187 545 LINE",
"187 0 LINE",
"255 0 LINE",
"255 545 LINE",
"424 545 LINE"
);
},
{
closed = 1;
nodes = (
"328 781 LINE",
"261 781 LINE",
"220 708 LINE",
"182 781 LINE",
"113 781 LINE",
"189 661 LINE",
"252 661 LINE"
);
}
);
width = 443;
}
);
unicode = 0164;
},
{
glyphname = Tcommaaccent;
layers = (
{
layerId = "F91748D5-4F43-431E-9F22-86E8B42883B3";
name = Regular;
paths = (
{
closed = 1;
nodes = (
"424 606 LINE",
"18 606 LINE",
"18 545 LINE",
"187 545 LINE",
"187 0 LINE",
"255 0 LINE",
"255 545 LINE",
"424 545 LINE"
);
},
{
closed = 1;
nodes = (
"254 -54 LINE",
"189 -54 LINE",
"189 -126 LINE",
"215 -126 LINE",
"198 -185 LINE",
"232 -185 LINE",
"254 -121 LINE"
);
}
);
width = 443;
}
);
unicode = 021A;
},
{
glyphname = U;
layers = (
{
anchors = (
{
name = ogonek;
position = "{471, 9}";
},
{
name = top;
position = "{262, 606}";
}
);
layerId = "F91748D5-4F43-431E-9F22-86E8B42883B3";
name = Regular;
paths = (
{
closed = 1;
nodes = (
"458 606 LINE",
"392 606 LINE",
"392 193 LINE SMOOTH",
"392 102 OFFCURVE",
"342 53 OFFCURVE",
"262 53 CURVE SMOOTH",
"181 53 OFFCURVE",
"132 102 OFFCURVE",
"132 193 CURVE SMOOTH",
"132 606 LINE",
"64 606 LINE",
"64 199 LINE SMOOTH",
"64 62 OFFCURVE",
"138 -11 OFFCURVE",
"262 -11 CURVE SMOOTH",
"384 -11 OFFCURVE",
"458 62 OFFCURVE",
"458 199 CURVE SMOOTH"
);
}
);
width = 523;
}
);
unicode = 0055;
},
{
glyphname = Uacute;
layers = (
{
layerId = "F91748D5-4F43-431E-9F22-86E8B42883B3";
name = Regular;
paths = (
{
closed = 1;
nodes = (
"458 606 LINE",
"392 606 LINE",
"392 193 LINE SMOOTH",
"392 102 OFFCURVE",
"342 53 OFFCURVE",
"262 53 CURVE SMOOTH",
"181 53 OFFCURVE",
"132 102 OFFCURVE",
"132 193 CURVE SMOOTH",
"132 606 LINE",
"64 606 LINE",
"64 199 LINE SMOOTH",
"64 62 OFFCURVE",
"138 -11 OFFCURVE",
"262 -11 CURVE SMOOTH",
"384 -11 OFFCURVE",
"458 62 OFFCURVE",
"458 199 CURVE SMOOTH"
);
},
{
closed = 1;
nodes = (
"358 781 LINE",
"287 781 LINE",
"211 664 LINE",
"266 664 LINE",
"359 778 LINE"
);
}
);
width = 523;
}
);
unicode = 00DA;
},
{
glyphname = Ubreve;
layers = (
{
layerId = "F91748D5-4F43-431E-9F22-86E8B42883B3";
name = Regular;
paths = (
{
closed = 1;
nodes = (
"458 606 LINE",
"392 606 LINE",
"392 193 LINE SMOOTH",
"392 102 OFFCURVE",
"342 53 OFFCURVE",
"262 53 CURVE SMOOTH",
"181 53 OFFCURVE",
"132 102 OFFCURVE",
"132 193 CURVE SMOOTH",
"132 606 LINE",
"64 606 LINE",
"64 199 LINE SMOOTH",
"64 62 OFFCURVE",
"138 -11 OFFCURVE",
"262 -11 CURVE SMOOTH",
"384 -11 OFFCURVE",
"458 62 OFFCURVE",
"458 199 CURVE SMOOTH"
);
},
{
closed = 1;
nodes = (
"315 781 LINE",
"313 768 OFFCURVE",
"292 751 OFFCURVE",
"262 751 CURVE SMOOTH",
"232 751 OFFCURVE",
"212 768 OFFCURVE",
"210 781 CURVE",
"154 781 LINE",
"154 742 OFFCURVE",
"195 698 OFFCURVE",
"262 698 CURVE SMOOTH",
"328 698 OFFCURVE",
"368 742 OFFCURVE",
"368 781 CURVE"
);
}
);
width = 523;
}
);
unicode = 016C;
},
{
glyphname = Ucircumflex;
layers = (
{
layerId = "F91748D5-4F43-431E-9F22-86E8B42883B3";
name = Regular;
paths = (
{
closed = 1;
nodes = (
"458 606 LINE",
"392 606 LINE",
"392 193 LINE SMOOTH",
"392 102 OFFCURVE",
"342 53 OFFCURVE",
"262 53 CURVE SMOOTH",
"181 53 OFFCURVE",
"132 102 OFFCURVE",
"132 193 CURVE SMOOTH",
"132 606 LINE",
"64 606 LINE",
"64 199 LINE SMOOTH",
"64 62 OFFCURVE",
"138 -11 OFFCURVE",
"262 -11 CURVE SMOOTH",
"384 -11 OFFCURVE",
"458 62 OFFCURVE",
"458 199 CURVE SMOOTH"
);
},
{
closed = 1;
nodes = (
"293 780 LINE",
"229 780 LINE",
"153 660 LINE",
"222 660 LINE",
"263 732 LINE",
"301 660 LINE",
"369 660 LINE"
);
}
);
width = 523;
}
);
unicode = 00DB;
},
{
glyphname = Udieresis;
layers = (
{
layerId = "F91748D5-4F43-431E-9F22-86E8B42883B3";
name = Regular;
paths = (
{
closed = 1;
nodes = (
"458 606 LINE",
"392 606 LINE",
"392 193 LINE SMOOTH",
"392 102 OFFCURVE",
"342 53 OFFCURVE",
"262 53 CURVE SMOOTH",
"181 53 OFFCURVE",
"132 102 OFFCURVE",
"132 193 CURVE SMOOTH",
"132 606 LINE",
"64 606 LINE",
"64 199 LINE SMOOTH",
"64 62 OFFCURVE",
"138 -11 OFFCURVE",
"262 -11 CURVE SMOOTH",
"384 -11 OFFCURVE",
"458 62 OFFCURVE",
"458 199 CURVE SMOOTH"
);
},
{
closed = 1;
nodes = (
"234 781 LINE",
"160 781 LINE",
"160 701 LINE",
"234 701 LINE"
);
},
{
closed = 1;
nodes = (
"362 781 LINE",
"288 781 LINE",
"288 701 LINE",
"362 701 LINE"
);
}
);
width = 523;
}
);
unicode = 00DC;
},
{
glyphname = Ugrave;
layers = (
{
layerId = "F91748D5-4F43-431E-9F22-86E8B42883B3";
name = Regular;
paths = (
{
closed = 1;
nodes = (
"458 606 LINE",
"392 606 LINE",
"392 193 LINE SMOOTH",
"392 102 OFFCURVE",
"342 53 OFFCURVE",
"262 53 CURVE SMOOTH",
"181 53 OFFCURVE",
"132 102 OFFCURVE",
"132 193 CURVE SMOOTH",
"132 606 LINE",
"64 606 LINE",
"64 199 LINE SMOOTH",
"64 62 OFFCURVE",
"138 -11 OFFCURVE",
"262 -11 CURVE SMOOTH",
"384 -11 OFFCURVE",
"458 62 OFFCURVE",
"458 199 CURVE SMOOTH"
);
},
{
closed = 1;
nodes = (
"237 781 LINE",
"163 781 LINE",
"162 778 LINE",
"260 664 LINE",
"311 664 LINE"
);
}
);
width = 523;
}
);
unicode = 00D9;
},
{
glyphname = Uhungarumlaut;
layers = (
{
layerId = "F91748D5-4F43-431E-9F22-86E8B42883B3";
name = Regular;
paths = (
{
closed = 1;
nodes = (
"458 606 LINE",
"392 606 LINE",
"392 193 LINE SMOOTH",
"392 102 OFFCURVE",
"342 53 OFFCURVE",
"262 53 CURVE SMOOTH",
"181 53 OFFCURVE",
"132 102 OFFCURVE",
"132 193 CURVE SMOOTH",
"132 606 LINE",
"64 606 LINE",
"64 199 LINE SMOOTH",
"64 62 OFFCURVE",
"138 -11 OFFCURVE",
"262 -11 CURVE SMOOTH",
"384 -11 OFFCURVE",
"458 62 OFFCURVE",
"458 199 CURVE SMOOTH"
);
},
{
closed = 1;
nodes = (
"312 781 LINE",
"236 781 LINE",
"181 664 LINE",
"239 664 LINE",
"313 778 LINE"
);
},
{
closed = 1;
nodes = (
"425 781 LINE",
"349 781 LINE",
"295 664 LINE",
"352 664 LINE",
"426 778 LINE"
);
}
);
width = 523;
}
);
unicode = 0170;
},
{
glyphname = Umacron;
layers = (
{
layerId = "F91748D5-4F43-431E-9F22-86E8B42883B3";
name = Regular;
paths = (
{
closed = 1;
nodes = (
"458 606 LINE",
"392 606 LINE",
"392 193 LINE SMOOTH",
"392 102 OFFCURVE",
"342 53 OFFCURVE",
"262 53 CURVE SMOOTH",
"181 53 OFFCURVE",
"132 102 OFFCURVE",
"132 193 CURVE SMOOTH",
"132 606 LINE",
"64 606 LINE",
"64 199 LINE SMOOTH",
"64 62 OFFCURVE",
"138 -11 OFFCURVE",
"262 -11 CURVE SMOOTH",
"384 -11 OFFCURVE",
"458 62 OFFCURVE",
"458 199 CURVE SMOOTH"
);
},
{
closed = 1;
nodes = (
"372 731 LINE",
"152 731 LINE",
"152 671 LINE",
"372 671 LINE"
);
}
);
width = 523;
}
);
unicode = 016A;
},
{
glyphname = Uogonek;
layers = (
{
layerId = "F91748D5-4F43-431E-9F22-86E8B42883B3";
name = Regular;
paths = (
{
closed = 1;
nodes = (
"458 606 LINE",
"392 606 LINE",
"392 191 LINE SMOOTH",
"392 101 OFFCURVE",
"342 53 OFFCURVE",
"262 53 CURVE SMOOTH",
"181 53 OFFCURVE",
"132 101 OFFCURVE",
"132 191 CURVE SMOOTH",
"132 606 LINE",
"64 606 LINE",
"64 197 LINE SMOOTH",
"64 61 OFFCURVE",
"138 -11 OFFCURVE",
"262 -11 CURVE SMOOTH",
"276 -11 OFFCURVE",
"284 -10 OFFCURVE",
"292 -7 CURVE",
"296 4 LINE",
"276 -18 OFFCURVE",
"261 -43 OFFCURVE",
"261 -80 CURVE SMOOTH",
"261 -141 OFFCURVE",
"306 -160 OFFCURVE",
"343 -160 CURVE SMOOTH",
"361 -160 OFFCURVE",
"379 -155 OFFCURVE",
"396 -148 CURVE",
"396 -103 LINE",
"367 -103 LINE SMOOTH",
"336 -103 OFFCURVE",
"325 -80 OFFCURVE",
"325 -54 CURVE SMOOTH",
"325 -30 OFFCURVE",
"338 -8 OFFCURVE",
"349 4 CURVE",
"418 33 OFFCURVE",
"458 97 OFFCURVE",
"458 197 CURVE SMOOTH"
);
}
);
width = 523;
}
);
unicode = 0172;
},
{
glyphname = Uring;
layers = (
{
layerId = "F91748D5-4F43-431E-9F22-86E8B42883B3";
name = Regular;
paths = (
{
closed = 1;
nodes = (
"458 606 LINE",
"392 606 LINE",
"392 193 LINE SMOOTH",
"392 102 OFFCURVE",
"342 53 OFFCURVE",
"262 53 CURVE SMOOTH",
"181 53 OFFCURVE",
"132 102 OFFCURVE",
"132 193 CURVE SMOOTH",
"132 606 LINE",
"64 606 LINE",
"64 199 LINE SMOOTH",
"64 62 OFFCURVE",
"138 -11 OFFCURVE",
"262 -11 CURVE SMOOTH",
"384 -11 OFFCURVE",
"458 62 OFFCURVE",
"458 199 CURVE SMOOTH"
);
},
{
closed = 1;
nodes = (
"215 810 OFFCURVE",
"177 772 OFFCURVE",
"177 725 CURVE SMOOTH",
"177 677 OFFCURVE",
"216 640 OFFCURVE",
"262 640 CURVE SMOOTH",
"309 640 OFFCURVE",
"347 678 OFFCURVE",
"347 725 CURVE SMOOTH",
"347 771 OFFCURVE",
"309 810 OFFCURVE",
"262 810 CURVE SMOOTH"
);
},
{
closed = 1;
nodes = (
"287 771 OFFCURVE",
"309 750 OFFCURVE",
"309 725 CURVE SMOOTH",
"309 699 OFFCURVE",
"287 678 OFFCURVE",
"262 678 CURVE SMOOTH",
"237 678 OFFCURVE",
"216 699 OFFCURVE",
"216 725 CURVE SMOOTH",
"216 750 OFFCURVE",
"237 771 OFFCURVE",
"262 771 CURVE SMOOTH"
);
}
);
width = 523;
}
);
unicode = 016E;
},
{
glyphname = Utilde;
layers = (
{
layerId = "F91748D5-4F43-431E-9F22-86E8B42883B3";
name = Regular;
paths = (
{
closed = 1;
nodes = (
"458 606 LINE",
"392 606 LINE",
"392 193 LINE SMOOTH",
"392 102 OFFCURVE",
"342 53 OFFCURVE",
"262 53 CURVE SMOOTH",
"181 53 OFFCURVE",
"132 102 OFFCURVE",
"132 193 CURVE SMOOTH",
"132 606 LINE",
"64 606 LINE",
"64 199 LINE SMOOTH",
"64 62 OFFCURVE",
"138 -11 OFFCURVE",
"262 -11 CURVE SMOOTH",
"384 -11 OFFCURVE",
"458 62 OFFCURVE",
"458 199 CURVE SMOOTH"
);
},
{
closed = 1;
nodes = (
"335 781 LINE",
"334 761 OFFCURVE",
"322 756 OFFCURVE",
"307 756 CURVE SMOOTH",
"274 756 OFFCURVE",
"247 781 OFFCURVE",
"210 781 CURVE SMOOTH",
"160 781 OFFCURVE",
"139 731 OFFCURVE",
"139 694 CURVE",
"188 694 LINE",
"191 713 OFFCURVE",
"201 719 OFFCURVE",
"216 719 CURVE SMOOTH",
"249 719 OFFCURVE",
"276 694 OFFCURVE",
"314 694 CURVE SMOOTH",
"364 694 OFFCURVE",
"386 742 OFFCURVE",
"386 781 CURVE"
);
}
);
width = 523;
}
);
unicode = 0168;
},
{
glyphname = V;
layers = (
{
layerId = "F91748D5-4F43-431E-9F22-86E8B42883B3";
name = Regular;
paths = (
{
closed = 1;
nodes = (
"290 0 LINE",
"474 606 LINE",
"409 606 LINE",
"247 61 LINE",
"243 61 LINE",
"86 606 LINE",
"9 606 LINE",
"194 0 LINE"
);
}
);
width = 484;
}
);
unicode = 0056;
},
{
glyphname = W;
layers = (
{
anchors = (
{
name = top;
position = "{342, 606}";
}
);
layerId = "F91748D5-4F43-431E-9F22-86E8B42883B3";
name = Regular;
paths = (
{
closed = 1;
nodes = (
"530 0 LINE",
"673 606 LINE",
"611 606 LINE",
"512 173 LINE SMOOTH",
"502 132 OFFCURVE",
"491 60 OFFCURVE",
"491 60 CURVE SMOOTH",
"488 60 LINE SMOOTH",
"488 60 OFFCURVE",
"480 123 OFFCURVE",
"471 173 CURVE SMOOTH",
"395 606 LINE",
"293 606 LINE",
"224 173 LINE SMOOTH",
"214 112 OFFCURVE",
"208 60 OFFCURVE",
"208 60 CURVE SMOOTH",
"204 60 LINE SMOOTH",
"204 60 OFFCURVE",
"193 136 OFFCURVE",
"184 173 CURVE SMOOTH",
"85 606 LINE",
"12 606 LINE",
"154 0 LINE",
"252 0 LINE",
"322 418 LINE SMOOTH",
"330 464 OFFCURVE",
"339 551 OFFCURVE",
"339 551 CURVE",
"343 551 LINE",
"343 551 OFFCURVE",
"355 462 OFFCURVE",
"362 418 CURVE SMOOTH",
"433 0 LINE"
);
}
);
width = 684;
}
);
unicode = 0057;
},
{
glyphname = Wacute;
layers = (
{
layerId = "F91748D5-4F43-431E-9F22-86E8B42883B3";
name = Regular;
paths = (
{
closed = 1;
nodes = (
"673 606 LINE",
"611 606 LINE",
"512 173 LINE SMOOTH",
"502 132 OFFCURVE",
"491 60 OFFCURVE",
"491 60 CURVE SMOOTH",
"488 60 LINE SMOOTH",
"488 60 OFFCURVE",
"480 123 OFFCURVE",
"471 173 CURVE SMOOTH",
"395 606 LINE",
"293 606 LINE",
"224 173 LINE SMOOTH",
"214 112 OFFCURVE",
"208 60 OFFCURVE",
"208 60 CURVE SMOOTH",
"204 60 LINE SMOOTH",
"204 60 OFFCURVE",
"193 136 OFFCURVE",
"184 173 CURVE SMOOTH",
"85 606 LINE",
"12 606 LINE",
"154 0 LINE",
"252 0 LINE",
"322 418 LINE SMOOTH",
"330 464 OFFCURVE",
"339 551 OFFCURVE",
"339 551 CURVE",
"343 551 LINE",
"343 551 OFFCURVE",
"355 462 OFFCURVE",
"362 418 CURVE SMOOTH",
"433 0 LINE",
"530 0 LINE"
);
},
{
closed = 1;
nodes = (
"440 781 LINE",
"369 781 LINE",
"293 664 LINE",
"346 664 LINE",
"441 778 LINE"
);
}
);
width = 684;
}
);
unicode = 1E82;
},
{
glyphname = Wcircumflex;
layers = (
{
layerId = "F91748D5-4F43-431E-9F22-86E8B42883B3";
name = Regular;
paths = (
{
closed = 1;
nodes = (
"530 0 LINE",
"673 606 LINE",
"611 606 LINE",
"512 173 LINE SMOOTH",
"502 132 OFFCURVE",
"491 60 OFFCURVE",
"491 60 CURVE SMOOTH",
"488 60 LINE SMOOTH",
"488 60 OFFCURVE",
"480 123 OFFCURVE",
"471 173 CURVE SMOOTH",
"395 606 LINE",
"293 606 LINE",
"224 173 LINE SMOOTH",
"214 112 OFFCURVE",
"208 60 OFFCURVE",
"208 60 CURVE SMOOTH",
"204 60 LINE SMOOTH",
"204 60 OFFCURVE",
"193 136 OFFCURVE",
"184 173 CURVE SMOOTH",
"85 606 LINE",
"12 606 LINE",
"154 0 LINE",
"252 0 LINE",
"322 418 LINE SMOOTH",
"330 464 OFFCURVE",
"339 551 OFFCURVE",
"339 551 CURVE",
"343 551 LINE",
"343 551 OFFCURVE",
"355 462 OFFCURVE",
"362 418 CURVE SMOOTH",
"433 0 LINE"
);
},
{
closed = 1;
nodes = (
"450 660 LINE",
"374 780 LINE",
"311 780 LINE",
"234 660 LINE",
"303 660 LINE",
"343 732 LINE",
"382 660 LINE"
);
}
);
width = 684;
}
);
unicode = 0174;
},
{
glyphname = Wdieresis;
layers = (
{
layerId = "F91748D5-4F43-431E-9F22-86E8B42883B3";
name = Regular;
paths = (
{
closed = 1;
nodes = (
"673 606 LINE",
"611 606 LINE",
"512 173 LINE SMOOTH",
"502 132 OFFCURVE",
"491 60 OFFCURVE",
"491 60 CURVE SMOOTH",
"488 60 LINE SMOOTH",
"488 60 OFFCURVE",
"480 123 OFFCURVE",
"471 173 CURVE SMOOTH",
"395 606 LINE",
"293 606 LINE",
"224 173 LINE SMOOTH",
"214 112 OFFCURVE",
"208 60 OFFCURVE",
"208 60 CURVE SMOOTH",
"204 60 LINE SMOOTH",
"204 60 OFFCURVE",
"193 136 OFFCURVE",
"184 173 CURVE SMOOTH",
"85 606 LINE",
"12 606 LINE",
"154 0 LINE",
"252 0 LINE",
"322 418 LINE SMOOTH",
"330 464 OFFCURVE",
"339 551 OFFCURVE",
"339 551 CURVE",
"343 551 LINE",
"343 551 OFFCURVE",
"355 462 OFFCURVE",
"362 418 CURVE SMOOTH",
"433 0 LINE",
"530 0 LINE"
);
},
{
closed = 1;
nodes = (
"315 781 LINE",
"243 781 LINE",
"243 701 LINE",
"315 701 LINE"
);
},
{
closed = 1;
nodes = (
"442 781 LINE",
"368 781 LINE",
"368 701 LINE",
"442 701 LINE"
);
}
);
width = 684;
}
);
unicode = 1E84;
},
{
glyphname = Wgrave;
layers = (
{
layerId = "F91748D5-4F43-431E-9F22-86E8B42883B3";
name = Regular;
paths = (
{
closed = 1;
nodes = (
"673 606 LINE",
"611 606 LINE",
"512 173 LINE SMOOTH",
"502 132 OFFCURVE",
"491 60 OFFCURVE",
"491 60 CURVE SMOOTH",
"488 60 LINE SMOOTH",
"488 60 OFFCURVE",
"480 123 OFFCURVE",
"471 173 CURVE SMOOTH",
"395 606 LINE",
"293 606 LINE",
"224 173 LINE SMOOTH",
"214 112 OFFCURVE",
"208 60 OFFCURVE",
"208 60 CURVE SMOOTH",
"204 60 LINE SMOOTH",
"204 60 OFFCURVE",
"193 136 OFFCURVE",
"184 173 CURVE SMOOTH",
"85 606 LINE",
"12 606 LINE",
"154 0 LINE",
"252 0 LINE",
"322 418 LINE SMOOTH",
"330 464 OFFCURVE",
"339 551 OFFCURVE",
"339 551 CURVE",
"343 551 LINE",
"343 551 OFFCURVE",
"355 462 OFFCURVE",
"362 418 CURVE SMOOTH",
"433 0 LINE",
"530 0 LINE"
);
},
{
closed = 1;
nodes = (
"317 781 LINE",
"246 781 LINE",
"245 778 LINE",
"340 664 LINE",
"393 664 LINE"
);
}
);
width = 684;
}
);
unicode = 1E80;
},
{
glyphname = X;
layers = (
{
layerId = "F91748D5-4F43-431E-9F22-86E8B42883B3";
name = Regular;
paths = (
{
closed = 1;
nodes = (
"459 606 LINE",
"385 606 LINE",
"239 378 LINE",
"248 378 LINE",
"104 606 LINE",
"22 606 LINE",
"204 314 LINE",
"5 0 LINE",
"78 0 LINE",
"243 257 LINE",
"236 257 LINE",
"397 0 LINE",
"479 0 LINE",
"277 323 LINE"
);
}
);
width = 484;
}
);
unicode = 0058;
},
{
glyphname = Y;
layers = (
{
anchors = (
{
name = top;
position = "{242, 606}";
}
);
layerId = "F91748D5-4F43-431E-9F22-86E8B42883B3";
name = Regular;
paths = (
{
closed = 1;
nodes = (
"276 257 LINE",
"474 606 LINE",
"410 606 LINE",
"251 321 LINE",
"248 321 LINE",
"85 606 LINE",
"9 606 LINE",
"208 257 LINE",
"208 0 LINE",
"276 0 LINE"
);
}
);
width = 484;
}
);
unicode = 0059;
},
{
glyphname = Yacute;
layers = (
{
layerId = "F91748D5-4F43-431E-9F22-86E8B42883B3";
name = Regular;
paths = (
{
closed = 1;
nodes = (
"474 606 LINE",
"410 606 LINE",
"251 321 LINE",
"248 321 LINE",
"85 606 LINE",
"9 606 LINE",
"208 257 LINE",
"208 0 LINE",
"276 0 LINE",
"276 257 LINE"
);
},
{
closed = 1;
nodes = (
"339 781 LINE",
"267 781 LINE",
"191 664 LINE",
"244 664 LINE",
"340 778 LINE"
);
}
);
width = 484;
}
);
unicode = 00DD;
},
{
glyphname = Ycircumflex;
layers = (
{
layerId = "F91748D5-4F43-431E-9F22-86E8B42883B3";
name = Regular;
paths = (
{
closed = 1;
nodes = (
"276 257 LINE",
"474 606 LINE",
"410 606 LINE",
"251 321 LINE",
"248 321 LINE",
"85 606 LINE",
"9 606 LINE",
"208 257 LINE",
"208 0 LINE",
"276 0 LINE"
);
},
{
closed = 1;
nodes = (
"350 660 LINE",
"275 780 LINE",
"211 780 LINE",
"135 660 LINE",
"202 660 LINE",
"242 732 LINE",
"281 660 LINE"
);
}
);
width = 484;
}
);
unicode = 0176;
},
{
glyphname = Ydieresis;
layers = (
{
layerId = "F91748D5-4F43-431E-9F22-86E8B42883B3";
name = Regular;
paths = (
{
closed = 1;
nodes = (
"474 606 LINE",
"410 606 LINE",
"251 321 LINE",
"248 321 LINE",
"85 606 LINE",
"9 606 LINE",
"208 257 LINE",
"208 0 LINE",
"276 0 LINE",
"276 257 LINE"
);
},
{
closed = 1;
nodes = (
"215 781 LINE",
"142 781 LINE",
"142 701 LINE",
"215 701 LINE"
);
},
{
closed = 1;
nodes = (
"343 781 LINE",
"269 781 LINE",
"269 701 LINE",
"343 701 LINE"
);
}
);
width = 484;
}
);
unicode = 0178;
},
{
glyphname = Ygrave;
layers = (
{
layerId = "F91748D5-4F43-431E-9F22-86E8B42883B3";
name = Regular;
paths = (
{
closed = 1;
nodes = (
"474 606 LINE",
"410 606 LINE",
"251 321 LINE",
"248 321 LINE",
"85 606 LINE",
"9 606 LINE",
"208 257 LINE",
"208 0 LINE",
"276 0 LINE",
"276 257 LINE"
);
},
{
closed = 1;
nodes = (
"216 781 LINE",
"145 781 LINE",
"144 778 LINE",
"239 664 LINE",
"292 664 LINE"
);
}
);
width = 484;
}
);
unicode = 1EF2;
},
{
glyphname = Z;
layers = (
{
anchors = (
{
name = top;
position = "{222, 606}";
}
);
layerId = "F91748D5-4F43-431E-9F22-86E8B42883B3";
name = Regular;
paths = (
{
closed = 1;
nodes = (
"417 606 LINE",
"37 606 LINE",
"37 545 LINE",
"318 545 LINE",
"19 31 LINE",
"19 0 LINE",
"423 0 LINE",
"423 62 LINE",
"116 62 LINE",
"417 576 LINE"
);
}
);
width = 443;
}
);
unicode = 005A;
},
{
glyphname = Zacute;
layers = (
{
layerId = "F91748D5-4F43-431E-9F22-86E8B42883B3";
name = Regular;
paths = (
{
closed = 1;
nodes = (
"417 606 LINE",
"37 606 LINE",
"37 545 LINE",
"318 545 LINE",
"19 31 LINE",
"19 0 LINE",
"423 0 LINE",
"423 62 LINE",
"116 62 LINE",
"417 576 LINE"
);
},
{
closed = 1;
nodes = (
"318 781 LINE",
"247 781 LINE",
"171 664 LINE",
"224 664 LINE",
"319 778 LINE"
);
}
);
width = 443;
}
);
unicode = 0179;
},
{
glyphname = Zcaron;
layers = (
{
layerId = "F91748D5-4F43-431E-9F22-86E8B42883B3";
name = Regular;
paths = (
{
closed = 1;
nodes = (
"417 606 LINE",
"37 606 LINE",
"37 545 LINE",
"318 545 LINE",
"19 31 LINE",
"19 0 LINE",
"423 0 LINE",
"423 62 LINE",
"116 62 LINE",
"417 576 LINE"
);
},
{
closed = 1;
nodes = (
"328 781 LINE",
"261 781 LINE",
"220 708 LINE",
"182 781 LINE",
"113 781 LINE",
"189 661 LINE",
"252 661 LINE"
);
}
);
width = 443;
}
);
unicode = 017D;
},
{
glyphname = Zdotaccent;
layers = (
{
layerId = "F91748D5-4F43-431E-9F22-86E8B42883B3";
name = Regular;
paths = (
{
closed = 1;
nodes = (
"417 606 LINE",
"37 606 LINE",
"37 545 LINE",
"318 545 LINE",
"19 31 LINE",
"19 0 LINE",
"423 0 LINE",
"423 62 LINE",
"116 62 LINE",
"417 576 LINE"
);
},
{
closed = 1;
nodes = (
"258 781 LINE",
"186 781 LINE",
"186 702 LINE",
"258 702 LINE"
);
}
);
width = 443;
}
);
unicode = 017B;
},
{
glyphname = a;
layers = (
{
anchors = (
{
name = ogonek;
position = "{362, 9}";
},
{
name = top;
position = "{202, 465}";
}
);
layerId = "F91748D5-4F43-431E-9F22-86E8B42883B3";
name = Regular;
paths = (
{
closed = 1;
nodes = (
"114 476 OFFCURVE",
"52 433 OFFCURVE",
"52 347 CURVE SMOOTH",
"52 339 OFFCURVE",
"52 332 OFFCURVE",
"53 327 CURVE",
"114 327 LINE",
"114 337 LINE SMOOTH",
"114 376 OFFCURVE",
"133 417 OFFCURVE",
"191 417 CURVE SMOOTH",
"255 417 OFFCURVE",
"271 385 OFFCURVE",
"271 337 CURVE SMOOTH",
"271 274 LINE",
"136 274 OFFCURVE",
"35 249 OFFCURVE",
"35 120 CURVE SMOOTH",
"35 7 OFFCURVE",
"112 -11 OFFCURVE",
"158 -11 CURVE SMOOTH",
"204 -11 OFFCURVE",
"247 12 OFFCURVE",
"270 50 CURVE",
"275 50 LINE",
"282 17 OFFCURVE",
"309 -6 OFFCURVE",
"346 -6 CURVE SMOOTH",
"366 -6 OFFCURVE",
"382 0 OFFCURVE",
"389 4 CURVE",
"389 47 LINE",
"358 47 LINE SMOOTH",
"346 47 OFFCURVE",
"334 56 OFFCURVE",
"334 78 CURVE SMOOTH",
"334 348 LINE SMOOTH",
"334 429 OFFCURVE",
"288 476 OFFCURVE",
"198 476 CURVE SMOOTH"
);
},
{
closed = 1;
nodes = (
"272 166 LINE",
"272 82 OFFCURVE",
"213 47 OFFCURVE",
"168 47 CURVE SMOOTH",
"126 47 OFFCURVE",
"102 64 OFFCURVE",
"102 124 CURVE SMOOTH",
"102 199 OFFCURVE",
"168 212 OFFCURVE",
"272 212 CURVE"
);
}
);
width = 403;
}
);
unicode = 0061;
},
{
glyphname = aacute;
layers = (
{
layerId = "F91748D5-4F43-431E-9F22-86E8B42883B3";
name = Regular;
paths = (
{
closed = 1;
nodes = (
"114 476 OFFCURVE",
"52 433 OFFCURVE",
"52 347 CURVE SMOOTH",
"52 339 OFFCURVE",
"52 332 OFFCURVE",
"53 327 CURVE",
"114 327 LINE",
"114 337 LINE SMOOTH",
"114 376 OFFCURVE",
"133 417 OFFCURVE",
"191 417 CURVE SMOOTH",
"255 417 OFFCURVE",
"271 385 OFFCURVE",
"271 337 CURVE SMOOTH",
"271 274 LINE",
"136 274 OFFCURVE",
"35 249 OFFCURVE",
"35 120 CURVE SMOOTH",
"35 7 OFFCURVE",
"112 -11 OFFCURVE",
"158 -11 CURVE SMOOTH",
"204 -11 OFFCURVE",
"247 12 OFFCURVE",
"270 50 CURVE",
"275 50 LINE",
"282 17 OFFCURVE",
"309 -6 OFFCURVE",
"346 -6 CURVE SMOOTH",
"366 -6 OFFCURVE",
"382 0 OFFCURVE",
"389 4 CURVE",
"389 47 LINE",
"358 47 LINE SMOOTH",
"346 47 OFFCURVE",
"334 56 OFFCURVE",
"334 78 CURVE SMOOTH",
"334 348 LINE SMOOTH",
"334 429 OFFCURVE",
"288 476 OFFCURVE",
"198 476 CURVE SMOOTH"
);
},
{
closed = 1;
nodes = (
"272 166 LINE",
"272 82 OFFCURVE",
"213 47 OFFCURVE",
"168 47 CURVE SMOOTH",
"126 47 OFFCURVE",
"102 64 OFFCURVE",
"102 124 CURVE SMOOTH",
"102 199 OFFCURVE",
"168 212 OFFCURVE",
"272 212 CURVE"
);
},
{
closed = 1;
nodes = (
"297 639 LINE",
"225 639 LINE",
"149 522 LINE",
"202 522 LINE",
"297 636 LINE"
);
}
);
width = 403;
}
);
unicode = 00E1;
},
{
glyphname = abreve;
layers = (
{
layerId = "F91748D5-4F43-431E-9F22-86E8B42883B3";
name = Regular;
paths = (
{
closed = 1;
nodes = (
"114 476 OFFCURVE",
"52 433 OFFCURVE",
"52 347 CURVE SMOOTH",
"52 339 OFFCURVE",
"52 332 OFFCURVE",
"53 327 CURVE",
"114 327 LINE",
"114 337 LINE SMOOTH",
"114 376 OFFCURVE",
"133 417 OFFCURVE",
"191 417 CURVE SMOOTH",
"255 417 OFFCURVE",
"271 385 OFFCURVE",
"271 337 CURVE SMOOTH",
"271 274 LINE",
"136 274 OFFCURVE",
"35 249 OFFCURVE",
"35 120 CURVE SMOOTH",
"35 7 OFFCURVE",
"112 -11 OFFCURVE",
"158 -11 CURVE SMOOTH",
"204 -11 OFFCURVE",
"247 12 OFFCURVE",
"270 50 CURVE",
"275 50 LINE",
"282 17 OFFCURVE",
"309 -6 OFFCURVE",
"346 -6 CURVE SMOOTH",
"366 -6 OFFCURVE",
"382 0 OFFCURVE",
"389 4 CURVE",
"389 47 LINE",
"358 47 LINE SMOOTH",
"346 47 OFFCURVE",
"334 56 OFFCURVE",
"334 78 CURVE SMOOTH",
"334 348 LINE SMOOTH",
"334 429 OFFCURVE",
"288 476 OFFCURVE",
"198 476 CURVE SMOOTH"
);
},
{
closed = 1;
nodes = (
"272 166 LINE",
"272 82 OFFCURVE",
"213 47 OFFCURVE",
"168 47 CURVE SMOOTH",
"126 47 OFFCURVE",
"102 64 OFFCURVE",
"102 124 CURVE SMOOTH",
"102 199 OFFCURVE",
"168 212 OFFCURVE",
"272 212 CURVE"
);
},
{
closed = 1;
nodes = (
"259 639 LINE",
"257 627 OFFCURVE",
"236 610 OFFCURVE",
"206 610 CURVE SMOOTH",
"174 610 OFFCURVE",
"155 627 OFFCURVE",
"152 639 CURVE",
"98 639 LINE",
"98 600 OFFCURVE",
"139 555 OFFCURVE",
"206 555 CURVE SMOOTH",
"272 555 OFFCURVE",
"312 600 OFFCURVE",
"312 639 CURVE"
);
}
);
width = 403;
}
);
unicode = 0103;
},
{
glyphname = acircumflex;
layers = (
{
layerId = "F91748D5-4F43-431E-9F22-86E8B42883B3";
name = Regular;
paths = (
{
closed = 1;
nodes = (
"114 476 OFFCURVE",
"52 433 OFFCURVE",
"52 347 CURVE SMOOTH",
"52 339 OFFCURVE",
"52 332 OFFCURVE",
"53 327 CURVE",
"114 327 LINE",
"114 337 LINE SMOOTH",
"114 376 OFFCURVE",
"133 417 OFFCURVE",
"191 417 CURVE SMOOTH",
"255 417 OFFCURVE",
"271 385 OFFCURVE",
"271 337 CURVE SMOOTH",
"271 274 LINE",
"136 274 OFFCURVE",
"35 249 OFFCURVE",
"35 120 CURVE SMOOTH",
"35 7 OFFCURVE",
"112 -11 OFFCURVE",
"158 -11 CURVE SMOOTH",
"204 -11 OFFCURVE",
"247 12 OFFCURVE",
"270 50 CURVE",
"275 50 LINE",
"282 17 OFFCURVE",
"309 -6 OFFCURVE",
"346 -6 CURVE SMOOTH",
"366 -6 OFFCURVE",
"382 0 OFFCURVE",
"389 4 CURVE",
"389 47 LINE",
"358 47 LINE SMOOTH",
"346 47 OFFCURVE",
"334 56 OFFCURVE",
"334 78 CURVE SMOOTH",
"334 348 LINE SMOOTH",
"334 429 OFFCURVE",
"288 476 OFFCURVE",
"198 476 CURVE SMOOTH"
);
},
{
closed = 1;
nodes = (
"272 166 LINE",
"272 82 OFFCURVE",
"213 47 OFFCURVE",
"168 47 CURVE SMOOTH",
"126 47 OFFCURVE",
"102 64 OFFCURVE",
"102 124 CURVE SMOOTH",
"102 199 OFFCURVE",
"168 212 OFFCURVE",
"272 212 CURVE"
);
},
{
closed = 1;
nodes = (
"313 519 LINE",
"238 638 LINE",
"173 638 LINE",
"98 519 LINE",
"167 519 LINE",
"205 591 LINE",
"244 519 LINE"
);
}
);
width = 403;
}
);
unicode = 00E2;
},
{
glyphname = adieresis;
layers = (
{
layerId = "F91748D5-4F43-431E-9F22-86E8B42883B3";
name = Regular;
paths = (
{
closed = 1;
nodes = (
"114 476 OFFCURVE",
"52 433 OFFCURVE",
"52 347 CURVE SMOOTH",
"52 339 OFFCURVE",
"52 332 OFFCURVE",
"53 327 CURVE",
"114 327 LINE",
"114 337 LINE SMOOTH",
"114 376 OFFCURVE",
"133 417 OFFCURVE",
"191 417 CURVE SMOOTH",
"255 417 OFFCURVE",
"271 385 OFFCURVE",
"271 337 CURVE SMOOTH",
"271 274 LINE",
"136 274 OFFCURVE",
"35 249 OFFCURVE",
"35 120 CURVE SMOOTH",
"35 7 OFFCURVE",
"112 -11 OFFCURVE",
"158 -11 CURVE SMOOTH",
"204 -11 OFFCURVE",
"247 12 OFFCURVE",
"270 50 CURVE",
"275 50 LINE",
"282 17 OFFCURVE",
"309 -6 OFFCURVE",
"346 -6 CURVE SMOOTH",
"366 -6 OFFCURVE",
"382 0 OFFCURVE",
"389 4 CURVE",
"389 47 LINE",
"358 47 LINE SMOOTH",
"346 47 OFFCURVE",
"334 56 OFFCURVE",
"334 78 CURVE SMOOTH",
"334 348 LINE SMOOTH",
"334 429 OFFCURVE",
"288 476 OFFCURVE",
"198 476 CURVE SMOOTH"
);
},
{
closed = 1;
nodes = (
"272 166 LINE",
"272 82 OFFCURVE",
"213 47 OFFCURVE",
"168 47 CURVE SMOOTH",
"126 47 OFFCURVE",
"102 64 OFFCURVE",
"102 124 CURVE SMOOTH",
"102 199 OFFCURVE",
"168 212 OFFCURVE",
"272 212 CURVE"
);
},
{
closed = 1;
nodes = (
"177 639 LINE",
"103 639 LINE",
"103 559 LINE",
"177 559 LINE"
);
},
{
closed = 1;
nodes = (
"305 639 LINE",
"230 639 LINE",
"230 559 LINE",
"305 559 LINE"
);
}
);
width = 403;
}
);
unicode = 00E4;
},
{
glyphname = agrave;
layers = (
{
layerId = "F91748D5-4F43-431E-9F22-86E8B42883B3";
name = Regular;
paths = (
{
closed = 1;
nodes = (
"114 476 OFFCURVE",
"52 433 OFFCURVE",
"52 347 CURVE SMOOTH",
"52 339 OFFCURVE",
"52 332 OFFCURVE",
"53 327 CURVE",
"114 327 LINE",
"114 337 LINE SMOOTH",
"114 376 OFFCURVE",
"133 417 OFFCURVE",
"191 417 CURVE SMOOTH",
"255 417 OFFCURVE",
"271 385 OFFCURVE",
"271 337 CURVE SMOOTH",
"271 274 LINE",
"136 274 OFFCURVE",
"35 249 OFFCURVE",
"35 120 CURVE SMOOTH",
"35 7 OFFCURVE",
"112 -11 OFFCURVE",
"158 -11 CURVE SMOOTH",
"204 -11 OFFCURVE",
"247 12 OFFCURVE",
"270 50 CURVE",
"275 50 LINE",
"282 17 OFFCURVE",
"309 -6 OFFCURVE",
"346 -6 CURVE SMOOTH",
"366 -6 OFFCURVE",
"382 0 OFFCURVE",
"389 4 CURVE",
"389 47 LINE",
"358 47 LINE SMOOTH",
"346 47 OFFCURVE",
"334 56 OFFCURVE",
"334 78 CURVE SMOOTH",
"334 348 LINE SMOOTH",
"334 429 OFFCURVE",
"288 476 OFFCURVE",
"198 476 CURVE SMOOTH"
);
},
{
closed = 1;
nodes = (
"272 166 LINE",
"272 82 OFFCURVE",
"213 47 OFFCURVE",
"168 47 CURVE SMOOTH",
"126 47 OFFCURVE",
"102 64 OFFCURVE",
"102 124 CURVE SMOOTH",
"102 199 OFFCURVE",
"168 212 OFFCURVE",
"272 212 CURVE"
);
},
{
closed = 1;
nodes = (
"173 639 LINE",
"102 639 LINE",
"101 636 LINE",
"196 522 LINE",
"249 522 LINE"
);
}
);
width = 403;
}
);
unicode = 00E0;
},
{
glyphname = amacron;
layers = (
{
layerId = "F91748D5-4F43-431E-9F22-86E8B42883B3";
name = Regular;
paths = (
{
closed = 1;
nodes = (
"114 476 OFFCURVE",
"52 433 OFFCURVE",
"52 347 CURVE SMOOTH",
"52 339 OFFCURVE",
"52 332 OFFCURVE",
"53 327 CURVE",
"114 327 LINE",
"114 337 LINE SMOOTH",
"114 376 OFFCURVE",
"133 417 OFFCURVE",
"191 417 CURVE SMOOTH",
"255 417 OFFCURVE",
"271 385 OFFCURVE",
"271 337 CURVE SMOOTH",
"271 274 LINE",
"136 274 OFFCURVE",
"35 249 OFFCURVE",
"35 120 CURVE SMOOTH",
"35 7 OFFCURVE",
"112 -11 OFFCURVE",
"158 -11 CURVE SMOOTH",
"204 -11 OFFCURVE",
"247 12 OFFCURVE",
"270 50 CURVE",
"275 50 LINE",
"282 17 OFFCURVE",
"309 -6 OFFCURVE",
"346 -6 CURVE SMOOTH",
"366 -6 OFFCURVE",
"382 0 OFFCURVE",
"389 4 CURVE",
"389 47 LINE",
"358 47 LINE SMOOTH",
"346 47 OFFCURVE",
"334 56 OFFCURVE",
"334 78 CURVE SMOOTH",
"334 348 LINE SMOOTH",
"334 429 OFFCURVE",
"288 476 OFFCURVE",
"198 476 CURVE SMOOTH"
);
},
{
closed = 1;
nodes = (
"272 166 LINE",
"272 82 OFFCURVE",
"213 47 OFFCURVE",
"168 47 CURVE SMOOTH",
"126 47 OFFCURVE",
"102 64 OFFCURVE",
"102 124 CURVE SMOOTH",
"102 199 OFFCURVE",
"168 212 OFFCURVE",
"272 212 CURVE"
);
},
{
closed = 1;
nodes = (
"316 530 LINE",
"316 589 LINE",
"95 589 LINE",
"95 530 LINE"
);
}
);
width = 403;
}
);
unicode = 0101;
},
{
glyphname = aogonek;
layers = (
{
layerId = "F91748D5-4F43-431E-9F22-86E8B42883B3";
name = Regular;
paths = (
{
closed = 1;
nodes = (
"438 -103 LINE",
"407 -103 LINE SMOOTH",
"377 -103 OFFCURVE",
"367 -80 OFFCURVE",
"367 -54 CURVE SMOOTH",
"367 -31 OFFCURVE",
"378 -10 OFFCURVE",
"389 4 CURVE",
"389 47 LINE",
"358 47 LINE SMOOTH",
"346 47 OFFCURVE",
"334 56 OFFCURVE",
"334 78 CURVE SMOOTH",
"334 348 LINE SMOOTH",
"334 429 OFFCURVE",
"288 476 OFFCURVE",
"198 476 CURVE SMOOTH",
"114 476 OFFCURVE",
"52 433 OFFCURVE",
"52 347 CURVE SMOOTH",
"52 339 OFFCURVE",
"52 332 OFFCURVE",
"53 327 CURVE",
"114 327 LINE",
"114 337 LINE SMOOTH",
"114 376 OFFCURVE",
"133 417 OFFCURVE",
"191 417 CURVE SMOOTH",
"255 417 OFFCURVE",
"271 385 OFFCURVE",
"271 337 CURVE SMOOTH",
"271 274 LINE",
"136 274 OFFCURVE",
"35 249 OFFCURVE",
"35 120 CURVE SMOOTH",
"35 7 OFFCURVE",
"112 -11 OFFCURVE",
"158 -11 CURVE SMOOTH",
"204 -11 OFFCURVE",
"247 12 OFFCURVE",
"270 50 CURVE",
"275 50 LINE",
"282 21 OFFCURVE",
"302 2 OFFCURVE",
"329 -4 CURVE",
"314 -24 OFFCURVE",
"303 -46 OFFCURVE",
"303 -80 CURVE SMOOTH",
"303 -141 OFFCURVE",
"348 -160 OFFCURVE",
"385 -160 CURVE SMOOTH",
"403 -160 OFFCURVE",
"419 -155 OFFCURVE",
"438 -148 CURVE"
);
},
{
closed = 1;
nodes = (
"272 166 LINE",
"272 82 OFFCURVE",
"213 47 OFFCURVE",
"168 47 CURVE SMOOTH",
"126 47 OFFCURVE",
"102 64 OFFCURVE",
"102 124 CURVE SMOOTH",
"102 199 OFFCURVE",
"168 212 OFFCURVE",
"272 212 CURVE"
);
}
);
width = 403;
}
);
unicode = 0105;
},
{
glyphname = aring;
layers = (
{
layerId = "F91748D5-4F43-431E-9F22-86E8B42883B3";
name = Regular;
paths = (
{
closed = 1;
nodes = (
"114 476 OFFCURVE",
"52 433 OFFCURVE",
"52 347 CURVE SMOOTH",
"52 339 OFFCURVE",
"52 332 OFFCURVE",
"53 327 CURVE",
"114 327 LINE",
"114 337 LINE SMOOTH",
"114 376 OFFCURVE",
"133 417 OFFCURVE",
"191 417 CURVE SMOOTH",
"255 417 OFFCURVE",
"271 385 OFFCURVE",
"271 337 CURVE SMOOTH",
"271 274 LINE",
"136 274 OFFCURVE",
"35 249 OFFCURVE",
"35 120 CURVE SMOOTH",
"35 7 OFFCURVE",
"112 -11 OFFCURVE",
"158 -11 CURVE SMOOTH",
"204 -11 OFFCURVE",
"247 12 OFFCURVE",
"270 50 CURVE",
"275 50 LINE",
"282 17 OFFCURVE",
"309 -6 OFFCURVE",
"346 -6 CURVE SMOOTH",
"366 -6 OFFCURVE",
"382 0 OFFCURVE",
"389 4 CURVE",
"389 47 LINE",
"358 47 LINE SMOOTH",
"346 47 OFFCURVE",
"334 56 OFFCURVE",
"334 78 CURVE SMOOTH",
"334 348 LINE SMOOTH",
"334 429 OFFCURVE",
"288 476 OFFCURVE",
"198 476 CURVE SMOOTH"
);
},
{
closed = 1;
nodes = (
"272 166 LINE",
"272 82 OFFCURVE",
"213 47 OFFCURVE",
"168 47 CURVE SMOOTH",
"126 47 OFFCURVE",
"102 64 OFFCURVE",
"102 124 CURVE SMOOTH",
"102 199 OFFCURVE",
"168 212 OFFCURVE",
"272 212 CURVE"
);
},
{
closed = 1;
nodes = (
"158 667 OFFCURVE",
"120 629 OFFCURVE",
"120 584 CURVE SMOOTH",
"120 534 OFFCURVE",
"159 497 OFFCURVE",
"205 497 CURVE SMOOTH",
"251 497 OFFCURVE",
"289 535 OFFCURVE",
"289 584 CURVE SMOOTH",
"289 628 OFFCURVE",
"252 667 OFFCURVE",
"205 667 CURVE SMOOTH"
);
},
{
closed = 1;
nodes = (
"228 629 OFFCURVE",
"251 608 OFFCURVE",
"251 584 CURVE SMOOTH",
"251 558 OFFCURVE",
"228 536 OFFCURVE",
"204 536 CURVE SMOOTH",
"179 536 OFFCURVE",
"157 558 OFFCURVE",
"157 584 CURVE SMOOTH",
"157 608 OFFCURVE",
"179 629 OFFCURVE",
"204 629 CURVE SMOOTH"
);
}
);
width = 403;
}
);
unicode = 00E5;
},
{
glyphname = aringacute;
layers = (
{
layerId = "F91748D5-4F43-431E-9F22-86E8B42883B3";
name = Regular;
paths = (
{
closed = 1;
nodes = (
"114 476 OFFCURVE",
"52 433 OFFCURVE",
"52 347 CURVE SMOOTH",
"52 339 OFFCURVE",
"52 332 OFFCURVE",
"53 327 CURVE",
"114 327 LINE",
"114 337 LINE SMOOTH",
"114 376 OFFCURVE",
"133 417 OFFCURVE",
"191 417 CURVE SMOOTH",
"255 417 OFFCURVE",
"271 385 OFFCURVE",
"271 337 CURVE SMOOTH",
"271 274 LINE",
"136 274 OFFCURVE",
"35 249 OFFCURVE",
"35 120 CURVE SMOOTH",
"35 7 OFFCURVE",
"112 -11 OFFCURVE",
"158 -11 CURVE SMOOTH",
"204 -11 OFFCURVE",
"247 12 OFFCURVE",
"270 50 CURVE",
"275 50 LINE",
"282 17 OFFCURVE",
"309 -6 OFFCURVE",
"346 -6 CURVE SMOOTH",
"366 -6 OFFCURVE",
"382 0 OFFCURVE",
"389 4 CURVE",
"389 47 LINE",
"358 47 LINE SMOOTH",
"346 47 OFFCURVE",
"334 56 OFFCURVE",
"334 78 CURVE SMOOTH",
"334 348 LINE SMOOTH",
"334 429 OFFCURVE",
"288 476 OFFCURVE",
"198 476 CURVE SMOOTH"
);
},
{
closed = 1;
nodes = (
"272 166 LINE",
"272 82 OFFCURVE",
"213 47 OFFCURVE",
"168 47 CURVE SMOOTH",
"126 47 OFFCURVE",
"102 64 OFFCURVE",
"102 124 CURVE SMOOTH",
"102 199 OFFCURVE",
"168 212 OFFCURVE",
"272 212 CURVE"
);
},
{
closed = 1;
nodes = (
"228 621 OFFCURVE",
"251 604 OFFCURVE",
"251 579 CURVE SMOOTH",
"251 555 OFFCURVE",
"228 537 OFFCURVE",
"204 537 CURVE SMOOTH",
"180 537 OFFCURVE",
"157 555 OFFCURVE",
"157 579 CURVE SMOOTH",
"157 604 OFFCURVE",
"180 621 OFFCURVE",
"204 621 CURVE SMOOTH"
);
},
{
closed = 1;
nodes = (
"158 659 OFFCURVE",
"120 624 OFFCURVE",
"120 579 CURVE SMOOTH",
"120 533 OFFCURVE",
"159 500 OFFCURVE",
"205 500 CURVE SMOOTH",
"252 500 OFFCURVE",
"289 534 OFFCURVE",
"289 579 CURVE SMOOTH",
"289 623 OFFCURVE",
"253 659 OFFCURVE",
"205 659 CURVE SMOOTH"
);
},
{
closed = 1;
nodes = (
"317 781 LINE",
"246 781 LINE",
"179 679 LINE",
"232 679 LINE",
"318 778 LINE"
);
}
);
width = 392;
}
);
unicode = 01FB;
},
{
glyphname = atilde;
layers = (
{
layerId = "F91748D5-4F43-431E-9F22-86E8B42883B3";
name = Regular;
paths = (
{
closed = 1;
nodes = (
"114 476 OFFCURVE",
"52 433 OFFCURVE",
"52 347 CURVE SMOOTH",
"52 339 OFFCURVE",
"52 332 OFFCURVE",
"53 327 CURVE",
"114 327 LINE",
"114 337 LINE SMOOTH",
"114 376 OFFCURVE",
"133 417 OFFCURVE",
"191 417 CURVE SMOOTH",
"255 417 OFFCURVE",
"271 385 OFFCURVE",
"271 337 CURVE SMOOTH",
"271 274 LINE",
"136 274 OFFCURVE",
"35 249 OFFCURVE",
"35 120 CURVE SMOOTH",
"35 7 OFFCURVE",
"112 -11 OFFCURVE",
"158 -11 CURVE SMOOTH",
"204 -11 OFFCURVE",
"247 12 OFFCURVE",
"270 50 CURVE",
"275 50 LINE",
"282 17 OFFCURVE",
"309 -6 OFFCURVE",
"346 -6 CURVE SMOOTH",
"366 -6 OFFCURVE",
"382 0 OFFCURVE",
"389 4 CURVE",
"389 47 LINE",
"358 47 LINE SMOOTH",
"346 47 OFFCURVE",
"334 56 OFFCURVE",
"334 78 CURVE SMOOTH",
"334 348 LINE SMOOTH",
"334 429 OFFCURVE",
"288 476 OFFCURVE",
"198 476 CURVE SMOOTH"
);
},
{
closed = 1;
nodes = (
"272 166 LINE",
"272 82 OFFCURVE",
"213 47 OFFCURVE",
"168 47 CURVE SMOOTH",
"126 47 OFFCURVE",
"102 64 OFFCURVE",
"102 124 CURVE SMOOTH",
"102 199 OFFCURVE",
"168 212 OFFCURVE",
"272 212 CURVE"
);
},
{
closed = 1;
nodes = (
"279 639 LINE",
"277 620 OFFCURVE",
"265 614 OFFCURVE",
"250 614 CURVE SMOOTH",
"218 614 OFFCURVE",
"190 639 OFFCURVE",
"154 639 CURVE SMOOTH",
"103 639 OFFCURVE",
"81 590 OFFCURVE",
"81 552 CURVE",
"131 552 LINE",
"133 572 OFFCURVE",
"144 578 OFFCURVE",
"160 578 CURVE SMOOTH",
"192 578 OFFCURVE",
"220 552 OFFCURVE",
"256 552 CURVE SMOOTH",
"307 552 OFFCURVE",
"329 600 OFFCURVE",
"329 639 CURVE"
);
}
);
width = 403;
}
);
unicode = 00E3;
},
{
glyphname = ae;
layers = (
{
anchors = (
{
name = top;
position = "{323, 465}";
}
);
layerId = "F91748D5-4F43-431E-9F22-86E8B42883B3";
name = Regular;
paths = (
{
closed = 1;
nodes = (
"391 476 OFFCURVE",
"349 458 OFFCURVE",
"320 421 CURVE",
"299 456 OFFCURVE",
"258 476 OFFCURVE",
"199 476 CURVE SMOOTH",
"115 476 OFFCURVE",
"53 433 OFFCURVE",
"53 347 CURVE SMOOTH",
"53 339 OFFCURVE",
"53 332 OFFCURVE",
"54 327 CURVE",
"117 327 LINE",
"117 337 LINE SMOOTH",
"117 376 OFFCURVE",
"134 417 OFFCURVE",
"192 417 CURVE SMOOTH",
"257 417 OFFCURVE",
"274 385 OFFCURVE",
"274 337 CURVE SMOOTH",
"274 274 LINE",
"137 274 OFFCURVE",
"36 249 OFFCURVE",
"36 120 CURVE SMOOTH",
"36 7 OFFCURVE",
"112 -11 OFFCURVE",
"173 -11 CURVE SMOOTH",
"223 -11 OFFCURVE",
"272 18 OFFCURVE",
"305 62 CURVE",
"334 11 OFFCURVE",
"382 -11 OFFCURVE",
"446 -11 CURVE SMOOTH",
"537 -11 OFFCURVE",
"595 57 OFFCURVE",
"595 156 CURVE",
"534 156 LINE",
"534 90 OFFCURVE",
"498 48 OFFCURVE",
"449 48 CURVE SMOOTH",
"375 48 OFFCURVE",
"339 97 OFFCURVE",
"339 212 CURVE",
"595 212 LINE",
"595 264 LINE SMOOTH",
"595 417 OFFCURVE",
"545 476 OFFCURVE",
"448 476 CURVE SMOOTH"
);
},
{
closed = 1;
nodes = (
"273 157 LINE",
"273 78 OFFCURVE",
"213 47 OFFCURVE",
"168 47 CURVE SMOOTH",
"126 47 OFFCURVE",
"102 64 OFFCURVE",
"102 124 CURVE SMOOTH",
"102 199 OFFCURVE",
"168 212 OFFCURVE",
"273 212 CURVE"
);
},
{
closed = 1;
nodes = (
"501 417 OFFCURVE",
"529 368 OFFCURVE",
"529 274 CURVE",
"339 274 LINE",
"347 369 OFFCURVE",
"377 417 OFFCURVE",
"447 417 CURVE SMOOTH"
);
}
);
width = 644;
}
);
unicode = 00E6;
},
{
glyphname = aeacute;
layers = (
{
layerId = "F91748D5-4F43-431E-9F22-86E8B42883B3";
name = Regular;
paths = (
{
closed = 1;
nodes = (
"391 476 OFFCURVE",
"349 458 OFFCURVE",
"320 421 CURVE",
"299 456 OFFCURVE",
"258 476 OFFCURVE",
"199 476 CURVE SMOOTH",
"115 476 OFFCURVE",
"53 433 OFFCURVE",
"53 347 CURVE SMOOTH",
"53 339 OFFCURVE",
"53 332 OFFCURVE",
"54 327 CURVE",
"117 327 LINE",
"117 337 LINE SMOOTH",
"117 376 OFFCURVE",
"134 417 OFFCURVE",
"192 417 CURVE SMOOTH",
"257 417 OFFCURVE",
"274 385 OFFCURVE",
"274 337 CURVE SMOOTH",
"274 274 LINE",
"137 274 OFFCURVE",
"36 249 OFFCURVE",
"36 120 CURVE SMOOTH",
"36 7 OFFCURVE",
"112 -11 OFFCURVE",
"173 -11 CURVE SMOOTH",
"223 -11 OFFCURVE",
"272 18 OFFCURVE",
"305 62 CURVE",
"334 11 OFFCURVE",
"382 -11 OFFCURVE",
"446 -11 CURVE SMOOTH",
"537 -11 OFFCURVE",
"595 57 OFFCURVE",
"595 156 CURVE",
"534 156 LINE",
"534 90 OFFCURVE",
"498 48 OFFCURVE",
"449 48 CURVE SMOOTH",
"375 48 OFFCURVE",
"339 97 OFFCURVE",
"339 212 CURVE",
"595 212 LINE",
"595 264 LINE SMOOTH",
"595 417 OFFCURVE",
"545 476 OFFCURVE",
"448 476 CURVE SMOOTH"
);
},
{
closed = 1;
nodes = (
"273 157 LINE",
"273 78 OFFCURVE",
"213 47 OFFCURVE",
"168 47 CURVE SMOOTH",
"126 47 OFFCURVE",
"102 64 OFFCURVE",
"102 124 CURVE SMOOTH",
"102 199 OFFCURVE",
"168 212 OFFCURVE",
"273 212 CURVE"
);
},
{
closed = 1;
nodes = (
"501 417 OFFCURVE",
"529 368 OFFCURVE",
"529 274 CURVE",
"339 274 LINE",
"347 369 OFFCURVE",
"377 417 OFFCURVE",
"447 417 CURVE SMOOTH"
);
},
{
closed = 1;
nodes = (
"419 639 LINE",
"348 639 LINE",
"272 522 LINE",
"325 522 LINE",
"420 636 LINE"
);
}
);
width = 644;
}
);
unicode = 01FD;
},
{
glyphname = b;
layers = (
{
layerId = "F91748D5-4F43-431E-9F22-86E8B42883B3";
name = Regular;
paths = (
{
closed = 1;
nodes = (
"117 639 LINE",
"54 639 LINE",
"54 0 LINE",
"99 0 LINE",
"109 53 LINE",
"113 53 LINE",
"135 11 OFFCURVE",
"171 -11 OFFCURVE",
"214 -11 CURVE SMOOTH",
"301 -11 OFFCURVE",
"356 62 OFFCURVE",
"356 233 CURVE SMOOTH",
"356 402 OFFCURVE",
"294 476 OFFCURVE",
"219 476 CURVE SMOOTH",
"174 476 OFFCURVE",
"137 455 OFFCURVE",
"121 422 CURVE",
"117 422 LINE"
);
},
{
closed = 1;
nodes = (
"260 420 OFFCURVE",
"290 374 OFFCURVE",
"290 249 CURVE SMOOTH",
"290 216 LINE SMOOTH",
"290 91 OFFCURVE",
"260 45 OFFCURVE",
"204 45 CURVE SMOOTH",
"146 45 OFFCURVE",
"117 102 OFFCURVE",
"117 216 CURVE SMOOTH",
"117 245 LINE SMOOTH",
"117 362 OFFCURVE",
"146 420 OFFCURVE",
"204 420 CURVE SMOOTH"
);
}
);
width = 391;
}
);
unicode = 0062;
},
{
glyphname = c;
layers = (
{
anchors = (
{
name = bottom;
position = "{175, 0}";
},
{
name = top;
position = "{175, 465}";
}
);
layerId = "F91748D5-4F43-431E-9F22-86E8B42883B3";
name = Regular;
paths = (
{
closed = 1;
nodes = (
"79 476 OFFCURVE",
"31 400 OFFCURVE",
"31 232 CURVE SMOOTH",
"31 65 OFFCURVE",
"78 -11 OFFCURVE",
"185 -11 CURVE SMOOTH",
"288 -11 OFFCURVE",
"322 84 OFFCURVE",
"322 171 CURVE",
"261 171 LINE",
"261 90 OFFCURVE",
"241 47 OFFCURVE",
"185 47 CURVE SMOOTH",
"124 47 OFFCURVE",
"97 104 OFFCURVE",
"97 216 CURVE SMOOTH",
"97 249 LINE SMOOTH",
"97 361 OFFCURVE",
"124 418 OFFCURVE",
"186 418 CURVE SMOOTH",
"243 418 OFFCURVE",
"257 378 OFFCURVE",
"257 294 CURVE",
"322 294 LINE",
"322 408 OFFCURVE",
"287 476 OFFCURVE",
"186 476 CURVE SMOOTH"
);
}
);
width = 350;
}
);
unicode = 0063;
},
{
glyphname = cacute;
layers = (
{
layerId = "F91748D5-4F43-431E-9F22-86E8B42883B3";
name = Regular;
paths = (
{
closed = 1;
nodes = (
"79 476 OFFCURVE",
"31 400 OFFCURVE",
"31 232 CURVE SMOOTH",
"31 65 OFFCURVE",
"78 -11 OFFCURVE",
"185 -11 CURVE SMOOTH",
"288 -11 OFFCURVE",
"322 84 OFFCURVE",
"322 171 CURVE",
"261 171 LINE",
"261 90 OFFCURVE",
"241 47 OFFCURVE",
"185 47 CURVE SMOOTH",
"124 47 OFFCURVE",
"97 104 OFFCURVE",
"97 216 CURVE SMOOTH",
"97 249 LINE SMOOTH",
"97 361 OFFCURVE",
"124 418 OFFCURVE",
"186 418 CURVE SMOOTH",
"243 418 OFFCURVE",
"257 378 OFFCURVE",
"257 294 CURVE",
"322 294 LINE",
"322 408 OFFCURVE",
"287 476 OFFCURVE",
"186 476 CURVE SMOOTH"
);
},
{
closed = 1;
nodes = (
"281 639 LINE",
"209 639 LINE",
"133 522 LINE",
"187 522 LINE",
"281 636 LINE"
);
}
);
width = 350;
}
);
unicode = 0107;
},
{
glyphname = ccaron;
layers = (
{
layerId = "F91748D5-4F43-431E-9F22-86E8B42883B3";
name = Regular;
paths = (
{
closed = 1;
nodes = (
"79 476 OFFCURVE",
"31 400 OFFCURVE",
"31 232 CURVE SMOOTH",
"31 65 OFFCURVE",
"78 -11 OFFCURVE",
"185 -11 CURVE SMOOTH",
"288 -11 OFFCURVE",
"322 84 OFFCURVE",
"322 171 CURVE",
"261 171 LINE",
"261 90 OFFCURVE",
"241 47 OFFCURVE",
"185 47 CURVE SMOOTH",
"124 47 OFFCURVE",
"97 104 OFFCURVE",
"97 216 CURVE SMOOTH",
"97 249 LINE SMOOTH",
"97 361 OFFCURVE",
"124 418 OFFCURVE",
"186 418 CURVE SMOOTH",
"243 418 OFFCURVE",
"257 378 OFFCURVE",
"257 294 CURVE",
"322 294 LINE",
"322 408 OFFCURVE",
"287 476 OFFCURVE",
"186 476 CURVE SMOOTH"
);
},
{
closed = 1;
nodes = (
"204 520 LINE",
"281 639 LINE",
"212 639 LINE",
"172 566 LINE",
"133 639 LINE",
"66 639 LINE",
"141 520 LINE"
);
}
);
width = 350;
}
);
unicode = 010D;
},
{
glyphname = ccedilla;
layers = (
{
layerId = "F91748D5-4F43-431E-9F22-86E8B42883B3";
name = Regular;
paths = (
{
closed = 1;
nodes = (
"79 476 OFFCURVE",
"31 400 OFFCURVE",
"31 232 CURVE SMOOTH",
"31 90 OFFCURVE",
"65 14 OFFCURVE",
"141 -4 CURVE",
"130 -68 LINE",
"159 -68 LINE SMOOTH",
"182 -68 OFFCURVE",
"189 -75 OFFCURVE",
"189 -89 CURVE SMOOTH",
"189 -106 OFFCURVE",
"178 -111 OFFCURVE",
"157 -111 CURVE SMOOTH",
"89 -111 LINE",
"89 -154 LINE",
"110 -158 OFFCURVE",
"139 -161 OFFCURVE",
"163 -161 CURVE SMOOTH",
"200 -161 OFFCURVE",
"254 -149 OFFCURVE",
"254 -89 CURVE SMOOTH",
"254 -49 OFFCURVE",
"220 -35 OFFCURVE",
"182 -33 CURVE",
"184 -11 LINE",
"287 -10 OFFCURVE",
"322 84 OFFCURVE",
"322 171 CURVE",
"261 171 LINE",
"261 90 OFFCURVE",
"241 47 OFFCURVE",
"185 47 CURVE SMOOTH",
"124 47 OFFCURVE",
"97 104 OFFCURVE",
"97 216 CURVE SMOOTH",
"97 249 LINE SMOOTH",
"97 361 OFFCURVE",
"124 418 OFFCURVE",
"186 418 CURVE SMOOTH",
"243 418 OFFCURVE",
"257 378 OFFCURVE",
"257 294 CURVE",
"322 294 LINE",
"322 408 OFFCURVE",
"287 476 OFFCURVE",
"186 476 CURVE SMOOTH"
);
}
);
width = 350;
}
);
unicode = 00E7;
},
{
glyphname = ccircumflex;
layers = (
{
layerId = "F91748D5-4F43-431E-9F22-86E8B42883B3";
name = Regular;
paths = (
{
closed = 1;
nodes = (
"79 476 OFFCURVE",
"31 400 OFFCURVE",
"31 232 CURVE SMOOTH",
"31 65 OFFCURVE",
"78 -11 OFFCURVE",
"185 -11 CURVE SMOOTH",
"288 -11 OFFCURVE",
"322 84 OFFCURVE",
"322 171 CURVE",
"261 171 LINE",
"261 90 OFFCURVE",
"241 47 OFFCURVE",
"185 47 CURVE SMOOTH",
"124 47 OFFCURVE",
"97 104 OFFCURVE",
"97 216 CURVE SMOOTH",
"97 249 LINE SMOOTH",
"97 361 OFFCURVE",
"124 418 OFFCURVE",
"186 418 CURVE SMOOTH",
"243 418 OFFCURVE",
"257 378 OFFCURVE",
"257 294 CURVE",
"322 294 LINE",
"322 408 OFFCURVE",
"287 476 OFFCURVE",
"186 476 CURVE SMOOTH"
);
},
{
closed = 1;
nodes = (
"281 519 LINE",
"206 638 LINE",
"142 638 LINE",
"66 519 LINE",
"133 519 LINE",
"173 591 LINE",
"212 519 LINE"
);
}
);
width = 350;
}
);
unicode = 0109;
},
{
glyphname = cdotaccent;
layers = (
{
layerId = "F91748D5-4F43-431E-9F22-86E8B42883B3";
name = Regular;
paths = (
{
closed = 1;
nodes = (
"79 476 OFFCURVE",
"31 400 OFFCURVE",
"31 232 CURVE SMOOTH",
"31 65 OFFCURVE",
"78 -11 OFFCURVE",
"185 -11 CURVE SMOOTH",
"288 -11 OFFCURVE",
"322 84 OFFCURVE",
"322 171 CURVE",
"261 171 LINE",
"261 90 OFFCURVE",
"241 47 OFFCURVE",
"185 47 CURVE SMOOTH",
"124 47 OFFCURVE",
"97 104 OFFCURVE",
"97 216 CURVE SMOOTH",
"97 249 LINE SMOOTH",
"97 361 OFFCURVE",
"124 418 OFFCURVE",
"186 418 CURVE SMOOTH",
"243 418 OFFCURVE",
"257 378 OFFCURVE",
"257 294 CURVE",
"322 294 LINE",
"322 408 OFFCURVE",
"287 476 OFFCURVE",
"186 476 CURVE SMOOTH"
);
},
{
closed = 1;
nodes = (
"209 560 LINE",
"209 639 LINE",
"137 639 LINE",
"137 560 LINE"
);
}
);
width = 350;
}
);
unicode = 010B;
},
{
glyphname = d;
layers = (
{
anchors = (
{
name = center;
position = "{196, 232}";
}
);
layerId = "F91748D5-4F43-431E-9F22-86E8B42883B3";
name = Regular;
paths = (
{
closed = 1;
nodes = (
"337 0 LINE",
"337 639 LINE",
"275 639 LINE",
"275 422 LINE",
"270 422 LINE",
"254 455 OFFCURVE",
"217 476 OFFCURVE",
"173 476 CURVE SMOOTH",
"97 476 OFFCURVE",
"35 402 OFFCURVE",
"35 233 CURVE SMOOTH",
"35 62 OFFCURVE",
"90 -11 OFFCURVE",
"177 -11 CURVE SMOOTH",
"220 -11 OFFCURVE",
"257 11 OFFCURVE",
"278 53 CURVE",
"284 53 LINE",
"292 0 LINE"
);
},
{
closed = 1;
nodes = (
"244 420 OFFCURVE",
"275 362 OFFCURVE",
"275 245 CURVE SMOOTH",
"275 216 LINE SMOOTH",
"275 102 OFFCURVE",
"244 45 OFFCURVE",
"187 45 CURVE SMOOTH",
"131 45 OFFCURVE",
"100 91 OFFCURVE",
"100 216 CURVE SMOOTH",
"100 249 LINE SMOOTH",
"100 374 OFFCURVE",
"131 420 OFFCURVE",
"187 420 CURVE SMOOTH"
);
}
);
width = 391;
}
);
unicode = 0064;
},
{
glyphname = eth;
layers = (
{
layerId = "F91748D5-4F43-431E-9F22-86E8B42883B3";
name = Regular;
paths = (
{
closed = 1;
nodes = (
"102 639 LINE",
"100 636 LINE",
"116 619 OFFCURVE",
"129 603 OFFCURVE",
"140 590 CURVE",
"78 584 LINE",
"78 534 LINE",
"181 543 LINE",
"202 514 OFFCURVE",
"221 488 OFFCURVE",
"237 458 CURVE",
"240 461 LINE",
"225 469 OFFCURVE",
"210 476 OFFCURVE",
"191 476 CURVE SMOOTH",
"102 476 OFFCURVE",
"35 408 OFFCURVE",
"35 232 CURVE SMOOTH",
"35 65 OFFCURVE",
"92 -11 OFFCURVE",
"196 -11 CURVE SMOOTH",
"300 -11 OFFCURVE",
"357 65 OFFCURVE",
"357 232 CURVE SMOOTH",
"357 358 OFFCURVE",
"314 459 OFFCURVE",
"246 549 CURVE",
"308 555 LINE",
"308 606 LINE",
"209 596 LINE",
"197 610 OFFCURVE",
"183 624 OFFCURVE",
"170 639 CURVE"
);
},
{
closed = 1;
nodes = (
"256 418 OFFCURVE",
"290 361 OFFCURVE",
"290 249 CURVE SMOOTH",
"290 216 LINE SMOOTH",
"290 104 OFFCURVE",
"257 47 OFFCURVE",
"196 47 CURVE SMOOTH",
"133 47 OFFCURVE",
"100 104 OFFCURVE",
"100 216 CURVE SMOOTH",
"100 249 LINE SMOOTH",
"100 361 OFFCURVE",
"133 418 OFFCURVE",
"196 418 CURVE SMOOTH"
);
}
);
width = 391;
}
);
unicode = 00F0;
},
{
glyphname = dcaron;
layers = (
{
layerId = "F91748D5-4F43-431E-9F22-86E8B42883B3";
name = Regular;
paths = (
{
closed = 1;
nodes = (
"337 0 LINE",
"337 639 LINE",
"275 639 LINE",
"275 422 LINE",
"270 422 LINE",
"254 455 OFFCURVE",
"217 476 OFFCURVE",
"173 476 CURVE SMOOTH",
"97 476 OFFCURVE",
"35 402 OFFCURVE",
"35 233 CURVE SMOOTH",
"35 62 OFFCURVE",
"90 -11 OFFCURVE",
"177 -11 CURVE SMOOTH",
"220 -11 OFFCURVE",
"257 11 OFFCURVE",
"278 53 CURVE",
"284 53 LINE",
"292 0 LINE"
);
},
{
closed = 1;
nodes = (
"244 420 OFFCURVE",
"275 362 OFFCURVE",
"275 245 CURVE SMOOTH",
"275 216 LINE SMOOTH",
"275 102 OFFCURVE",
"244 45 OFFCURVE",
"187 45 CURVE SMOOTH",
"131 45 OFFCURVE",
"100 91 OFFCURVE",
"100 216 CURVE SMOOTH",
"100 249 LINE SMOOTH",
"100 374 OFFCURVE",
"131 420 OFFCURVE",
"187 420 CURVE SMOOTH"
);
},
{
closed = 1;
nodes = (
"453 526 LINE",
"453 606 LINE",
"374 606 LINE",
"374 519 LINE",
"406 519 LINE",
"374 417 LINE",
"415 417 LINE"
);
}
);
width = 424;
}
);
unicode = 010F;
},
{
glyphname = dcroat;
layers = (
{
layerId = "F91748D5-4F43-431E-9F22-86E8B42883B3";
name = Regular;
paths = (
{
closed = 1;
nodes = (
"337 639 LINE",
"275 639 LINE",
"275 570 LINE",
"182 570 LINE",
"182 515 LINE",
"275 515 LINE",
"275 422 LINE",
"270 422 LINE",
"254 455 OFFCURVE",
"217 476 OFFCURVE",
"173 476 CURVE SMOOTH",
"97 476 OFFCURVE",
"35 402 OFFCURVE",
"35 233 CURVE SMOOTH",
"35 62 OFFCURVE",
"90 -11 OFFCURVE",
"177 -11 CURVE SMOOTH",
"220 -11 OFFCURVE",
"257 11 OFFCURVE",
"278 53 CURVE",
"284 53 LINE",
"292 0 LINE",
"337 0 LINE",
"337 515 LINE",
"389 515 LINE",
"389 570 LINE",
"337 570 LINE"
);
},
{
closed = 1;
nodes = (
"244 420 OFFCURVE",
"275 362 OFFCURVE",
"275 245 CURVE SMOOTH",
"275 216 LINE SMOOTH",
"275 102 OFFCURVE",
"244 45 OFFCURVE",
"187 45 CURVE SMOOTH",
"131 45 OFFCURVE",
"100 91 OFFCURVE",
"100 216 CURVE SMOOTH",
"100 249 LINE SMOOTH",
"100 374 OFFCURVE",
"131 420 OFFCURVE",
"187 420 CURVE SMOOTH"
);
}
);
width = 386;
}
);
unicode = 0111;
},
{
glyphname = e;
layers = (
{
anchors = (
{
name = bottom;
position = "{202, 0}";
},
{
name = ogonek;
position = "{362, 9}";
},
{
name = top;
position = "{202, 465}";
}
);
layerId = "F91748D5-4F43-431E-9F22-86E8B42883B3";
name = Regular;
paths = (
{
closed = 1;
nodes = (
"96 476 OFFCURVE",
"40 400 OFFCURVE",
"40 232 CURVE SMOOTH",
"40 59 OFFCURVE",
"99 -11 OFFCURVE",
"214 -11 CURVE SMOOTH",
"303 -11 OFFCURVE",
"362 57 OFFCURVE",
"362 156 CURVE",
"300 156 LINE",
"300 90 OFFCURVE",
"265 48 OFFCURVE",
"217 48 CURVE SMOOTH",
"143 48 OFFCURVE",
"107 97 OFFCURVE",
"106 212 CURVE",
"362 212 LINE",
"362 264 LINE SMOOTH",
"362 417 OFFCURVE",
"313 476 OFFCURVE",
"214 476 CURVE SMOOTH"
);
},
{
closed = 1;
nodes = (
"269 417 OFFCURVE",
"297 368 OFFCURVE",
"297 274 CURVE",
"107 274 LINE",
"114 369 OFFCURVE",
"145 417 OFFCURVE",
"214 417 CURVE SMOOTH"
);
}
);
width = 403;
}
);
unicode = 0065;
},
{
glyphname = eacute;
layers = (
{
layerId = "F91748D5-4F43-431E-9F22-86E8B42883B3";
name = Regular;
paths = (
{
closed = 1;
nodes = (
"96 476 OFFCURVE",
"40 400 OFFCURVE",
"40 232 CURVE SMOOTH",
"40 59 OFFCURVE",
"99 -11 OFFCURVE",
"214 -11 CURVE SMOOTH",
"303 -11 OFFCURVE",
"362 57 OFFCURVE",
"362 156 CURVE",
"300 156 LINE",
"300 90 OFFCURVE",
"265 48 OFFCURVE",
"217 48 CURVE SMOOTH",
"143 48 OFFCURVE",
"107 97 OFFCURVE",
"106 212 CURVE",
"362 212 LINE",
"362 264 LINE SMOOTH",
"362 417 OFFCURVE",
"313 476 OFFCURVE",
"214 476 CURVE SMOOTH"
);
},
{
closed = 1;
nodes = (
"269 417 OFFCURVE",
"297 368 OFFCURVE",
"297 274 CURVE",
"107 274 LINE",
"114 369 OFFCURVE",
"145 417 OFFCURVE",
"214 417 CURVE SMOOTH"
);
},
{
closed = 1;
nodes = (
"312 639 LINE",
"240 639 LINE",
"164 522 LINE",
"219 522 LINE",
"313 636 LINE"
);
}
);
width = 403;
}
);
unicode = 00E9;
},
{
glyphname = ebreve;
layers = (
{
layerId = "F91748D5-4F43-431E-9F22-86E8B42883B3";
name = Regular;
paths = (
{
closed = 1;
nodes = (
"96 476 OFFCURVE",
"40 400 OFFCURVE",
"40 232 CURVE SMOOTH",
"40 59 OFFCURVE",
"99 -11 OFFCURVE",
"214 -11 CURVE SMOOTH",
"303 -11 OFFCURVE",
"362 57 OFFCURVE",
"362 156 CURVE",
"300 156 LINE",
"300 90 OFFCURVE",
"265 48 OFFCURVE",
"217 48 CURVE SMOOTH",
"143 48 OFFCURVE",
"107 97 OFFCURVE",
"106 212 CURVE",
"362 212 LINE",
"362 264 LINE SMOOTH",
"362 417 OFFCURVE",
"313 476 OFFCURVE",
"214 476 CURVE SMOOTH"
);
},
{
closed = 1;
nodes = (
"269 417 OFFCURVE",
"297 368 OFFCURVE",
"297 274 CURVE",
"107 274 LINE",
"114 369 OFFCURVE",
"145 417 OFFCURVE",
"214 417 CURVE SMOOTH"
);
},
{
closed = 1;
nodes = (
"255 639 LINE",
"253 627 OFFCURVE",
"232 610 OFFCURVE",
"202 610 CURVE SMOOTH",
"170 610 OFFCURVE",
"152 627 OFFCURVE",
"149 639 CURVE",
"94 639 LINE",
"94 600 OFFCURVE",
"135 555 OFFCURVE",
"202 555 CURVE SMOOTH",
"268 555 OFFCURVE",
"308 600 OFFCURVE",
"308 639 CURVE"
);
}
);
width = 403;
}
);
unicode = 0115;
},
{
glyphname = ecaron;
layers = (
{
layerId = "F91748D5-4F43-431E-9F22-86E8B42883B3";
name = Regular;
paths = (
{
closed = 1;
nodes = (
"96 476 OFFCURVE",
"40 400 OFFCURVE",
"40 232 CURVE SMOOTH",
"40 59 OFFCURVE",
"99 -11 OFFCURVE",
"214 -11 CURVE SMOOTH",
"303 -11 OFFCURVE",
"362 57 OFFCURVE",
"362 156 CURVE",
"300 156 LINE",
"300 90 OFFCURVE",
"265 48 OFFCURVE",
"217 48 CURVE SMOOTH",
"143 48 OFFCURVE",
"107 97 OFFCURVE",
"106 212 CURVE",
"362 212 LINE",
"362 264 LINE SMOOTH",
"362 417 OFFCURVE",
"313 476 OFFCURVE",
"214 476 CURVE SMOOTH"
);
},
{
closed = 1;
nodes = (
"269 417 OFFCURVE",
"297 368 OFFCURVE",
"297 274 CURVE",
"107 274 LINE",
"114 369 OFFCURVE",
"145 417 OFFCURVE",
"214 417 CURVE SMOOTH"
);
},
{
closed = 1;
nodes = (
"233 520 LINE",
"310 639 LINE",
"241 639 LINE",
"202 566 LINE",
"163 639 LINE",
"95 639 LINE",
"168 520 LINE"
);
}
);
width = 403;
}
);
unicode = 011B;
},
{
glyphname = ecircumflex;
layers = (
{
layerId = "F91748D5-4F43-431E-9F22-86E8B42883B3";
name = Regular;
paths = (
{
closed = 1;
nodes = (
"96 476 OFFCURVE",
"40 400 OFFCURVE",
"40 232 CURVE SMOOTH",
"40 59 OFFCURVE",
"99 -11 OFFCURVE",
"214 -11 CURVE SMOOTH",
"303 -11 OFFCURVE",
"362 57 OFFCURVE",
"362 156 CURVE",
"300 156 LINE",
"300 90 OFFCURVE",
"265 48 OFFCURVE",
"217 48 CURVE SMOOTH",
"143 48 OFFCURVE",
"107 97 OFFCURVE",
"106 212 CURVE",
"362 212 LINE",
"362 264 LINE SMOOTH",
"362 417 OFFCURVE",
"313 476 OFFCURVE",
"214 476 CURVE SMOOTH"
);
},
{
closed = 1;
nodes = (
"269 417 OFFCURVE",
"297 368 OFFCURVE",
"297 274 CURVE",
"107 274 LINE",
"114 369 OFFCURVE",
"145 417 OFFCURVE",
"214 417 CURVE SMOOTH"
);
},
{
closed = 1;
nodes = (
"310 519 LINE",
"235 638 LINE",
"170 638 LINE",
"95 519 LINE",
"163 519 LINE",
"202 591 LINE",
"241 519 LINE"
);
}
);
width = 403;
}
);
unicode = 00EA;
},
{
glyphname = edieresis;
layers = (
{
layerId = "F91748D5-4F43-431E-9F22-86E8B42883B3";
name = Regular;
paths = (
{
closed = 1;
nodes = (
"96 476 OFFCURVE",
"40 400 OFFCURVE",
"40 232 CURVE SMOOTH",
"40 59 OFFCURVE",
"99 -11 OFFCURVE",
"214 -11 CURVE SMOOTH",
"303 -11 OFFCURVE",
"362 57 OFFCURVE",
"362 156 CURVE",
"300 156 LINE",
"300 90 OFFCURVE",
"265 48 OFFCURVE",
"217 48 CURVE SMOOTH",
"143 48 OFFCURVE",
"107 97 OFFCURVE",
"106 212 CURVE",
"362 212 LINE",
"362 264 LINE SMOOTH",
"362 417 OFFCURVE",
"313 476 OFFCURVE",
"214 476 CURVE SMOOTH"
);
},
{
closed = 1;
nodes = (
"269 417 OFFCURVE",
"297 368 OFFCURVE",
"297 274 CURVE",
"107 274 LINE",
"114 369 OFFCURVE",
"145 417 OFFCURVE",
"214 417 CURVE SMOOTH"
);
},
{
closed = 1;
nodes = (
"174 639 LINE",
"101 639 LINE",
"101 559 LINE",
"174 559 LINE"
);
},
{
closed = 1;
nodes = (
"302 639 LINE",
"227 639 LINE",
"227 559 LINE",
"302 559 LINE"
);
}
);
width = 403;
}
);
unicode = 00EB;
},
{
glyphname = edotaccent;
layers = (
{
layerId = "F91748D5-4F43-431E-9F22-86E8B42883B3";
name = Regular;
paths = (
{
closed = 1;
nodes = (
"96 476 OFFCURVE",
"40 400 OFFCURVE",
"40 232 CURVE SMOOTH",
"40 59 OFFCURVE",
"99 -11 OFFCURVE",
"214 -11 CURVE SMOOTH",
"303 -11 OFFCURVE",
"362 57 OFFCURVE",
"362 156 CURVE",
"300 156 LINE",
"300 90 OFFCURVE",
"265 48 OFFCURVE",
"217 48 CURVE SMOOTH",
"143 48 OFFCURVE",
"107 97 OFFCURVE",
"106 212 CURVE",
"362 212 LINE",
"362 264 LINE SMOOTH",
"362 417 OFFCURVE",
"313 476 OFFCURVE",
"214 476 CURVE SMOOTH"
);
},
{
closed = 1;
nodes = (
"269 417 OFFCURVE",
"297 368 OFFCURVE",
"297 274 CURVE",
"107 274 LINE",
"114 369 OFFCURVE",
"145 417 OFFCURVE",
"214 417 CURVE SMOOTH"
);
},
{
closed = 1;
nodes = (
"238 560 LINE",
"238 639 LINE",
"167 639 LINE",
"167 560 LINE"
);
}
);
width = 403;
}
);
unicode = 0117;
},
{
glyphname = egrave;
layers = (
{
layerId = "F91748D5-4F43-431E-9F22-86E8B42883B3";
name = Regular;
paths = (
{
closed = 1;
nodes = (
"96 476 OFFCURVE",
"40 400 OFFCURVE",
"40 232 CURVE SMOOTH",
"40 59 OFFCURVE",
"99 -11 OFFCURVE",
"214 -11 CURVE SMOOTH",
"303 -11 OFFCURVE",
"362 57 OFFCURVE",
"362 156 CURVE",
"300 156 LINE",
"300 90 OFFCURVE",
"265 48 OFFCURVE",
"217 48 CURVE SMOOTH",
"143 48 OFFCURVE",
"107 97 OFFCURVE",
"106 212 CURVE",
"362 212 LINE",
"362 264 LINE SMOOTH",
"362 417 OFFCURVE",
"313 476 OFFCURVE",
"214 476 CURVE SMOOTH"
);
},
{
closed = 1;
nodes = (
"269 417 OFFCURVE",
"297 368 OFFCURVE",
"297 274 CURVE",
"107 274 LINE",
"114 369 OFFCURVE",
"145 417 OFFCURVE",
"214 417 CURVE SMOOTH"
);
},
{
closed = 1;
nodes = (
"188 639 LINE",
"117 639 LINE",
"116 636 LINE",
"211 522 LINE",
"264 522 LINE"
);
}
);
width = 403;
}
);
unicode = 00E8;
},
{
glyphname = emacron;
layers = (
{
layerId = "F91748D5-4F43-431E-9F22-86E8B42883B3";
name = Regular;
paths = (
{
closed = 1;
nodes = (
"96 476 OFFCURVE",
"40 400 OFFCURVE",
"40 232 CURVE SMOOTH",
"40 59 OFFCURVE",
"99 -11 OFFCURVE",
"214 -11 CURVE SMOOTH",
"303 -11 OFFCURVE",
"362 57 OFFCURVE",
"362 156 CURVE",
"300 156 LINE",
"300 90 OFFCURVE",
"265 48 OFFCURVE",
"217 48 CURVE SMOOTH",
"143 48 OFFCURVE",
"107 97 OFFCURVE",
"106 212 CURVE",
"362 212 LINE",
"362 264 LINE SMOOTH",
"362 417 OFFCURVE",
"313 476 OFFCURVE",
"214 476 CURVE SMOOTH"
);
},
{
closed = 1;
nodes = (
"269 417 OFFCURVE",
"297 368 OFFCURVE",
"297 274 CURVE",
"107 274 LINE",
"114 369 OFFCURVE",
"145 417 OFFCURVE",
"214 417 CURVE SMOOTH"
);
},
{
closed = 1;
nodes = (
"313 530 LINE",
"313 589 LINE",
"92 589 LINE",
"92 530 LINE"
);
}
);
width = 403;
}
);
unicode = 0113;
},
{
glyphname = eogonek;
layers = (
{
layerId = "F91748D5-4F43-431E-9F22-86E8B42883B3";
name = Regular;
paths = (
{
closed = 1;
nodes = (
"96 476 OFFCURVE",
"40 400 OFFCURVE",
"40 232 CURVE SMOOTH",
"40 59 OFFCURVE",
"99 -11 OFFCURVE",
"214 -11 CURVE SMOOTH",
"227 -11 OFFCURVE",
"235 -10 OFFCURVE",
"248 -7 CURVE",
"231 2 LINE",
"211 -18 OFFCURVE",
"196 -43 OFFCURVE",
"196 -80 CURVE SMOOTH",
"196 -141 OFFCURVE",
"240 -160 OFFCURVE",
"278 -160 CURVE SMOOTH",
"296 -160 OFFCURVE",
"312 -155 OFFCURVE",
"331 -148 CURVE",
"331 -103 LINE",
"300 -103 LINE SMOOTH",
"271 -103 OFFCURVE",
"260 -80 OFFCURVE",
"260 -54 CURVE SMOOTH",
"260 -29 OFFCURVE",
"275 -5 OFFCURVE",
"286 7 CURVE",
"333 33 OFFCURVE",
"362 86 OFFCURVE",
"362 156 CURVE",
"300 156 LINE",
"300 90 OFFCURVE",
"265 48 OFFCURVE",
"217 48 CURVE SMOOTH",
"143 48 OFFCURVE",
"107 97 OFFCURVE",
"106 212 CURVE",
"362 212 LINE",
"362 264 LINE SMOOTH",
"362 417 OFFCURVE",
"313 476 OFFCURVE",
"214 476 CURVE SMOOTH"
);
},
{
closed = 1;
nodes = (
"269 417 OFFCURVE",
"297 368 OFFCURVE",
"297 274 CURVE",
"107 274 LINE",
"114 369 OFFCURVE",
"145 417 OFFCURVE",
"214 417 CURVE SMOOTH"
);
}
);
width = 403;
}
);
unicode = 0119;
},
{
glyphname = f;
layers = (
{
layerId = "F91748D5-4F43-431E-9F22-86E8B42883B3";
name = Regular;
paths = (
{
closed = 1;
nodes = (
"67 646 OFFCURVE",
"47 595 OFFCURVE",
"47 544 CURVE SMOOTH",
"47 465 LINE",
"8 465 LINE",
"8 407 LINE",
"47 407 LINE",
"47 0 LINE",
"109 0 LINE",
"109 407 LINE",
"191 407 LINE",
"191 465 LINE",
"109 465 LINE",
"109 550 LINE SMOOTH",
"109 578 OFFCURVE",
"124 593 OFFCURVE",
"153 593 CURVE SMOOTH",
"191 593 LINE",
"191 636 LINE",
"176 641 OFFCURVE",
"154 646 OFFCURVE",
"134 646 CURVE SMOOTH"
);
}
);
width = 191;
}
);
unicode = 0066;
},
{
glyphname = g;
layers = (
{
anchors = (
{
name = top;
position = "{196, 465}";
}
);
layerId = "F91748D5-4F43-431E-9F22-86E8B42883B3";
name = Regular;
paths = (
{
closed = 1;
nodes = (
"316 539 LINE",
"310 507 OFFCURVE",
"298 479 OFFCURVE",
"254 458 CURVE",
"236 468 OFFCURVE",
"213 476 OFFCURVE",
"190 476 CURVE SMOOTH",
"101 476 OFFCURVE",
"44 417 OFFCURVE",
"44 320 CURVE SMOOTH",
"44 268 OFFCURVE",
"64 228 OFFCURVE",
"97 201 CURVE",
"58 187 OFFCURVE",
"33 157 OFFCURVE",
"33 120 CURVE SMOOTH",
"33 95 OFFCURVE",
"47 67 OFFCURVE",
"72 51 CURVE",
"32 38 OFFCURVE",
"10 -4 OFFCURVE",
"10 -49 CURVE SMOOTH",
"10 -109 OFFCURVE",
"47 -161 OFFCURVE",
"129 -161 CURVE SMOOTH",
"249 -161 LINE SMOOTH",
"340 -161 OFFCURVE",
"381 -103 OFFCURVE",
"381 -32 CURVE SMOOTH",
"381 22 OFFCURVE",
"341 73 OFFCURVE",
"271 73 CURVE SMOOTH",
"146 73 LINE SMOOTH",
"121 73 OFFCURVE",
"100 93 OFFCURVE",
"100 118 CURVE SMOOTH",
"100 143 OFFCURVE",
"120 164 OFFCURVE",
"145 164 CURVE SMOOTH",
"196 164 LINE SMOOTH",
"279 165 OFFCURVE",
"336 223 OFFCURVE",
"336 320 CURVE SMOOTH",
"336 366 OFFCURVE",
"320 403 OFFCURVE",
"294 430 CURVE",
"343 442 OFFCURVE",
"372 486 OFFCURVE",
"372 539 CURVE"
);
},
{
closed = 1;
nodes = (
"260 13 LINE",
"301 13 OFFCURVE",
"318 -14 OFFCURVE",
"318 -45 CURVE SMOOTH",
"318 -76 OFFCURVE",
"293 -103 OFFCURVE",
"261 -103 CURVE SMOOTH",
"130 -103 LINE SMOOTH",
"91 -103 OFFCURVE",
"73 -76 OFFCURVE",
"73 -45 CURVE SMOOTH",
"73 -13 OFFCURVE",
"89 13 OFFCURVE",
"130 13 CURVE SMOOTH"
);
},
{
closed = 1;
nodes = (
"243 420 OFFCURVE",
"273 385 OFFCURVE",
"273 320 CURVE SMOOTH",
"273 258 OFFCURVE",
"243 219 OFFCURVE",
"189 219 CURVE SMOOTH",
"135 219 OFFCURVE",
"107 254 OFFCURVE",
"107 320 CURVE SMOOTH",
"107 381 OFFCURVE",
"135 420 OFFCURVE",
"189 420 CURVE SMOOTH"
);
}
);
width = 391;
}
);
unicode = 0067;
},
{
glyphname = gbreve;
layers = (
{
layerId = "F91748D5-4F43-431E-9F22-86E8B42883B3";
name = Regular;
paths = (
{
closed = 1;
nodes = (
"316 539 LINE",
"310 507 OFFCURVE",
"298 479 OFFCURVE",
"254 458 CURVE",
"236 468 OFFCURVE",
"213 476 OFFCURVE",
"190 476 CURVE SMOOTH",
"101 476 OFFCURVE",
"44 417 OFFCURVE",
"44 320 CURVE SMOOTH",
"44 268 OFFCURVE",
"64 228 OFFCURVE",
"97 201 CURVE",
"58 187 OFFCURVE",
"33 157 OFFCURVE",
"33 120 CURVE SMOOTH",
"33 95 OFFCURVE",
"47 67 OFFCURVE",
"72 51 CURVE",
"32 38 OFFCURVE",
"10 -4 OFFCURVE",
"10 -49 CURVE SMOOTH",
"10 -109 OFFCURVE",
"47 -161 OFFCURVE",
"129 -161 CURVE SMOOTH",
"249 -161 LINE SMOOTH",
"340 -161 OFFCURVE",
"381 -103 OFFCURVE",
"381 -32 CURVE SMOOTH",
"381 22 OFFCURVE",
"341 73 OFFCURVE",
"271 73 CURVE SMOOTH",
"146 73 LINE SMOOTH",
"121 73 OFFCURVE",
"100 93 OFFCURVE",
"100 118 CURVE SMOOTH",
"100 143 OFFCURVE",
"120 164 OFFCURVE",
"145 164 CURVE SMOOTH",
"196 164 LINE SMOOTH",
"279 165 OFFCURVE",
"336 223 OFFCURVE",
"336 320 CURVE SMOOTH",
"336 366 OFFCURVE",
"320 403 OFFCURVE",
"294 430 CURVE",
"343 442 OFFCURVE",
"372 486 OFFCURVE",
"372 539 CURVE"
);
},
{
closed = 1;
nodes = (
"260 13 LINE",
"301 13 OFFCURVE",
"318 -14 OFFCURVE",
"318 -45 CURVE SMOOTH",
"318 -76 OFFCURVE",
"293 -103 OFFCURVE",
"261 -103 CURVE SMOOTH",
"130 -103 LINE SMOOTH",
"91 -103 OFFCURVE",
"73 -76 OFFCURVE",
"73 -45 CURVE SMOOTH",
"73 -13 OFFCURVE",
"89 13 OFFCURVE",
"130 13 CURVE SMOOTH"
);
},
{
closed = 1;
nodes = (
"243 420 OFFCURVE",
"273 385 OFFCURVE",
"273 320 CURVE SMOOTH",
"273 258 OFFCURVE",
"243 219 OFFCURVE",
"189 219 CURVE SMOOTH",
"135 219 OFFCURVE",
"107 254 OFFCURVE",
"107 320 CURVE SMOOTH",
"107 381 OFFCURVE",
"135 420 OFFCURVE",
"189 420 CURVE SMOOTH"
);
},
{
closed = 1;
nodes = (
"250 639 LINE",
"248 627 OFFCURVE",
"227 610 OFFCURVE",
"197 610 CURVE SMOOTH",
"165 610 OFFCURVE",
"147 627 OFFCURVE",
"143 639 CURVE",
"89 639 LINE",
"89 600 OFFCURVE",
"130 555 OFFCURVE",
"197 555 CURVE SMOOTH",
"263 555 OFFCURVE",
"303 600 OFFCURVE",
"303 639 CURVE"
);
}
);
width = 391;
}
);
unicode = 011F;
},
{
glyphname = gcircumflex;
layers = (
{
layerId = "F91748D5-4F43-431E-9F22-86E8B42883B3";
name = Regular;
paths = (
{
closed = 1;
nodes = (
"316 539 LINE",
"313 490 OFFCURVE",
"293 486 OFFCURVE",
"254 458 CURVE",
"236 468 OFFCURVE",
"213 476 OFFCURVE",
"190 476 CURVE SMOOTH",
"101 476 OFFCURVE",
"44 417 OFFCURVE",
"44 320 CURVE SMOOTH",
"44 268 OFFCURVE",
"64 228 OFFCURVE",
"97 201 CURVE",
"58 187 OFFCURVE",
"33 157 OFFCURVE",
"33 120 CURVE SMOOTH",
"33 95 OFFCURVE",
"47 67 OFFCURVE",
"72 51 CURVE",
"32 38 OFFCURVE",
"10 -4 OFFCURVE",
"10 -49 CURVE SMOOTH",
"10 -109 OFFCURVE",
"47 -161 OFFCURVE",
"129 -161 CURVE SMOOTH",
"249 -161 LINE SMOOTH",
"340 -161 OFFCURVE",
"381 -103 OFFCURVE",
"381 -32 CURVE SMOOTH",
"381 22 OFFCURVE",
"341 73 OFFCURVE",
"271 73 CURVE SMOOTH",
"146 73 LINE SMOOTH",
"121 73 OFFCURVE",
"100 93 OFFCURVE",
"100 118 CURVE SMOOTH",
"100 143 OFFCURVE",
"120 164 OFFCURVE",
"145 164 CURVE SMOOTH",
"196 164 LINE SMOOTH",
"279 165 OFFCURVE",
"336 223 OFFCURVE",
"336 320 CURVE SMOOTH",
"336 366 OFFCURVE",
"320 403 OFFCURVE",
"294 430 CURVE",
"343 442 OFFCURVE",
"372 486 OFFCURVE",
"372 539 CURVE"
);
},
{
closed = 1;
nodes = (
"260 13 LINE",
"301 13 OFFCURVE",
"318 -14 OFFCURVE",
"318 -45 CURVE SMOOTH",
"318 -76 OFFCURVE",
"293 -103 OFFCURVE",
"261 -103 CURVE SMOOTH",
"130 -103 LINE SMOOTH",
"91 -103 OFFCURVE",
"73 -76 OFFCURVE",
"73 -45 CURVE SMOOTH",
"73 -13 OFFCURVE",
"89 13 OFFCURVE",
"130 13 CURVE SMOOTH"
);
},
{
closed = 1;
nodes = (
"243 420 OFFCURVE",
"273 385 OFFCURVE",
"273 320 CURVE SMOOTH",
"273 258 OFFCURVE",
"243 219 OFFCURVE",
"189 219 CURVE SMOOTH",
"135 219 OFFCURVE",
"107 254 OFFCURVE",
"107 320 CURVE SMOOTH",
"107 381 OFFCURVE",
"135 420 OFFCURVE",
"189 420 CURVE SMOOTH"
);
},
{
closed = 1;
nodes = (
"304 519 LINE",
"229 638 LINE",
"164 638 LINE",
"89 519 LINE",
"158 519 LINE",
"196 591 LINE",
"235 519 LINE"
);
}
);
width = 391;
}
);
unicode = 011D;
},
{
glyphname = gcommaaccent;
layers = (
{
layerId = "F91748D5-4F43-431E-9F22-86E8B42883B3";
name = Regular;
paths = (
{
closed = 1;
nodes = (
"316 539 LINE",
"310 507 OFFCURVE",
"298 479 OFFCURVE",
"254 458 CURVE",
"236 468 OFFCURVE",
"213 476 OFFCURVE",
"190 476 CURVE SMOOTH",
"101 476 OFFCURVE",
"44 417 OFFCURVE",
"44 320 CURVE SMOOTH",
"44 268 OFFCURVE",
"64 228 OFFCURVE",
"97 201 CURVE",
"58 187 OFFCURVE",
"33 157 OFFCURVE",
"33 120 CURVE SMOOTH",
"33 95 OFFCURVE",
"47 67 OFFCURVE",
"72 51 CURVE",
"32 38 OFFCURVE",
"10 -4 OFFCURVE",
"10 -49 CURVE SMOOTH",
"10 -109 OFFCURVE",
"47 -161 OFFCURVE",
"129 -161 CURVE SMOOTH",
"249 -161 LINE SMOOTH",
"340 -161 OFFCURVE",
"381 -103 OFFCURVE",
"381 -32 CURVE SMOOTH",
"381 22 OFFCURVE",
"341 73 OFFCURVE",
"271 73 CURVE SMOOTH",
"146 73 LINE SMOOTH",
"121 73 OFFCURVE",
"100 93 OFFCURVE",
"100 118 CURVE SMOOTH",
"100 143 OFFCURVE",
"120 164 OFFCURVE",
"145 164 CURVE SMOOTH",
"196 164 LINE SMOOTH",
"279 165 OFFCURVE",
"336 223 OFFCURVE",
"336 320 CURVE SMOOTH",
"336 366 OFFCURVE",
"320 403 OFFCURVE",
"294 430 CURVE",
"343 442 OFFCURVE",
"372 486 OFFCURVE",
"372 539 CURVE"
);
},
{
closed = 1;
nodes = (
"260 13 LINE",
"301 13 OFFCURVE",
"318 -14 OFFCURVE",
"318 -45 CURVE SMOOTH",
"318 -76 OFFCURVE",
"293 -103 OFFCURVE",
"261 -103 CURVE SMOOTH",
"130 -103 LINE SMOOTH",
"91 -103 OFFCURVE",
"73 -76 OFFCURVE",
"73 -45 CURVE SMOOTH",
"73 -13 OFFCURVE",
"89 13 OFFCURVE",
"130 13 CURVE SMOOTH"
);
},
{
closed = 1;
nodes = (
"243 420 OFFCURVE",
"273 385 OFFCURVE",
"273 320 CURVE SMOOTH",
"273 258 OFFCURVE",
"243 219 OFFCURVE",
"189 219 CURVE SMOOTH",
"135 219 OFFCURVE",
"107 254 OFFCURVE",
"107 320 CURVE SMOOTH",
"107 381 OFFCURVE",
"135 420 OFFCURVE",
"189 420 CURVE SMOOTH"
);
},
{
closed = 1;
nodes = (
"204 658 LINE",
"171 658 LINE",
"148 594 LINE",
"148 527 LINE",
"214 527 LINE",
"214 599 LINE",
"188 599 LINE"
);
}
);
width = 391;
}
);
unicode = 0123;
},
{
glyphname = gdotaccent;
layers = (
{
layerId = "F91748D5-4F43-431E-9F22-86E8B42883B3";
name = Regular;
paths = (
{
closed = 1;
nodes = (
"316 539 LINE",
"310 507 OFFCURVE",
"298 479 OFFCURVE",
"254 458 CURVE",
"236 468 OFFCURVE",
"213 476 OFFCURVE",
"190 476 CURVE SMOOTH",
"101 476 OFFCURVE",
"44 417 OFFCURVE",
"44 320 CURVE SMOOTH",
"44 268 OFFCURVE",
"64 228 OFFCURVE",
"97 201 CURVE",
"58 187 OFFCURVE",
"33 157 OFFCURVE",
"33 120 CURVE SMOOTH",
"33 95 OFFCURVE",
"47 67 OFFCURVE",
"72 51 CURVE",
"32 38 OFFCURVE",
"10 -4 OFFCURVE",
"10 -49 CURVE SMOOTH",
"10 -109 OFFCURVE",
"47 -161 OFFCURVE",
"129 -161 CURVE SMOOTH",
"249 -161 LINE SMOOTH",
"340 -161 OFFCURVE",
"381 -103 OFFCURVE",
"381 -32 CURVE SMOOTH",
"381 22 OFFCURVE",
"341 73 OFFCURVE",
"271 73 CURVE SMOOTH",
"146 73 LINE SMOOTH",
"121 73 OFFCURVE",
"100 93 OFFCURVE",
"100 118 CURVE SMOOTH",
"100 143 OFFCURVE",
"120 164 OFFCURVE",
"145 164 CURVE SMOOTH",
"196 164 LINE SMOOTH",
"279 165 OFFCURVE",
"336 223 OFFCURVE",
"336 320 CURVE SMOOTH",
"336 366 OFFCURVE",
"320 403 OFFCURVE",
"294 430 CURVE",
"343 442 OFFCURVE",
"372 486 OFFCURVE",
"372 539 CURVE"
);
},
{
closed = 1;
nodes = (
"260 13 LINE",
"301 13 OFFCURVE",
"318 -14 OFFCURVE",
"318 -45 CURVE SMOOTH",
"318 -76 OFFCURVE",
"293 -103 OFFCURVE",
"261 -103 CURVE SMOOTH",
"130 -103 LINE SMOOTH",
"91 -103 OFFCURVE",
"73 -76 OFFCURVE",
"73 -45 CURVE SMOOTH",
"73 -13 OFFCURVE",
"89 13 OFFCURVE",
"130 13 CURVE SMOOTH"
);
},
{
closed = 1;
nodes = (
"243 420 OFFCURVE",
"273 385 OFFCURVE",
"273 320 CURVE SMOOTH",
"273 258 OFFCURVE",
"243 219 OFFCURVE",
"189 219 CURVE SMOOTH",
"135 219 OFFCURVE",
"107 254 OFFCURVE",
"107 320 CURVE SMOOTH",
"107 381 OFFCURVE",
"135 420 OFFCURVE",
"189 420 CURVE SMOOTH"
);
},
{
closed = 1;
nodes = (
"231 560 LINE",
"231 639 LINE",
"161 639 LINE",
"161 560 LINE"
);
}
);
width = 391;
}
);
unicode = 0121;
},
{
glyphname = h;
layers = (
{
anchors = (
{
name = center;
position = "{196, 232}";
},
{
name = top;
position = "{196, 465}";
}
);
layerId = "F91748D5-4F43-431E-9F22-86E8B42883B3";
name = Regular;
paths = (
{
closed = 1;
nodes = (
"117 416 LINE",
"117 639 LINE",
"54 639 LINE",
"54 0 LINE",
"117 0 LINE",
"117 283 LINE SMOOTH",
"117 371 OFFCURVE",
"160 420 OFFCURVE",
"207 420 CURVE SMOOTH",
"247 420 OFFCURVE",
"275 405 OFFCURVE",
"275 340 CURVE SMOOTH",
"275 0 LINE",
"337 0 LINE",
"337 338 LINE SMOOTH",
"337 439 OFFCURVE",
"294 476 OFFCURVE",
"224 476 CURVE SMOOTH",
"181 476 OFFCURVE",
"148 462 OFFCURVE",
"123 416 CURVE"
);
}
);
width = 391;
}
);
unicode = 0068;
},
{
glyphname = hbar;
layers = (
{
layerId = "F91748D5-4F43-431E-9F22-86E8B42883B3";
name = Regular;
paths = (
{
closed = 1;
nodes = (
"117 639 LINE",
"54 639 LINE",
"54 570 LINE",
"0 570 LINE",
"0 515 LINE",
"54 515 LINE",
"54 0 LINE",
"117 0 LINE",
"117 283 LINE SMOOTH",
"117 371 OFFCURVE",
"160 420 OFFCURVE",
"208 420 CURVE SMOOTH",
"247 420 OFFCURVE",
"275 405 OFFCURVE",
"275 340 CURVE SMOOTH",
"275 0 LINE",
"337 0 LINE",
"337 338 LINE SMOOTH",
"337 439 OFFCURVE",
"294 476 OFFCURVE",
"224 476 CURVE SMOOTH",
"181 476 OFFCURVE",
"148 462 OFFCURVE",
"123 416 CURVE",
"117 416 LINE",
"117 515 LINE",
"206 515 LINE",
"206 570 LINE",
"117 570 LINE"
);
}
);
width = 391;
}
);
unicode = 0127;
},
{
glyphname = hcircumflex;
layers = (
{
layerId = "F91748D5-4F43-431E-9F22-86E8B42883B3";
name = Regular;
paths = (
{
closed = 1;
nodes = (
"117 416 LINE",
"117 639 LINE",
"54 639 LINE",
"54 0 LINE",
"117 0 LINE",
"117 283 LINE SMOOTH",
"117 371 OFFCURVE",
"160 420 OFFCURVE",
"207 420 CURVE SMOOTH",
"247 420 OFFCURVE",
"275 405 OFFCURVE",
"275 340 CURVE SMOOTH",
"275 0 LINE",
"337 0 LINE",
"337 338 LINE SMOOTH",
"337 439 OFFCURVE",
"294 476 OFFCURVE",
"224 476 CURVE SMOOTH",
"181 476 OFFCURVE",
"148 462 OFFCURVE",
"123 416 CURVE"
);
},
{
closed = 1;
nodes = (
"197 660 LINE",
"121 780 LINE",
"57 780 LINE",
"-19 660 LINE",
"50 660 LINE",
"90 732 LINE",
"129 660 LINE"
);
}
);
width = 391;
}
);
unicode = 0125;
},
{
glyphname = i;
layers = (
{
layerId = "F91748D5-4F43-431E-9F22-86E8B42883B3";
name = Regular;
paths = (
{
closed = 1;
nodes = (
"106 0 LINE",
"106 465 LINE",
"43 465 LINE",
"43 0 LINE"
);
},
{
closed = 1;
nodes = (
"106 555 LINE",
"106 639 LINE",
"43 639 LINE",
"43 555 LINE"
);
}
);
width = 149;
}
);
unicode = 0069;
},
{
glyphname = dotlessi;
layers = (
{
anchors = (
{
name = ogonek;
position = "{181, 9}";
},
{
name = top;
position = "{101, 465}";
}
);
layerId = "F91748D5-4F43-431E-9F22-86E8B42883B3";
name = Regular;
paths = (
{
closed = 1;
nodes = (
"132 0 LINE",
"132 465 LINE",
"70 465 LINE",
"70 0 LINE"
);
}
);
width = 202;
}
);
unicode = 0131;
},
{
glyphname = iacute;
layers = (
{
layerId = "F91748D5-4F43-431E-9F22-86E8B42883B3";
name = Regular;
paths = (
{
closed = 1;
nodes = (
"132 465 LINE",
"70 465 LINE",
"70 0 LINE",
"132 0 LINE"
);
},
{
closed = 1;
nodes = (
"198 639 LINE",
"128 639 LINE",
"52 522 LINE",
"105 522 LINE",
"199 636 LINE"
);
}
);
width = 202;
}
);
unicode = 00ED;
},
{
glyphname = ibreve;
layers = (
{
layerId = "F91748D5-4F43-431E-9F22-86E8B42883B3";
name = Regular;
paths = (
{
closed = 1;
nodes = (
"132 0 LINE",
"132 465 LINE",
"70 465 LINE",
"70 0 LINE"
);
},
{
closed = 1;
nodes = (
"154 639 LINE",
"152 627 OFFCURVE",
"131 610 OFFCURVE",
"101 610 CURVE SMOOTH",
"72 610 OFFCURVE",
"51 627 OFFCURVE",
"49 639 CURVE",
"-7 639 LINE",
"-7 600 OFFCURVE",
"35 555 OFFCURVE",
"101 555 CURVE SMOOTH",
"167 555 OFFCURVE",
"207 600 OFFCURVE",
"207 639 CURVE"
);
}
);
width = 202;
}
);
unicode = 012D;
},
{
glyphname = icircumflex;
layers = (
{
layerId = "F91748D5-4F43-431E-9F22-86E8B42883B3";
name = Regular;
paths = (
{
closed = 1;
nodes = (
"132 0 LINE",
"132 465 LINE",
"70 465 LINE",
"70 0 LINE"
);
},
{
closed = 1;
nodes = (
"208 519 LINE",
"133 638 LINE",
"69 638 LINE",
"-8 519 LINE",
"62 519 LINE",
"102 591 LINE",
"141 519 LINE"
);
}
);
width = 202;
}
);
unicode = 00EE;
},
{
glyphname = idieresis;
layers = (
{
layerId = "F91748D5-4F43-431E-9F22-86E8B42883B3";
name = Regular;
paths = (
{
closed = 1;
nodes = (
"132 465 LINE",
"70 465 LINE",
"70 0 LINE",
"132 0 LINE"
);
},
{
closed = 1;
nodes = (
"75 639 LINE",
"1 639 LINE",
"1 559 LINE",
"75 559 LINE"
);
},
{
closed = 1;
nodes = (
"201 639 LINE",
"128 639 LINE",
"128 559 LINE",
"201 559 LINE"
);
}
);
width = 202;
}
);
unicode = 00EF;
},
{
glyphname = igrave;
layers = (
{
layerId = "F91748D5-4F43-431E-9F22-86E8B42883B3";
name = Regular;
paths = (
{
closed = 1;
nodes = (
"132 465 LINE",
"70 465 LINE",
"70 0 LINE",
"132 0 LINE"
);
},
{
closed = 1;
nodes = (
"75 639 LINE",
"3 639 LINE",
"2 636 LINE",
"98 522 LINE",
"151 522 LINE"
);
}
);
width = 202;
}
);
unicode = 00EC;
},
{
glyphname = ij;
layers = (
{
layerId = "F91748D5-4F43-431E-9F22-86E8B42883B3";
name = Regular;
paths = (
{
closed = 1;
nodes = (
"255 465 LINE",
"192 465 LINE",
"192 -65 LINE SMOOTH",
"192 -93 OFFCURVE",
"178 -108 OFFCURVE",
"151 -108 CURVE SMOOTH",
"112 -108 LINE",
"112 -150 LINE",
"126 -156 OFFCURVE",
"147 -161 OFFCURVE",
"168 -161 CURVE SMOOTH",
"234 -161 OFFCURVE",
"255 -110 OFFCURVE",
"255 -59 CURVE SMOOTH"
);
},
{
closed = 1;
nodes = (
"106 465 LINE",
"43 465 LINE",
"43 0 LINE",
"106 0 LINE"
);
},
{
closed = 1;
nodes = (
"106 639 LINE",
"43 639 LINE",
"43 555 LINE",
"106 555 LINE"
);
},
{
closed = 1;
nodes = (
"255 639 LINE",
"192 639 LINE",
"192 555 LINE",
"255 555 LINE"
);
}
);
width = 298;
}
);
unicode = 0133;
},
{
glyphname = imacron;
layers = (
{
layerId = "F91748D5-4F43-431E-9F22-86E8B42883B3";
name = Regular;
paths = (
{
closed = 1;
nodes = (
"132 0 LINE",
"132 465 LINE",
"70 465 LINE",
"70 0 LINE"
);
},
{
closed = 1;
nodes = (
"211 530 LINE",
"211 589 LINE",
"-10 589 LINE",
"-10 530 LINE"
);
}
);
width = 202;
}
);
unicode = 012B;
},
{
glyphname = iogonek;
layers = (
{
layerId = "F91748D5-4F43-431E-9F22-86E8B42883B3";
name = Regular;
paths = (
{
closed = 1;
nodes = (
"106 465 LINE",
"43 465 LINE",
"43 0 LINE",
"53 0 LINE",
"36 -19 OFFCURVE",
"23 -43 OFFCURVE",
"23 -79 CURVE SMOOTH",
"23 -140 OFFCURVE",
"67 -159 OFFCURVE",
"105 -159 CURVE SMOOTH",
"121 -159 OFFCURVE",
"139 -154 OFFCURVE",
"157 -147 CURVE",
"157 -102 LINE",
"126 -102 LINE SMOOTH",
"97 -102 OFFCURVE",
"86 -79 OFFCURVE",
"86 -53 CURVE SMOOTH",
"86 -33 OFFCURVE",
"97 -13 OFFCURVE",
"106 0 CURVE"
);
},
{
closed = 1;
nodes = (
"111 639 LINE",
"38 639 LINE",
"38 560 LINE",
"111 560 LINE"
);
}
);
width = 149;
}
);
unicode = 012F;
},
{
glyphname = itilde;
layers = (
{
layerId = "F91748D5-4F43-431E-9F22-86E8B42883B3";
name = Regular;
paths = (
{
closed = 1;
nodes = (
"132 0 LINE",
"132 465 LINE",
"70 465 LINE",
"70 0 LINE"
);
},
{
closed = 1;
nodes = (
"175 639 LINE",
"173 620 OFFCURVE",
"160 614 OFFCURVE",
"147 614 CURVE SMOOTH",
"113 614 OFFCURVE",
"85 639 OFFCURVE",
"49 639 CURVE SMOOTH",
"-1 639 OFFCURVE",
"-22 590 OFFCURVE",
"-22 552 CURVE",
"26 552 LINE",
"29 572 OFFCURVE",
"40 578 OFFCURVE",
"55 578 CURVE SMOOTH",
"88 578 OFFCURVE",
"116 552 OFFCURVE",
"153 552 CURVE SMOOTH",
"203 552 OFFCURVE",
"224 600 OFFCURVE",
"224 639 CURVE"
);
}
);
width = 202;
}
);
unicode = 0129;
},
{
glyphname = j;
layers = (
{
layerId = "F91748D5-4F43-431E-9F22-86E8B42883B3";
name = Regular;
paths = (
{
closed = 1;
nodes = (
"106 465 LINE",
"43 465 LINE",
"43 -65 LINE SMOOTH",
"43 -93 OFFCURVE",
"29 -108 OFFCURVE",
"2 -108 CURVE SMOOTH",
"-37 -108 LINE",
"-37 -150 LINE",
"-23 -156 OFFCURVE",
"0 -161 OFFCURVE",
"19 -161 CURVE SMOOTH",
"85 -161 OFFCURVE",
"106 -110 OFFCURVE",
"106 -59 CURVE SMOOTH"
);
},
{
closed = 1;
nodes = (
"106 555 LINE",
"106 639 LINE",
"43 639 LINE",
"43 555 LINE"
);
}
);
width = 149;
}
);
unicode = 006A;
},
{
glyphname = jcircumflex;
layers = (
{
layerId = "F91748D5-4F43-431E-9F22-86E8B42883B3";
name = Regular;
paths = (
{
closed = 1;
nodes = (
"106 465 LINE",
"43 465 LINE",
"43 -65 LINE SMOOTH",
"43 -93 OFFCURVE",
"29 -108 OFFCURVE",
"2 -108 CURVE SMOOTH",
"-37 -108 LINE",
"-37 -150 LINE",
"-23 -156 OFFCURVE",
"0 -161 OFFCURVE",
"19 -161 CURVE SMOOTH",
"85 -161 OFFCURVE",
"106 -110 OFFCURVE",
"106 -59 CURVE SMOOTH"
);
},
{
closed = 1;
nodes = (
"182 519 LINE",
"106 638 LINE",
"42 638 LINE",
"-34 519 LINE",
"35 519 LINE",
"75 591 LINE",
"114 519 LINE"
);
}
);
width = 149;
}
);
unicode = 0135;
},
{
glyphname = k;
layers = (
{
anchors = (
{
name = bottom;
position = "{175, 0}";
}
);
layerId = "F91748D5-4F43-431E-9F22-86E8B42883B3";
name = Regular;
paths = (
{
closed = 1;
nodes = (
"117 240 LINE",
"117 639 LINE",
"54 639 LINE",
"54 0 LINE",
"117 0 LINE",
"117 162 LINE",
"169 218 LINE",
"279 0 LINE",
"350 0 LINE",
"207 273 LINE",
"343 465 LINE",
"273 465 LINE"
);
}
);
width = 350;
}
);
unicode = 006B;
},
{
glyphname = kcommaaccent;
layers = (
{
layerId = "F91748D5-4F43-431E-9F22-86E8B42883B3";
name = Regular;
paths = (
{
closed = 1;
nodes = (
"117 240 LINE",
"117 639 LINE",
"54 639 LINE",
"54 0 LINE",
"117 0 LINE",
"117 162 LINE",
"169 218 LINE",
"279 0 LINE",
"350 0 LINE",
"207 273 LINE",
"343 465 LINE",
"273 465 LINE"
);
},
{
closed = 1;
nodes = (
"208 -121 LINE",
"208 -54 LINE",
"143 -54 LINE",
"143 -126 LINE",
"169 -126 LINE",
"153 -185 LINE",
"187 -185 LINE"
);
}
);
width = 350;
}
);
unicode = 0137;
},
{
glyphname = kgreenlandic;
layers = (
{
layerId = "F91748D5-4F43-431E-9F22-86E8B42883B3";
name = Regular;
paths = (
{
closed = 1;
nodes = (
"207 273 LINE",
"343 465 LINE",
"273 465 LINE",
"117 240 LINE",
"117 465 LINE",
"54 465 LINE",
"54 0 LINE",
"117 0 LINE",
"117 162 LINE",
"169 218 LINE",
"279 0 LINE",
"350 0 LINE"
);
}
);
width = 348;
}
);
unicode = 0138;
},
{
glyphname = l;
layers = (
{
anchors = (
{
name = bottom;
position = "{74, 0}";
},
{
name = top;
position = "{74, 465}";
},
{
name = topright;
position = "{131, 465}";
}
);
layerId = "F91748D5-4F43-431E-9F22-86E8B42883B3";
name = Regular;
paths = (
{
closed = 1;
nodes = (
"106 0 LINE",
"106 639 LINE",
"43 639 LINE",
"43 0 LINE"
);
}
);
width = 149;
}
);
unicode = 006C;
},
{
glyphname = lacute;
layers = (
{
layerId = "F91748D5-4F43-431E-9F22-86E8B42883B3";
name = Regular;
paths = (
{
closed = 1;
nodes = (
"106 639 LINE",
"43 639 LINE",
"43 0 LINE",
"106 0 LINE"
);
},
{
closed = 1;
nodes = (
"172 781 LINE",
"100 781 LINE",
"24 664 LINE",
"77 664 LINE",
"172 778 LINE"
);
}
);
width = 149;
}
);
unicode = 013A;
},
{
glyphname = lcaron;
layers = (
{
layerId = "F91748D5-4F43-431E-9F22-86E8B42883B3";
name = Regular;
paths = (
{
closed = 1;
nodes = (
"106 0 LINE",
"106 639 LINE",
"43 639 LINE",
"43 0 LINE"
);
},
{
closed = 1;
nodes = (
"216 526 LINE",
"216 606 LINE",
"138 606 LINE",
"138 519 LINE",
"169 519 LINE",
"138 417 LINE",
"179 417 LINE"
);
}
);
width = 191;
}
);
unicode = 013E;
},
{
glyphname = lcommaaccent;
layers = (
{
layerId = "F91748D5-4F43-431E-9F22-86E8B42883B3";
name = Regular;
paths = (
{
closed = 1;
nodes = (
"106 0 LINE",
"106 639 LINE",
"43 639 LINE",
"43 0 LINE"
);
},
{
closed = 1;
nodes = (
"107 -121 LINE",
"107 -54 LINE",
"42 -54 LINE",
"42 -126 LINE",
"68 -126 LINE",
"53 -185 LINE",
"86 -185 LINE"
);
}
);
width = 149;
}
);
unicode = 013C;
},
{
glyphname = ldot;
layers = (
{
layerId = "F91748D5-4F43-431E-9F22-86E8B42883B3";
name = Regular;
paths = (
{
closed = 1;
nodes = (
"106 0 LINE",
"106 639 LINE",
"43 639 LINE",
"43 0 LINE"
);
},
{
closed = 1;
nodes = (
"225 258 LINE",
"225 350 LINE",
"141 350 LINE",
"141 258 LINE"
);
}
);
width = 283;
}
);
unicode = 0140;
},
{
glyphname = lslash;
layers = (
{
layerId = "F91748D5-4F43-431E-9F22-86E8B42883B3";
name = Regular;
paths = (
{
closed = 1;
nodes = (
"106 335 LINE",
"106 639 LINE",
"43 639 LINE",
"43 279 LINE",
"-21 222 LINE",
"-21 167 LINE",
"43 221 LINE",
"43 0 LINE",
"106 0 LINE",
"106 277 LINE",
"185 347 LINE",
"185 405 LINE"
);
}
);
width = 149;
}
);
unicode = 0142;
},
{
glyphname = m;
layers = (
{
layerId = "F91748D5-4F43-431E-9F22-86E8B42883B3";
name = Regular;
paths = (
{
closed = 1;
nodes = (
"388 476 OFFCURVE",
"343 456 OFFCURVE",
"318 408 CURVE",
"301 456 OFFCURVE",
"265 476 OFFCURVE",
"219 476 CURVE SMOOTH",
"177 476 OFFCURVE",
"140 461 OFFCURVE",
"114 412 CURVE",
"109 412 LINE",
"99 465 LINE",
"54 465 LINE",
"54 0 LINE",
"117 0 LINE",
"117 283 LINE SMOOTH",
"117 371 OFFCURVE",
"157 420 OFFCURVE",
"202 420 CURVE SMOOTH",
"236 420 OFFCURVE",
"264 405 OFFCURVE",
"264 340 CURVE SMOOTH",
"264 0 LINE",
"328 0 LINE",
"328 281 LINE SMOOTH",
"328 370 OFFCURVE",
"366 420 OFFCURVE",
"411 420 CURVE SMOOTH",
"446 420 OFFCURVE",
"474 405 OFFCURVE",
"474 340 CURVE SMOOTH",
"474 0 LINE",
"537 0 LINE",
"537 338 LINE SMOOTH",
"537 438 OFFCURVE",
"494 476 OFFCURVE",
"428 476 CURVE SMOOTH"
);
}
);
width = 592;
}
);
unicode = 006D;
},
{
glyphname = n;
layers = (
{
anchors = (
{
name = bottom;
position = "{196, 0}";
},
{
name = top;
position = "{196, 465}";
}
);
layerId = "F91748D5-4F43-431E-9F22-86E8B42883B3";
name = Regular;
paths = (
{
closed = 1;
nodes = (
"181 476 OFFCURVE",
"141 461 OFFCURVE",
"114 412 CURVE",
"109 412 LINE",
"99 465 LINE",
"54 465 LINE",
"54 0 LINE",
"117 0 LINE",
"117 283 LINE SMOOTH",
"117 371 OFFCURVE",
"160 420 OFFCURVE",
"207 420 CURVE SMOOTH",
"247 420 OFFCURVE",
"275 405 OFFCURVE",
"275 340 CURVE SMOOTH",
"275 0 LINE",
"337 0 LINE",
"337 338 LINE SMOOTH",
"337 439 OFFCURVE",
"294 476 OFFCURVE",
"224 476 CURVE SMOOTH"
);
}
);
width = 391;
}
);
unicode = 006E;
},
{
glyphname = nacute;
layers = (
{
layerId = "F91748D5-4F43-431E-9F22-86E8B42883B3";
name = Regular;
paths = (
{
closed = 1;
nodes = (
"181 476 OFFCURVE",
"141 461 OFFCURVE",
"114 412 CURVE",
"109 412 LINE",
"99 465 LINE",
"54 465 LINE",
"54 0 LINE",
"117 0 LINE",
"117 283 LINE SMOOTH",
"117 371 OFFCURVE",
"160 420 OFFCURVE",
"207 420 CURVE SMOOTH",
"247 420 OFFCURVE",
"275 405 OFFCURVE",
"275 340 CURVE SMOOTH",
"275 0 LINE",
"337 0 LINE",
"337 338 LINE SMOOTH",
"337 439 OFFCURVE",
"294 476 OFFCURVE",
"224 476 CURVE SMOOTH"
);
},
{
closed = 1;
nodes = (
"292 639 LINE",
"221 639 LINE",
"145 522 LINE",
"198 522 LINE",
"293 636 LINE"
);
}
);
width = 391;
}
);
unicode = 0144;
},
{
glyphname = napostrophe;
layers = (
{
layerId = "F91748D5-4F43-431E-9F22-86E8B42883B3";
name = Regular;
paths = (
{
closed = 1;
nodes = (
"270 476 OFFCURVE",
"229 461 OFFCURVE",
"202 412 CURVE",
"197 412 LINE",
"187 465 LINE",
"142 465 LINE",
"142 0 LINE",
"205 0 LINE",
"205 283 LINE SMOOTH",
"205 371 OFFCURVE",
"249 420 OFFCURVE",
"295 420 CURVE SMOOTH",
"334 420 OFFCURVE",
"363 405 OFFCURVE",
"363 340 CURVE SMOOTH",
"363 0 LINE",
"425 0 LINE",
"425 338 LINE SMOOTH",
"425 439 OFFCURVE",
"382 476 OFFCURVE",
"314 476 CURVE SMOOTH"
);
},
{
closed = 1;
nodes = (
"103 606 LINE",
"37 606 LINE",
"37 533 LINE",
"63 533 LINE",
"46 473 LINE",
"81 473 LINE",
"103 538 LINE"
);
}
);
width = 480;
}
);
unicode = 0149;
},
{
glyphname = ncaron;
layers = (
{
layerId = "F91748D5-4F43-431E-9F22-86E8B42883B3";
name = Regular;
paths = (
{
closed = 1;
nodes = (
"181 476 OFFCURVE",
"141 461 OFFCURVE",
"114 412 CURVE",
"109 412 LINE",
"99 465 LINE",
"54 465 LINE",
"54 0 LINE",
"117 0 LINE",
"117 283 LINE SMOOTH",
"117 371 OFFCURVE",
"160 420 OFFCURVE",
"207 420 CURVE SMOOTH",
"247 420 OFFCURVE",
"275 405 OFFCURVE",
"275 340 CURVE SMOOTH",
"275 0 LINE",
"337 0 LINE",
"337 338 LINE SMOOTH",
"337 439 OFFCURVE",
"294 476 OFFCURVE",
"224 476 CURVE SMOOTH"
);
},
{
closed = 1;
nodes = (
"228 520 LINE",
"304 639 LINE",
"235 639 LINE",
"196 566 LINE",
"158 639 LINE",
"89 639 LINE",
"162 520 LINE"
);
}
);
width = 391;
}
);
unicode = 0148;
},
{
glyphname = ncommaaccent;
layers = (
{
layerId = "F91748D5-4F43-431E-9F22-86E8B42883B3";
name = Regular;
paths = (
{
closed = 1;
nodes = (
"181 476 OFFCURVE",
"141 461 OFFCURVE",
"114 412 CURVE",
"109 412 LINE",
"99 465 LINE",
"54 465 LINE",
"54 0 LINE",
"117 0 LINE",
"117 283 LINE SMOOTH",
"117 371 OFFCURVE",
"160 420 OFFCURVE",
"207 420 CURVE SMOOTH",
"247 420 OFFCURVE",
"275 405 OFFCURVE",
"275 340 CURVE SMOOTH",
"275 0 LINE",
"337 0 LINE",
"337 338 LINE SMOOTH",
"337 439 OFFCURVE",
"294 476 OFFCURVE",
"224 476 CURVE SMOOTH"
);
},
{
closed = 1;
nodes = (
"229 -121 LINE",
"229 -54 LINE",
"163 -54 LINE",
"163 -126 LINE",
"189 -126 LINE",
"172 -185 LINE",
"207 -185 LINE"
);
}
);
width = 391;
}
);
unicode = 0146;
},
{
glyphname = eng;
layers = (
{
layerId = "F91748D5-4F43-431E-9F22-86E8B42883B3";
name = Regular;
paths = (
{
closed = 1;
nodes = (
"181 476 OFFCURVE",
"141 461 OFFCURVE",
"114 412 CURVE",
"109 412 LINE",
"99 465 LINE",
"54 465 LINE",
"54 0 LINE",
"117 0 LINE",
"117 283 LINE SMOOTH",
"117 371 OFFCURVE",
"160 420 OFFCURVE",
"207 420 CURVE SMOOTH",
"247 420 OFFCURVE",
"275 405 OFFCURVE",
"275 340 CURVE SMOOTH",
"275 -65 LINE SMOOTH",
"275 -93 OFFCURVE",
"260 -108 OFFCURVE",
"233 -108 CURVE SMOOTH",
"194 -108 LINE",
"194 -150 LINE",
"208 -156 OFFCURVE",
"230 -161 OFFCURVE",
"250 -161 CURVE SMOOTH",
"316 -161 OFFCURVE",
"337 -110 OFFCURVE",
"337 -59 CURVE SMOOTH",
"337 338 LINE SMOOTH",
"337 439 OFFCURVE",
"294 476 OFFCURVE",
"224 476 CURVE SMOOTH"
);
}
);
width = 391;
}
);
unicode = 014B;
},
{
glyphname = ntilde;
layers = (
{
layerId = "F91748D5-4F43-431E-9F22-86E8B42883B3";
name = Regular;
paths = (
{
closed = 1;
nodes = (
"181 476 OFFCURVE",
"141 461 OFFCURVE",
"114 412 CURVE",
"109 412 LINE",
"99 465 LINE",
"54 465 LINE",
"54 0 LINE",
"117 0 LINE",
"117 283 LINE SMOOTH",
"117 371 OFFCURVE",
"160 420 OFFCURVE",
"207 420 CURVE SMOOTH",
"247 420 OFFCURVE",
"275 405 OFFCURVE",
"275 340 CURVE SMOOTH",
"275 0 LINE",
"337 0 LINE",
"337 338 LINE SMOOTH",
"337 439 OFFCURVE",
"294 476 OFFCURVE",
"224 476 CURVE SMOOTH"
);
},
{
closed = 1;
nodes = (
"270 639 LINE",
"268 620 OFFCURVE",
"256 614 OFFCURVE",
"241 614 CURVE SMOOTH",
"209 614 OFFCURVE",
"181 639 OFFCURVE",
"145 639 CURVE SMOOTH",
"94 639 OFFCURVE",
"72 590 OFFCURVE",
"72 552 CURVE",
"122 552 LINE",
"124 572 OFFCURVE",
"135 578 OFFCURVE",
"151 578 CURVE SMOOTH",
"183 578 OFFCURVE",
"211 552 OFFCURVE",
"247 552 CURVE SMOOTH",
"298 552 OFFCURVE",
"320 600 OFFCURVE",
"320 639 CURVE"
);
}
);
width = 391;
}
);
unicode = 00F1;
},
{
glyphname = o;
layers = (
{
anchors = (
{
name = top;
position = "{196, 465}";
}
);
layerId = "F91748D5-4F43-431E-9F22-86E8B42883B3";
name = Regular;
paths = (
{
closed = 1;
nodes = (
"92 476 OFFCURVE",
"35 400 OFFCURVE",
"35 232 CURVE SMOOTH",
"35 65 OFFCURVE",
"92 -11 OFFCURVE",
"196 -11 CURVE SMOOTH",
"300 -11 OFFCURVE",
"357 65 OFFCURVE",
"357 232 CURVE SMOOTH",
"357 400 OFFCURVE",
"300 476 OFFCURVE",
"196 476 CURVE SMOOTH"
);
},
{
closed = 1;
nodes = (
"257 418 OFFCURVE",
"290 361 OFFCURVE",
"290 249 CURVE SMOOTH",
"290 216 LINE SMOOTH",
"290 104 OFFCURVE",
"257 47 OFFCURVE",
"196 47 CURVE SMOOTH",
"133 47 OFFCURVE",
"100 104 OFFCURVE",
"100 216 CURVE SMOOTH",
"100 249 LINE SMOOTH",
"100 361 OFFCURVE",
"133 418 OFFCURVE",
"196 418 CURVE SMOOTH"
);
}
);
width = 391;
}
);
unicode = 006F;
},
{
glyphname = oacute;
layers = (
{
layerId = "F91748D5-4F43-431E-9F22-86E8B42883B3";
name = Regular;
paths = (
{
closed = 1;
nodes = (
"92 476 OFFCURVE",
"35 400 OFFCURVE",
"35 232 CURVE SMOOTH",
"35 65 OFFCURVE",
"92 -11 OFFCURVE",
"196 -11 CURVE SMOOTH",
"300 -11 OFFCURVE",
"357 65 OFFCURVE",
"357 232 CURVE SMOOTH",
"357 400 OFFCURVE",
"300 476 OFFCURVE",
"196 476 CURVE SMOOTH"
);
},
{
closed = 1;
nodes = (
"257 418 OFFCURVE",
"290 361 OFFCURVE",
"290 249 CURVE SMOOTH",
"290 216 LINE SMOOTH",
"290 104 OFFCURVE",
"257 47 OFFCURVE",
"196 47 CURVE SMOOTH",
"133 47 OFFCURVE",
"100 104 OFFCURVE",
"100 216 CURVE SMOOTH",
"100 249 LINE SMOOTH",
"100 361 OFFCURVE",
"133 418 OFFCURVE",
"196 418 CURVE SMOOTH"
);
},
{
closed = 1;
nodes = (
"292 639 LINE",
"221 639 LINE",
"145 522 LINE",
"198 522 LINE",
"293 636 LINE"
);
}
);
width = 391;
}
);
unicode = 00F3;
},
{
glyphname = obreve;
layers = (
{
layerId = "F91748D5-4F43-431E-9F22-86E8B42883B3";
name = Regular;
paths = (
{
closed = 1;
nodes = (
"92 476 OFFCURVE",
"35 400 OFFCURVE",
"35 232 CURVE SMOOTH",
"35 65 OFFCURVE",
"92 -11 OFFCURVE",
"196 -11 CURVE SMOOTH",
"300 -11 OFFCURVE",
"357 65 OFFCURVE",
"357 232 CURVE SMOOTH",
"357 400 OFFCURVE",
"300 476 OFFCURVE",
"196 476 CURVE SMOOTH"
);
},
{
closed = 1;
nodes = (
"257 418 OFFCURVE",
"290 361 OFFCURVE",
"290 249 CURVE SMOOTH",
"290 216 LINE SMOOTH",
"290 104 OFFCURVE",
"257 47 OFFCURVE",
"196 47 CURVE SMOOTH",
"133 47 OFFCURVE",
"100 104 OFFCURVE",
"100 216 CURVE SMOOTH",
"100 249 LINE SMOOTH",
"100 361 OFFCURVE",
"133 418 OFFCURVE",
"196 418 CURVE SMOOTH"
);
},
{
closed = 1;
nodes = (
"250 639 LINE",
"248 627 OFFCURVE",
"227 610 OFFCURVE",
"197 610 CURVE SMOOTH",
"165 610 OFFCURVE",
"147 627 OFFCURVE",
"143 639 CURVE",
"89 639 LINE",
"89 600 OFFCURVE",
"130 555 OFFCURVE",
"197 555 CURVE SMOOTH",
"263 555 OFFCURVE",
"303 600 OFFCURVE",
"303 639 CURVE"
);
}
);
width = 391;
}
);
unicode = 014F;
},
{
glyphname = ocircumflex;
layers = (
{
layerId = "F91748D5-4F43-431E-9F22-86E8B42883B3";
name = Regular;
paths = (
{
closed = 1;
nodes = (
"92 476 OFFCURVE",
"35 400 OFFCURVE",
"35 232 CURVE SMOOTH",
"35 65 OFFCURVE",
"92 -11 OFFCURVE",
"196 -11 CURVE SMOOTH",
"300 -11 OFFCURVE",
"357 65 OFFCURVE",
"357 232 CURVE SMOOTH",
"357 400 OFFCURVE",
"300 476 OFFCURVE",
"196 476 CURVE SMOOTH"
);
},
{
closed = 1;
nodes = (
"257 418 OFFCURVE",
"290 361 OFFCURVE",
"290 249 CURVE SMOOTH",
"290 216 LINE SMOOTH",
"290 104 OFFCURVE",
"257 47 OFFCURVE",
"196 47 CURVE SMOOTH",
"133 47 OFFCURVE",
"100 104 OFFCURVE",
"100 216 CURVE SMOOTH",
"100 249 LINE SMOOTH",
"100 361 OFFCURVE",
"133 418 OFFCURVE",
"196 418 CURVE SMOOTH"
);
},
{
closed = 1;
nodes = (
"304 519 LINE",
"229 638 LINE",
"164 638 LINE",
"89 519 LINE",
"158 519 LINE",
"196 591 LINE",
"235 519 LINE"
);
}
);
width = 391;
}
);
unicode = 00F4;
},
{
glyphname = odieresis;
layers = (
{
layerId = "F91748D5-4F43-431E-9F22-86E8B42883B3";
name = Regular;
paths = (
{
closed = 1;
nodes = (
"92 476 OFFCURVE",
"35 400 OFFCURVE",
"35 232 CURVE SMOOTH",
"35 65 OFFCURVE",
"92 -11 OFFCURVE",
"196 -11 CURVE SMOOTH",
"300 -11 OFFCURVE",
"357 65 OFFCURVE",
"357 232 CURVE SMOOTH",
"357 400 OFFCURVE",
"300 476 OFFCURVE",
"196 476 CURVE SMOOTH"
);
},
{
closed = 1;
nodes = (
"257 418 OFFCURVE",
"290 361 OFFCURVE",
"290 249 CURVE SMOOTH",
"290 216 LINE SMOOTH",
"290 104 OFFCURVE",
"257 47 OFFCURVE",
"196 47 CURVE SMOOTH",
"133 47 OFFCURVE",
"100 104 OFFCURVE",
"100 216 CURVE SMOOTH",
"100 249 LINE SMOOTH",
"100 361 OFFCURVE",
"133 418 OFFCURVE",
"196 418 CURVE SMOOTH"
);
},
{
closed = 1;
nodes = (
"169 639 LINE",
"95 639 LINE",
"95 559 LINE",
"169 559 LINE"
);
},
{
closed = 1;
nodes = (
"296 639 LINE",
"221 639 LINE",
"221 559 LINE",
"296 559 LINE"
);
}
);
width = 391;
}
);
unicode = 00F6;
},
{
glyphname = ograve;
layers = (
{
layerId = "F91748D5-4F43-431E-9F22-86E8B42883B3";
name = Regular;
paths = (
{
closed = 1;
nodes = (
"92 476 OFFCURVE",
"35 400 OFFCURVE",
"35 232 CURVE SMOOTH",
"35 65 OFFCURVE",
"92 -11 OFFCURVE",
"196 -11 CURVE SMOOTH",
"300 -11 OFFCURVE",
"357 65 OFFCURVE",
"357 232 CURVE SMOOTH",
"357 400 OFFCURVE",
"300 476 OFFCURVE",
"196 476 CURVE SMOOTH"
);
},
{
closed = 1;
nodes = (
"257 418 OFFCURVE",
"290 361 OFFCURVE",
"290 249 CURVE SMOOTH",
"290 216 LINE SMOOTH",
"290 104 OFFCURVE",
"257 47 OFFCURVE",
"196 47 CURVE SMOOTH",
"133 47 OFFCURVE",
"100 104 OFFCURVE",
"100 216 CURVE SMOOTH",
"100 249 LINE SMOOTH",
"100 361 OFFCURVE",
"133 418 OFFCURVE",
"196 418 CURVE SMOOTH"
);
},
{
closed = 1;
nodes = (
"171 639 LINE",
"97 639 LINE",
"96 636 LINE",
"194 522 LINE",
"247 522 LINE"
);
}
);
width = 391;
}
);
unicode = 00F2;
},
{
glyphname = ohungarumlaut;
layers = (
{
layerId = "F91748D5-4F43-431E-9F22-86E8B42883B3";
name = Regular;
paths = (
{
closed = 1;
nodes = (
"92 476 OFFCURVE",
"35 400 OFFCURVE",
"35 232 CURVE SMOOTH",
"35 65 OFFCURVE",
"92 -11 OFFCURVE",
"196 -11 CURVE SMOOTH",
"300 -11 OFFCURVE",
"357 65 OFFCURVE",
"357 232 CURVE SMOOTH",
"357 400 OFFCURVE",
"300 476 OFFCURVE",
"196 476 CURVE SMOOTH"
);
},
{
closed = 1;
nodes = (
"257 418 OFFCURVE",
"290 361 OFFCURVE",
"290 249 CURVE SMOOTH",
"290 216 LINE SMOOTH",
"290 104 OFFCURVE",
"257 47 OFFCURVE",
"196 47 CURVE SMOOTH",
"133 47 OFFCURVE",
"100 104 OFFCURVE",
"100 216 CURVE SMOOTH",
"100 249 LINE SMOOTH",
"100 361 OFFCURVE",
"133 418 OFFCURVE",
"196 418 CURVE SMOOTH"
);
},
{
closed = 1;
nodes = (
"398 636 LINE",
"397 639 LINE",
"319 639 LINE",
"264 522 LINE",
"322 522 LINE"
);
},
{
closed = 1;
nodes = (
"211 636 LINE",
"210 639 LINE",
"133 639 LINE",
"79 522 LINE",
"137 522 LINE"
);
}
);
width = 391;
}
);
unicode = 0151;
},
{
glyphname = omacron;
layers = (
{
layerId = "F91748D5-4F43-431E-9F22-86E8B42883B3";
name = Regular;
paths = (
{
closed = 1;
nodes = (
"92 476 OFFCURVE",
"35 400 OFFCURVE",
"35 232 CURVE SMOOTH",
"35 65 OFFCURVE",
"92 -11 OFFCURVE",
"196 -11 CURVE SMOOTH",
"300 -11 OFFCURVE",
"357 65 OFFCURVE",
"357 232 CURVE SMOOTH",
"357 400 OFFCURVE",
"300 476 OFFCURVE",
"196 476 CURVE SMOOTH"
);
},
{
closed = 1;
nodes = (
"257 418 OFFCURVE",
"290 361 OFFCURVE",
"290 249 CURVE SMOOTH",
"290 216 LINE SMOOTH",
"290 104 OFFCURVE",
"257 47 OFFCURVE",
"196 47 CURVE SMOOTH",
"133 47 OFFCURVE",
"100 104 OFFCURVE",
"100 216 CURVE SMOOTH",
"100 249 LINE SMOOTH",
"100 361 OFFCURVE",
"133 418 OFFCURVE",
"196 418 CURVE SMOOTH"
);
},
{
closed = 1;
nodes = (
"307 530 LINE",
"307 589 LINE",
"86 589 LINE",
"86 530 LINE"
);
}
);
width = 391;
}
);
unicode = 014D;
},
{
glyphname = oslash;
layers = (
{
anchors = (
{
name = top;
position = "{222, 465}";
}
);
layerId = "F91748D5-4F43-431E-9F22-86E8B42883B3";
name = Regular;
paths = (
{
closed = 1;
nodes = (
"385 493 LINE",
"342 493 LINE",
"316 445 LINE",
"290 466 OFFCURVE",
"259 476 OFFCURVE",
"221 476 CURVE SMOOTH",
"116 476 OFFCURVE",
"61 400 OFFCURVE",
"61 232 CURVE SMOOTH",
"61 150 OFFCURVE",
"74 89 OFFCURVE",
"99 50 CURVE",
"58 -28 LINE",
"101 -28 LINE",
"126 20 LINE",
"151 -1 OFFCURVE",
"183 -11 OFFCURVE",
"221 -11 CURVE SMOOTH",
"326 -11 OFFCURVE",
"381 65 OFFCURVE",
"381 232 CURVE SMOOTH",
"381 315 OFFCURVE",
"368 376 OFFCURVE",
"342 414 CURVE"
);
},
{
closed = 1;
nodes = (
"303 345 LINE",
"312 320 OFFCURVE",
"315 288 OFFCURVE",
"315 249 CURVE SMOOTH",
"315 216 LINE SMOOTH",
"315 104 OFFCURVE",
"282 47 OFFCURVE",
"220 47 CURVE SMOOTH",
"193 47 OFFCURVE",
"173 57 OFFCURVE",
"158 76 CURVE"
);
},
{
closed = 1;
nodes = (
"246 418 OFFCURVE",
"267 408 OFFCURVE",
"283 389 CURVE",
"137 118 LINE",
"128 144 OFFCURVE",
"126 177 OFFCURVE",
"126 216 CURVE SMOOTH",
"126 249 LINE SMOOTH",
"126 361 OFFCURVE",
"159 418 OFFCURVE",
"220 418 CURVE SMOOTH"
);
}
);
width = 443;
}
);
unicode = 00F8;
},
{
glyphname = oslashacute;
layers = (
{
layerId = "F91748D5-4F43-431E-9F22-86E8B42883B3";
name = Regular;
paths = (
{
closed = 1;
nodes = (
"385 493 LINE",
"342 493 LINE",
"316 445 LINE",
"290 466 OFFCURVE",
"259 476 OFFCURVE",
"221 476 CURVE SMOOTH",
"116 476 OFFCURVE",
"61 400 OFFCURVE",
"61 232 CURVE SMOOTH",
"61 150 OFFCURVE",
"74 89 OFFCURVE",
"99 50 CURVE",
"58 -28 LINE",
"101 -28 LINE",
"126 20 LINE",
"151 -1 OFFCURVE",
"183 -11 OFFCURVE",
"221 -11 CURVE SMOOTH",
"326 -11 OFFCURVE",
"381 65 OFFCURVE",
"381 232 CURVE SMOOTH",
"381 315 OFFCURVE",
"368 376 OFFCURVE",
"342 414 CURVE"
);
},
{
closed = 1;
nodes = (
"303 345 LINE",
"312 320 OFFCURVE",
"315 288 OFFCURVE",
"315 249 CURVE SMOOTH",
"315 216 LINE SMOOTH",
"315 104 OFFCURVE",
"282 47 OFFCURVE",
"220 47 CURVE SMOOTH",
"193 47 OFFCURVE",
"173 57 OFFCURVE",
"158 76 CURVE"
);
},
{
closed = 1;
nodes = (
"246 418 OFFCURVE",
"267 408 OFFCURVE",
"283 389 CURVE",
"137 118 LINE",
"128 144 OFFCURVE",
"126 177 OFFCURVE",
"126 216 CURVE SMOOTH",
"126 249 LINE SMOOTH",
"126 361 OFFCURVE",
"159 418 OFFCURVE",
"220 418 CURVE SMOOTH"
);
},
{
closed = 1;
nodes = (
"318 639 LINE",
"247 639 LINE",
"171 522 LINE",
"224 522 LINE",
"319 636 LINE"
);
}
);
width = 443;
}
);
unicode = 01FF;
},
{
glyphname = otilde;
layers = (
{
layerId = "F91748D5-4F43-431E-9F22-86E8B42883B3";
name = Regular;
paths = (
{
closed = 1;
nodes = (
"92 476 OFFCURVE",
"35 400 OFFCURVE",
"35 232 CURVE SMOOTH",
"35 65 OFFCURVE",
"92 -11 OFFCURVE",
"196 -11 CURVE SMOOTH",
"300 -11 OFFCURVE",
"357 65 OFFCURVE",
"357 232 CURVE SMOOTH",
"357 400 OFFCURVE",
"300 476 OFFCURVE",
"196 476 CURVE SMOOTH"
);
},
{
closed = 1;
nodes = (
"257 418 OFFCURVE",
"290 361 OFFCURVE",
"290 249 CURVE SMOOTH",
"290 216 LINE SMOOTH",
"290 104 OFFCURVE",
"257 47 OFFCURVE",
"196 47 CURVE SMOOTH",
"133 47 OFFCURVE",
"100 104 OFFCURVE",
"100 216 CURVE SMOOTH",
"100 249 LINE SMOOTH",
"100 361 OFFCURVE",
"133 418 OFFCURVE",
"196 418 CURVE SMOOTH"
);
},
{
closed = 1;
nodes = (
"270 639 LINE",
"268 620 OFFCURVE",
"256 614 OFFCURVE",
"241 614 CURVE SMOOTH",
"209 614 OFFCURVE",
"181 639 OFFCURVE",
"145 639 CURVE SMOOTH",
"94 639 OFFCURVE",
"72 590 OFFCURVE",
"72 552 CURVE",
"122 552 LINE",
"124 572 OFFCURVE",
"135 578 OFFCURVE",
"151 578 CURVE SMOOTH",
"183 578 OFFCURVE",
"211 552 OFFCURVE",
"247 552 CURVE SMOOTH",
"298 552 OFFCURVE",
"320 600 OFFCURVE",
"320 639 CURVE"
);
}
);
width = 391;
}
);
unicode = 00F5;
},
{
glyphname = oe;
layers = (
{
anchors = (
{
name = top;
position = "{342, 465}";
}
);
layerId = "F91748D5-4F43-431E-9F22-86E8B42883B3";
name = Regular;
paths = (
{
closed = 1;
nodes = (
"415 476 OFFCURVE",
"368 452 OFFCURVE",
"339 405 CURVE",
"313 452 OFFCURVE",
"269 476 OFFCURVE",
"210 476 CURVE SMOOTH",
"106 476 OFFCURVE",
"50 400 OFFCURVE",
"50 232 CURVE SMOOTH",
"50 65 OFFCURVE",
"106 -11 OFFCURVE",
"210 -11 CURVE SMOOTH",
"269 -11 OFFCURVE",
"313 12 OFFCURVE",
"339 60 CURVE",
"367 11 OFFCURVE",
"416 -11 OFFCURVE",
"481 -11 CURVE SMOOTH",
"570 -11 OFFCURVE",
"630 57 OFFCURVE",
"630 156 CURVE",
"567 156 LINE",
"567 90 OFFCURVE",
"533 48 OFFCURVE",
"484 48 CURVE SMOOTH",
"410 48 OFFCURVE",
"374 97 OFFCURVE",
"373 212 CURVE",
"630 212 LINE",
"630 264 LINE SMOOTH",
"630 417 OFFCURVE",
"580 476 OFFCURVE",
"481 476 CURVE SMOOTH"
);
},
{
closed = 1;
nodes = (
"272 418 OFFCURVE",
"305 361 OFFCURVE",
"305 249 CURVE SMOOTH",
"305 216 LINE SMOOTH",
"305 104 OFFCURVE",
"272 47 OFFCURVE",
"210 47 CURVE SMOOTH",
"149 47 OFFCURVE",
"116 104 OFFCURVE",
"116 216 CURVE SMOOTH",
"116 249 LINE SMOOTH",
"116 361 OFFCURVE",
"149 418 OFFCURVE",
"210 418 CURVE SMOOTH"
);
},
{
closed = 1;
nodes = (
"534 417 OFFCURVE",
"564 368 OFFCURVE",
"564 274 CURVE",
"374 274 LINE",
"381 369 OFFCURVE",
"410 417 OFFCURVE",
"481 417 CURVE SMOOTH"
);
}
);
width = 684;
}
);
unicode = 0153;
},
{
glyphname = p;
layers = (
{
layerId = "F91748D5-4F43-431E-9F22-86E8B42883B3";
name = Regular;
paths = (
{
closed = 1;
nodes = (
"171 476 OFFCURVE",
"135 453 OFFCURVE",
"113 412 CURVE",
"109 412 LINE",
"99 465 LINE",
"54 465 LINE",
"54 -153 LINE",
"117 -153 LINE",
"117 39 LINE",
"121 39 LINE",
"137 8 OFFCURVE",
"174 -11 OFFCURVE",
"219 -11 CURVE SMOOTH",
"294 -11 OFFCURVE",
"356 63 OFFCURVE",
"356 232 CURVE SMOOTH",
"356 403 OFFCURVE",
"301 476 OFFCURVE",
"214 476 CURVE SMOOTH"
);
},
{
closed = 1;
nodes = (
"260 420 OFFCURVE",
"290 374 OFFCURVE",
"290 249 CURVE SMOOTH",
"290 216 LINE SMOOTH",
"290 91 OFFCURVE",
"260 45 OFFCURVE",
"204 45 CURVE SMOOTH",
"146 45 OFFCURVE",
"117 102 OFFCURVE",
"117 216 CURVE SMOOTH",
"117 249 LINE SMOOTH",
"117 363 OFFCURVE",
"146 420 OFFCURVE",
"204 420 CURVE SMOOTH"
);
}
);
width = 391;
}
);
unicode = 0070;
},
{
glyphname = thorn;
layers = (
{
layerId = "F91748D5-4F43-431E-9F22-86E8B42883B3";
name = Regular;
paths = (
{
closed = 1;
nodes = (
"117 639 LINE",
"54 639 LINE",
"54 -153 LINE",
"117 -153 LINE",
"117 39 LINE",
"121 39 LINE",
"137 8 OFFCURVE",
"174 -11 OFFCURVE",
"219 -11 CURVE SMOOTH",
"294 -11 OFFCURVE",
"356 63 OFFCURVE",
"356 232 CURVE SMOOTH",
"356 403 OFFCURVE",
"301 476 OFFCURVE",
"214 476 CURVE SMOOTH",
"174 476 OFFCURVE",
"140 456 OFFCURVE",
"122 428 CURVE",
"117 429 LINE"
);
},
{
closed = 1;
nodes = (
"260 420 OFFCURVE",
"290 374 OFFCURVE",
"290 249 CURVE SMOOTH",
"290 216 LINE SMOOTH",
"290 91 OFFCURVE",
"260 45 OFFCURVE",
"204 45 CURVE SMOOTH",
"146 45 OFFCURVE",
"117 102 OFFCURVE",
"117 216 CURVE SMOOTH",
"117 249 LINE SMOOTH",
"117 363 OFFCURVE",
"146 420 OFFCURVE",
"204 420 CURVE SMOOTH"
);
}
);
width = 391;
}
);
unicode = 00FE;
},
{
glyphname = q;
layers = (
{
layerId = "F91748D5-4F43-431E-9F22-86E8B42883B3";
name = Regular;
paths = (
{
closed = 1;
nodes = (
"90 476 OFFCURVE",
"35 403 OFFCURVE",
"35 232 CURVE SMOOTH",
"35 63 OFFCURVE",
"97 -11 OFFCURVE",
"173 -11 CURVE SMOOTH",
"217 -11 OFFCURVE",
"254 8 OFFCURVE",
"270 39 CURVE",
"275 39 LINE",
"275 -153 LINE",
"337 -153 LINE",
"337 465 LINE",
"292 465 LINE",
"284 412 LINE",
"278 412 LINE",
"257 453 OFFCURVE",
"220 476 OFFCURVE",
"177 476 CURVE SMOOTH"
);
},
{
closed = 1;
nodes = (
"244 420 OFFCURVE",
"275 363 OFFCURVE",
"275 249 CURVE SMOOTH",
"275 216 LINE SMOOTH",
"275 102 OFFCURVE",
"244 45 OFFCURVE",
"187 45 CURVE SMOOTH",
"131 45 OFFCURVE",
"100 91 OFFCURVE",
"100 216 CURVE SMOOTH",
"100 249 LINE SMOOTH",
"100 374 OFFCURVE",
"131 420 OFFCURVE",
"187 420 CURVE SMOOTH"
);
}
);
width = 391;
}
);
unicode = 0071;
},
{
glyphname = r;
layers = (
{
anchors = (
{
name = bottom;
position = "{115, 0}";
},
{
name = top;
position = "{115, 465}";
}
);
layerId = "F91748D5-4F43-431E-9F22-86E8B42883B3";
name = Regular;
paths = (
{
closed = 1;
nodes = (
"148 476 OFFCURVE",
"124 440 OFFCURVE",
"113 406 CURVE",
"109 406 LINE",
"99 465 LINE",
"54 465 LINE",
"54 0 LINE",
"117 0 LINE",
"117 291 LINE SMOOTH",
"117 373 OFFCURVE",
"157 401 OFFCURVE",
"203 401 CURVE SMOOTH",
"223 401 LINE",
"223 469 LINE",
"223 469 OFFCURVE",
"208 476 OFFCURVE",
"192 476 CURVE SMOOTH"
);
}
);
width = 229;
}
);
unicode = 0072;
},
{
glyphname = racute;
layers = (
{
layerId = "F91748D5-4F43-431E-9F22-86E8B42883B3";
name = Regular;
paths = (
{
closed = 1;
nodes = (
"148 476 OFFCURVE",
"124 440 OFFCURVE",
"113 406 CURVE",
"109 406 LINE",
"99 465 LINE",
"54 465 LINE",
"54 0 LINE",
"117 0 LINE",
"117 291 LINE SMOOTH",
"117 373 OFFCURVE",
"157 401 OFFCURVE",
"203 401 CURVE SMOOTH",
"223 401 LINE",
"223 469 LINE",
"223 469 OFFCURVE",
"208 476 OFFCURVE",
"192 476 CURVE SMOOTH"
);
},
{
closed = 1;
nodes = (
"175 639 LINE",
"103 639 LINE",
"27 522 LINE",
"81 522 LINE",
"176 636 LINE"
);
}
);
width = 229;
}
);
unicode = 0155;
},
{
glyphname = rcaron;
layers = (
{
layerId = "F91748D5-4F43-431E-9F22-86E8B42883B3";
name = Regular;
paths = (
{
closed = 1;
nodes = (
"148 476 OFFCURVE",
"124 440 OFFCURVE",
"113 406 CURVE",
"109 406 LINE",
"99 465 LINE",
"54 465 LINE",
"54 0 LINE",
"117 0 LINE",
"117 291 LINE SMOOTH",
"117 373 OFFCURVE",
"157 401 OFFCURVE",
"203 401 CURVE SMOOTH",
"223 401 LINE",
"223 469 LINE",
"223 469 OFFCURVE",
"208 476 OFFCURVE",
"192 476 CURVE SMOOTH"
);
},
{
closed = 1;
nodes = (
"142 520 LINE",
"218 639 LINE",
"151 639 LINE",
"111 566 LINE",
"72 639 LINE",
"2 639 LINE",
"78 520 LINE"
);
}
);
width = 229;
}
);
unicode = 0159;
},
{
glyphname = rcommaaccent;
layers = (
{
layerId = "F91748D5-4F43-431E-9F22-86E8B42883B3";
name = Regular;
paths = (
{
closed = 1;
nodes = (
"148 476 OFFCURVE",
"124 440 OFFCURVE",
"113 406 CURVE",
"109 406 LINE",
"99 465 LINE",
"54 465 LINE",
"54 0 LINE",
"117 0 LINE",
"117 291 LINE SMOOTH",
"117 373 OFFCURVE",
"157 401 OFFCURVE",
"203 401 CURVE SMOOTH",
"223 401 LINE",
"223 469 LINE",
"223 469 OFFCURVE",
"208 476 OFFCURVE",
"192 476 CURVE SMOOTH"
);
},
{
closed = 1;
nodes = (
"126 -121 LINE",
"126 -54 LINE",
"60 -54 LINE",
"60 -126 LINE",
"87 -126 LINE",
"71 -185 LINE",
"106 -185 LINE"
);
}
);
width = 229;
}
);
unicode = 0157;
},
{
glyphname = s;
layers = (
{
anchors = (
{
name = bottom;
position = "{175, 0}";
},
{
name = top;
position = "{175, 465}";
}
);
layerId = "F91748D5-4F43-431E-9F22-86E8B42883B3";
name = Regular;
paths = (
{
closed = 1;
nodes = (
"92 476 OFFCURVE",
"41 424 OFFCURVE",
"41 346 CURVE SMOOTH",
"41 182 OFFCURVE",
"249 243 OFFCURVE",
"249 121 CURVE SMOOTH",
"249 74 OFFCURVE",
"217 46 OFFCURVE",
"176 46 CURVE SMOOTH",
"131 46 OFFCURVE",
"96 74 OFFCURVE",
"97 135 CURVE SMOOTH",
"97 144 LINE",
"30 144 LINE",
"30 142 OFFCURVE",
"29 137 OFFCURVE",
"29 123 CURVE SMOOTH",
"29 59 OFFCURVE",
"66 -11 OFFCURVE",
"173 -11 CURVE SMOOTH",
"254 -11 OFFCURVE",
"314 35 OFFCURVE",
"314 131 CURVE SMOOTH",
"314 301 OFFCURVE",
"106 245 OFFCURVE",
"106 349 CURVE SMOOTH",
"106 375 OFFCURVE",
"114 419 OFFCURVE",
"172 419 CURVE SMOOTH",
"226 419 OFFCURVE",
"240 378 OFFCURVE",
"239 341 CURVE SMOOTH",
"239 332 LINE",
"305 332 LINE",
"305 334 OFFCURVE",
"306 343 OFFCURVE",
"306 348 CURVE SMOOTH",
"306 413 OFFCURVE",
"265 476 OFFCURVE",
"180 476 CURVE SMOOTH"
);
}
);
width = 350;
}
);
unicode = 0073;
},
{
glyphname = sacute;
layers = (
{
layerId = "F91748D5-4F43-431E-9F22-86E8B42883B3";
name = Regular;
paths = (
{
closed = 1;
nodes = (
"92 476 OFFCURVE",
"41 424 OFFCURVE",
"41 346 CURVE SMOOTH",
"41 182 OFFCURVE",
"249 243 OFFCURVE",
"249 121 CURVE SMOOTH",
"249 74 OFFCURVE",
"217 46 OFFCURVE",
"176 46 CURVE SMOOTH",
"131 46 OFFCURVE",
"96 74 OFFCURVE",
"97 135 CURVE SMOOTH",
"97 144 LINE",
"30 144 LINE",
"30 142 OFFCURVE",
"29 137 OFFCURVE",
"29 123 CURVE SMOOTH",
"29 59 OFFCURVE",
"66 -11 OFFCURVE",
"173 -11 CURVE SMOOTH",
"254 -11 OFFCURVE",
"314 35 OFFCURVE",
"314 131 CURVE SMOOTH",
"314 301 OFFCURVE",
"106 245 OFFCURVE",
"106 349 CURVE SMOOTH",
"106 375 OFFCURVE",
"114 419 OFFCURVE",
"172 419 CURVE SMOOTH",
"226 419 OFFCURVE",
"240 378 OFFCURVE",
"239 341 CURVE SMOOTH",
"239 332 LINE",
"305 332 LINE",
"305 334 OFFCURVE",
"306 343 OFFCURVE",
"306 348 CURVE SMOOTH",
"306 413 OFFCURVE",
"265 476 OFFCURVE",
"180 476 CURVE SMOOTH"
);
},
{
closed = 1;
nodes = (
"272 639 LINE",
"200 639 LINE",
"125 522 LINE",
"178 522 LINE",
"273 636 LINE"
);
}
);
width = 350;
}
);
unicode = 015B;
},
{
glyphname = scaron;
layers = (
{
layerId = "F91748D5-4F43-431E-9F22-86E8B42883B3";
name = Regular;
paths = (
{
closed = 1;
nodes = (
"92 476 OFFCURVE",
"41 424 OFFCURVE",
"41 346 CURVE SMOOTH",
"41 182 OFFCURVE",
"249 243 OFFCURVE",
"249 121 CURVE SMOOTH",
"249 74 OFFCURVE",
"217 46 OFFCURVE",
"176 46 CURVE SMOOTH",
"131 46 OFFCURVE",
"96 74 OFFCURVE",
"97 135 CURVE SMOOTH",
"97 144 LINE",
"30 144 LINE",
"30 142 OFFCURVE",
"29 137 OFFCURVE",
"29 123 CURVE SMOOTH",
"29 59 OFFCURVE",
"66 -11 OFFCURVE",
"173 -11 CURVE SMOOTH",
"254 -11 OFFCURVE",
"314 35 OFFCURVE",
"314 131 CURVE SMOOTH",
"314 301 OFFCURVE",
"106 245 OFFCURVE",
"106 349 CURVE SMOOTH",
"106 375 OFFCURVE",
"114 419 OFFCURVE",
"172 419 CURVE SMOOTH",
"226 419 OFFCURVE",
"240 378 OFFCURVE",
"239 341 CURVE SMOOTH",
"239 332 LINE",
"305 332 LINE",
"305 334 OFFCURVE",
"306 343 OFFCURVE",
"306 348 CURVE SMOOTH",
"306 413 OFFCURVE",
"265 476 OFFCURVE",
"180 476 CURVE SMOOTH"
);
},
{
closed = 1;
nodes = (
"284 639 LINE",
"215 639 LINE",
"175 566 LINE",
"136 639 LINE",
"69 639 LINE",
"144 520 LINE",
"207 520 LINE"
);
}
);
width = 350;
}
);
unicode = 0161;
},
{
glyphname = scedilla;
layers = (
{
layerId = "F91748D5-4F43-431E-9F22-86E8B42883B3";
name = Regular;
paths = (
{
closed = 1;
nodes = (
"92 476 OFFCURVE",
"41 424 OFFCURVE",
"41 346 CURVE SMOOTH",
"41 182 OFFCURVE",
"249 243 OFFCURVE",
"249 121 CURVE SMOOTH",
"249 74 OFFCURVE",
"217 46 OFFCURVE",
"176 46 CURVE SMOOTH",
"131 46 OFFCURVE",
"96 74 OFFCURVE",
"97 135 CURVE SMOOTH",
"97 144 LINE",
"30 144 LINE",
"30 142 OFFCURVE",
"29 137 OFFCURVE",
"29 123 CURVE SMOOTH",
"29 65 OFFCURVE",
"59 3 OFFCURVE",
"143 -9 CURVE",
"134 -68 LINE",
"163 -68 LINE SMOOTH",
"186 -68 OFFCURVE",
"193 -75 OFFCURVE",
"193 -89 CURVE SMOOTH",
"193 -106 OFFCURVE",
"181 -111 OFFCURVE",
"161 -111 CURVE SMOOTH",
"92 -111 LINE",
"92 -154 LINE",
"113 -158 OFFCURVE",
"143 -161 OFFCURVE",
"166 -161 CURVE SMOOTH",
"203 -161 OFFCURVE",
"257 -149 OFFCURVE",
"257 -89 CURVE SMOOTH",
"257 -49 OFFCURVE",
"224 -35 OFFCURVE",
"186 -33 CURVE",
"188 -10 LINE",
"262 -4 OFFCURVE",
"314 40 OFFCURVE",
"314 131 CURVE SMOOTH",
"314 301 OFFCURVE",
"106 245 OFFCURVE",
"106 349 CURVE SMOOTH",
"106 375 OFFCURVE",
"114 419 OFFCURVE",
"172 419 CURVE SMOOTH",
"226 419 OFFCURVE",
"240 378 OFFCURVE",
"239 341 CURVE SMOOTH",
"239 332 LINE",
"305 332 LINE",
"305 334 OFFCURVE",
"306 343 OFFCURVE",
"306 348 CURVE SMOOTH",
"306 413 OFFCURVE",
"265 476 OFFCURVE",
"180 476 CURVE SMOOTH"
);
}
);
width = 350;
}
);
unicode = 015F;
},
{
glyphname = scircumflex;
layers = (
{
layerId = "F91748D5-4F43-431E-9F22-86E8B42883B3";
name = Regular;
paths = (
{
closed = 1;
nodes = (
"92 476 OFFCURVE",
"41 424 OFFCURVE",
"41 346 CURVE SMOOTH",
"41 182 OFFCURVE",
"249 243 OFFCURVE",
"249 121 CURVE SMOOTH",
"249 74 OFFCURVE",
"217 46 OFFCURVE",
"176 46 CURVE SMOOTH",
"131 46 OFFCURVE",
"96 74 OFFCURVE",
"97 135 CURVE SMOOTH",
"97 144 LINE",
"30 144 LINE",
"30 142 OFFCURVE",
"29 137 OFFCURVE",
"29 123 CURVE SMOOTH",
"29 59 OFFCURVE",
"66 -11 OFFCURVE",
"173 -11 CURVE SMOOTH",
"254 -11 OFFCURVE",
"314 35 OFFCURVE",
"314 131 CURVE SMOOTH",
"314 301 OFFCURVE",
"106 245 OFFCURVE",
"106 349 CURVE SMOOTH",
"106 375 OFFCURVE",
"114 419 OFFCURVE",
"172 419 CURVE SMOOTH",
"226 419 OFFCURVE",
"240 378 OFFCURVE",
"239 341 CURVE SMOOTH",
"239 332 LINE",
"305 332 LINE",
"305 334 OFFCURVE",
"306 343 OFFCURVE",
"306 348 CURVE SMOOTH",
"306 413 OFFCURVE",
"265 476 OFFCURVE",
"180 476 CURVE SMOOTH"
);
},
{
closed = 1;
nodes = (
"209 638 LINE",
"145 638 LINE",
"69 519 LINE",
"136 519 LINE",
"176 591 LINE",
"215 519 LINE",
"284 519 LINE"
);
}
);
width = 350;
}
);
unicode = 015D;
},
{
glyphname = germandbls;
layers = (
{
layerId = "F91748D5-4F43-431E-9F22-86E8B42883B3";
name = Regular;
paths = (
{
closed = 1;
nodes = (
"126 650 OFFCURVE",
"47 594 OFFCURVE",
"47 455 CURVE SMOOTH",
"47 0 LINE",
"110 0 LINE",
"110 455 LINE SMOOTH",
"110 546 OFFCURVE",
"153 592 OFFCURVE",
"220 592 CURVE SMOOTH",
"288 592 OFFCURVE",
"323 549 OFFCURVE",
"323 482 CURVE SMOOTH",
"323 421 OFFCURVE",
"275 370 OFFCURVE",
"216 370 CURVE SMOOTH",
"161 370 LINE",
"161 316 LINE",
"224 316 LINE SMOOTH",
"290 316 OFFCURVE",
"342 259 OFFCURVE",
"342 190 CURVE SMOOTH",
"342 117 OFFCURVE",
"290 58 OFFCURVE",
"224 58 CURVE SMOOTH",
"161 58 LINE",
"161 0 LINE",
"230 0 LINE SMOOTH",
"329 0 OFFCURVE",
"407 75 OFFCURVE",
"407 189 CURVE SMOOTH",
"407 257 OFFCURVE",
"365 324 OFFCURVE",
"305 346 CURVE",
"305 349 LINE",
"354 369 OFFCURVE",
"389 426 OFFCURVE",
"389 484 CURVE SMOOTH",
"389 588 OFFCURVE",
"319 650 OFFCURVE",
"225 650 CURVE SMOOTH"
);
}
);
width = 443;
}
);
unicode = 00DF;
},
{
glyphname = longs;
layers = (
{
layerId = "F91748D5-4F43-431E-9F22-86E8B42883B3";
name = Regular;
paths = (
{
closed = 1;
nodes = (
"67 646 OFFCURVE",
"47 595 OFFCURVE",
"47 544 CURVE SMOOTH",
"47 465 LINE",
"8 465 LINE",
"8 407 LINE",
"47 407 LINE",
"47 0 LINE",
"109 0 LINE",
"109 550 LINE SMOOTH",
"109 578 OFFCURVE",
"124 593 OFFCURVE",
"153 593 CURVE SMOOTH",
"191 593 LINE",
"191 636 LINE",
"176 641 OFFCURVE",
"154 646 OFFCURVE",
"134 646 CURVE SMOOTH"
);
}
);
width = 149;
}
);
unicode = 017F;
},
{
glyphname = t;
layers = (
{
anchors = (
{
name = bottom;
position = "{110, 0}";
},
{
name = center;
position = "{95, 232}";
}
);
layerId = "F91748D5-4F43-431E-9F22-86E8B42883B3";
name = Regular;
paths = (
{
closed = 1;
nodes = (
"114 465 LINE",
"114 593 LINE",
"67 593 LINE",
"51 465 LINE",
"13 465 LINE",
"13 407 LINE",
"51 407 LINE",
"51 93 LINE SMOOTH",
"51 43 OFFCURVE",
"69 -8 OFFCURVE",
"126 -8 CURVE SMOOTH",
"143 -8 OFFCURVE",
"164 -4 OFFCURVE",
"175 5 CURVE",
"175 47 LINE",
"156 47 LINE SMOOTH",
"129 47 OFFCURVE",
"114 62 OFFCURVE",
"114 90 CURVE SMOOTH",
"114 407 LINE",
"175 407 LINE",
"175 465 LINE"
);
}
);
width = 191;
}
);
unicode = 0074;
},
{
glyphname = tbar;
layers = (
{
layerId = "F91748D5-4F43-431E-9F22-86E8B42883B3";
name = Regular;
paths = (
{
closed = 1;
nodes = (
"114 593 LINE",
"67 593 LINE",
"51 465 LINE",
"13 465 LINE",
"13 407 LINE",
"51 407 LINE",
"51 309 LINE",
"15 309 LINE",
"15 253 LINE",
"51 253 LINE",
"51 93 LINE SMOOTH",
"51 43 OFFCURVE",
"69 -8 OFFCURVE",
"126 -8 CURVE SMOOTH",
"143 -8 OFFCURVE",
"164 -4 OFFCURVE",
"175 5 CURVE",
"175 47 LINE",
"156 47 LINE SMOOTH",
"129 47 OFFCURVE",
"114 62 OFFCURVE",
"114 90 CURVE SMOOTH",
"114 253 LINE",
"170 253 LINE",
"170 309 LINE",
"114 309 LINE",
"114 407 LINE",
"175 407 LINE",
"175 465 LINE",
"114 465 LINE"
);
}
);
width = 191;
}
);
unicode = 0167;
},
{
glyphname = tcaron;
layers = (
{
layerId = "F91748D5-4F43-431E-9F22-86E8B42883B3";
name = Regular;
paths = (
{
closed = 1;
nodes = (
"114 465 LINE",
"114 593 LINE",
"67 593 LINE",
"51 465 LINE",
"13 465 LINE",
"13 407 LINE",
"51 407 LINE",
"51 93 LINE SMOOTH",
"51 43 OFFCURVE",
"69 -8 OFFCURVE",
"126 -8 CURVE SMOOTH",
"143 -8 OFFCURVE",
"164 -4 OFFCURVE",
"175 5 CURVE",
"175 47 LINE",
"156 47 LINE SMOOTH",
"129 47 OFFCURVE",
"114 62 OFFCURVE",
"114 90 CURVE SMOOTH",
"114 407 LINE",
"175 407 LINE",
"175 465 LINE"
);
},
{
closed = 1;
nodes = (
"290 526 LINE",
"290 606 LINE",
"210 606 LINE",
"210 519 LINE",
"241 519 LINE",
"207 408 LINE",
"248 408 LINE"
);
}
);
width = 249;
}
);
unicode = 0165;
},
{
glyphname = tcommaaccent;
layers = (
{
layerId = "F91748D5-4F43-431E-9F22-86E8B42883B3";
name = Regular;
paths = (
{
closed = 1;
nodes = (
"114 465 LINE",
"114 593 LINE",
"67 593 LINE",
"51 465 LINE",
"13 465 LINE",
"13 407 LINE",
"51 407 LINE",
"51 93 LINE SMOOTH",
"51 43 OFFCURVE",
"69 -8 OFFCURVE",
"126 -8 CURVE SMOOTH",
"143 -8 OFFCURVE",
"164 -4 OFFCURVE",
"175 5 CURVE",
"175 47 LINE",
"156 47 LINE SMOOTH",
"129 47 OFFCURVE",
"114 62 OFFCURVE",
"114 90 CURVE SMOOTH",
"114 407 LINE",
"175 407 LINE",
"175 465 LINE"
);
},
{
closed = 1;
nodes = (
"128 -121 LINE",
"128 -54 LINE",
"63 -54 LINE",
"63 -126 LINE",
"89 -126 LINE",
"71 -185 LINE",
"106 -185 LINE"
);
}
);
width = 191;
}
);
unicode = 021B;
},
{
glyphname = u;
layers = (
{
anchors = (
{
name = ogonek;
position = "{351, 9}";
},
{
name = top;
position = "{196, 465}";
}
);
layerId = "F91748D5-4F43-431E-9F22-86E8B42883B3";
name = Regular;
paths = (
{
closed = 1;
nodes = (
"337 0 LINE",
"337 465 LINE",
"275 465 LINE",
"275 182 LINE SMOOTH",
"275 94 OFFCURVE",
"231 45 OFFCURVE",
"183 45 CURVE SMOOTH",
"145 45 OFFCURVE",
"117 60 OFFCURVE",
"117 125 CURVE SMOOTH",
"117 465 LINE",
"54 465 LINE",
"54 127 LINE SMOOTH",
"54 26 OFFCURVE",
"97 -11 OFFCURVE",
"167 -11 CURVE SMOOTH",
"210 -11 OFFCURVE",
"252 4 OFFCURVE",
"277 53 CURVE",
"283 53 LINE",
"292 0 LINE"
);
}
);
width = 391;
}
);
unicode = 0075;
},
{
glyphname = uacute;
layers = (
{
layerId = "F91748D5-4F43-431E-9F22-86E8B42883B3";
name = Regular;
paths = (
{
closed = 1;
nodes = (
"337 465 LINE",
"275 465 LINE",
"275 182 LINE SMOOTH",
"275 94 OFFCURVE",
"231 45 OFFCURVE",
"183 45 CURVE SMOOTH",
"145 45 OFFCURVE",
"117 60 OFFCURVE",
"117 125 CURVE SMOOTH",
"117 465 LINE",
"54 465 LINE",
"54 127 LINE SMOOTH",
"54 26 OFFCURVE",
"97 -11 OFFCURVE",
"167 -11 CURVE SMOOTH",
"210 -11 OFFCURVE",
"252 4 OFFCURVE",
"277 53 CURVE",
"283 53 LINE",
"292 0 LINE",
"337 0 LINE"
);
},
{
closed = 1;
nodes = (
"292 639 LINE",
"221 639 LINE",
"145 522 LINE",
"198 522 LINE",
"293 636 LINE"
);
}
);
width = 391;
}
);
unicode = 00FA;
},
{
glyphname = ubreve;
layers = (
{
layerId = "F91748D5-4F43-431E-9F22-86E8B42883B3";
name = Regular;
paths = (
{
closed = 1;
nodes = (
"337 0 LINE",
"337 465 LINE",
"275 465 LINE",
"275 182 LINE SMOOTH",
"275 94 OFFCURVE",
"231 45 OFFCURVE",
"183 45 CURVE SMOOTH",
"145 45 OFFCURVE",
"117 60 OFFCURVE",
"117 125 CURVE SMOOTH",
"117 465 LINE",
"54 465 LINE",
"54 127 LINE SMOOTH",
"54 26 OFFCURVE",
"97 -11 OFFCURVE",
"167 -11 CURVE SMOOTH",
"210 -11 OFFCURVE",
"252 4 OFFCURVE",
"277 53 CURVE",
"283 53 LINE",
"292 0 LINE"
);
},
{
closed = 1;
nodes = (
"250 639 LINE",
"248 627 OFFCURVE",
"227 610 OFFCURVE",
"197 610 CURVE SMOOTH",
"165 610 OFFCURVE",
"147 627 OFFCURVE",
"143 639 CURVE",
"89 639 LINE",
"89 600 OFFCURVE",
"130 555 OFFCURVE",
"197 555 CURVE SMOOTH",
"263 555 OFFCURVE",
"303 600 OFFCURVE",
"303 639 CURVE"
);
}
);
width = 391;
}
);
unicode = 016D;
},
{
glyphname = ucircumflex;
layers = (
{
layerId = "F91748D5-4F43-431E-9F22-86E8B42883B3";
name = Regular;
paths = (
{
closed = 1;
nodes = (
"337 0 LINE",
"337 465 LINE",
"275 465 LINE",
"275 182 LINE SMOOTH",
"275 94 OFFCURVE",
"231 45 OFFCURVE",
"183 45 CURVE SMOOTH",
"145 45 OFFCURVE",
"117 60 OFFCURVE",
"117 125 CURVE SMOOTH",
"117 465 LINE",
"54 465 LINE",
"54 127 LINE SMOOTH",
"54 26 OFFCURVE",
"97 -11 OFFCURVE",
"167 -11 CURVE SMOOTH",
"210 -11 OFFCURVE",
"252 4 OFFCURVE",
"277 53 CURVE",
"283 53 LINE",
"292 0 LINE"
);
},
{
closed = 1;
nodes = (
"304 519 LINE",
"229 638 LINE",
"164 638 LINE",
"89 519 LINE",
"158 519 LINE",
"196 591 LINE",
"235 519 LINE"
);
}
);
width = 391;
}
);
unicode = 00FB;
},
{
glyphname = udieresis;
layers = (
{
layerId = "F91748D5-4F43-431E-9F22-86E8B42883B3";
name = Regular;
paths = (
{
closed = 1;
nodes = (
"337 465 LINE",
"275 465 LINE",
"275 182 LINE SMOOTH",
"275 94 OFFCURVE",
"231 45 OFFCURVE",
"183 45 CURVE SMOOTH",
"145 45 OFFCURVE",
"117 60 OFFCURVE",
"117 125 CURVE SMOOTH",
"117 465 LINE",
"54 465 LINE",
"54 127 LINE SMOOTH",
"54 26 OFFCURVE",
"97 -11 OFFCURVE",
"167 -11 CURVE SMOOTH",
"210 -11 OFFCURVE",
"252 4 OFFCURVE",
"277 53 CURVE",
"283 53 LINE",
"292 0 LINE",
"337 0 LINE"
);
},
{
closed = 1;
nodes = (
"169 639 LINE",
"95 639 LINE",
"95 559 LINE",
"169 559 LINE"
);
},
{
closed = 1;
nodes = (
"296 639 LINE",
"221 639 LINE",
"221 559 LINE",
"296 559 LINE"
);
}
);
width = 391;
}
);
unicode = 00FC;
},
{
glyphname = ugrave;
layers = (
{
layerId = "F91748D5-4F43-431E-9F22-86E8B42883B3";
name = Regular;
paths = (
{
closed = 1;
nodes = (
"337 465 LINE",
"275 465 LINE",
"275 182 LINE SMOOTH",
"275 94 OFFCURVE",
"231 45 OFFCURVE",
"183 45 CURVE SMOOTH",
"145 45 OFFCURVE",
"117 60 OFFCURVE",
"117 125 CURVE SMOOTH",
"117 465 LINE",
"54 465 LINE",
"54 127 LINE SMOOTH",
"54 26 OFFCURVE",
"97 -11 OFFCURVE",
"167 -11 CURVE SMOOTH",
"210 -11 OFFCURVE",
"252 4 OFFCURVE",
"277 53 CURVE",
"283 53 LINE",
"292 0 LINE",
"337 0 LINE"
);
},
{
closed = 1;
nodes = (
"171 639 LINE",
"97 639 LINE",
"96 636 LINE",
"194 522 LINE",
"247 522 LINE"
);
}
);
width = 391;
}
);
unicode = 00F9;
},
{
glyphname = uhungarumlaut;
layers = (
{
layerId = "F91748D5-4F43-431E-9F22-86E8B42883B3";
name = Regular;
paths = (
{
closed = 1;
nodes = (
"337 465 LINE",
"275 465 LINE",
"275 182 LINE SMOOTH",
"275 94 OFFCURVE",
"231 45 OFFCURVE",
"183 45 CURVE SMOOTH",
"145 45 OFFCURVE",
"117 60 OFFCURVE",
"117 125 CURVE SMOOTH",
"117 465 LINE",
"54 465 LINE",
"54 127 LINE SMOOTH",
"54 26 OFFCURVE",
"97 -11 OFFCURVE",
"167 -11 CURVE SMOOTH",
"210 -11 OFFCURVE",
"252 4 OFFCURVE",
"277 53 CURVE",
"283 53 LINE",
"292 0 LINE",
"337 0 LINE"
);
},
{
closed = 1;
nodes = (
"247 639 LINE",
"170 639 LINE",
"116 522 LINE",
"174 522 LINE",
"248 636 LINE"
);
},
{
closed = 1;
nodes = (
"361 639 LINE",
"283 639 LINE",
"228 522 LINE",
"286 522 LINE",
"362 636 LINE"
);
}
);
width = 391;
}
);
unicode = 0171;
},
{
glyphname = umacron;
layers = (
{
layerId = "F91748D5-4F43-431E-9F22-86E8B42883B3";
name = Regular;
paths = (
{
closed = 1;
nodes = (
"337 0 LINE",
"337 465 LINE",
"275 465 LINE",
"275 182 LINE SMOOTH",
"275 94 OFFCURVE",
"231 45 OFFCURVE",
"183 45 CURVE SMOOTH",
"145 45 OFFCURVE",
"117 60 OFFCURVE",
"117 125 CURVE SMOOTH",
"117 465 LINE",
"54 465 LINE",
"54 127 LINE SMOOTH",
"54 26 OFFCURVE",
"97 -11 OFFCURVE",
"167 -11 CURVE SMOOTH",
"210 -11 OFFCURVE",
"252 4 OFFCURVE",
"277 53 CURVE",
"283 53 LINE",
"292 0 LINE"
);
},
{
closed = 1;
nodes = (
"307 530 LINE",
"307 589 LINE",
"86 589 LINE",
"86 530 LINE"
);
}
);
width = 391;
}
);
unicode = 016B;
},
{
glyphname = uogonek;
layers = (
{
layerId = "F91748D5-4F43-431E-9F22-86E8B42883B3";
name = Regular;
paths = (
{
closed = 1;
nodes = (
"337 465 LINE",
"275 465 LINE",
"275 182 LINE SMOOTH",
"275 94 OFFCURVE",
"231 45 OFFCURVE",
"183 45 CURVE SMOOTH",
"145 45 OFFCURVE",
"117 60 OFFCURVE",
"117 125 CURVE SMOOTH",
"117 465 LINE",
"54 465 LINE",
"54 127 LINE SMOOTH",
"54 26 OFFCURVE",
"97 -11 OFFCURVE",
"167 -11 CURVE SMOOTH",
"210 -11 OFFCURVE",
"252 4 OFFCURVE",
"277 53 CURVE",
"283 53 LINE",
"292 0 LINE",
"294 0 LINE",
"286 4 LINE",
"268 -16 OFFCURVE",
"254 -41 OFFCURVE",
"254 -79 CURVE SMOOTH",
"254 -140 OFFCURVE",
"298 -159 OFFCURVE",
"335 -159 CURVE SMOOTH",
"353 -159 OFFCURVE",
"369 -154 OFFCURVE",
"388 -147 CURVE",
"388 -102 LINE",
"357 -102 LINE SMOOTH",
"327 -102 OFFCURVE",
"317 -79 OFFCURVE",
"317 -53 CURVE SMOOTH",
"317 -33 OFFCURVE",
"327 -13 OFFCURVE",
"337 0 CURVE"
);
}
);
width = 391;
}
);
unicode = 0173;
},
{
glyphname = uring;
layers = (
{
layerId = "F91748D5-4F43-431E-9F22-86E8B42883B3";
name = Regular;
paths = (
{
closed = 1;
nodes = (
"337 0 LINE",
"337 465 LINE",
"275 465 LINE",
"275 182 LINE SMOOTH",
"275 94 OFFCURVE",
"231 45 OFFCURVE",
"183 45 CURVE SMOOTH",
"145 45 OFFCURVE",
"117 60 OFFCURVE",
"117 125 CURVE SMOOTH",
"117 465 LINE",
"54 465 LINE",
"54 127 LINE SMOOTH",
"54 26 OFFCURVE",
"97 -11 OFFCURVE",
"167 -11 CURVE SMOOTH",
"210 -11 OFFCURVE",
"252 4 OFFCURVE",
"277 53 CURVE",
"283 53 LINE",
"292 0 LINE"
);
},
{
closed = 1;
nodes = (
"149 667 OFFCURVE",
"111 629 OFFCURVE",
"111 584 CURVE SMOOTH",
"111 534 OFFCURVE",
"150 497 OFFCURVE",
"196 497 CURVE SMOOTH",
"242 497 OFFCURVE",
"280 535 OFFCURVE",
"280 584 CURVE SMOOTH",
"280 628 OFFCURVE",
"243 667 OFFCURVE",
"196 667 CURVE SMOOTH"
);
},
{
closed = 1;
nodes = (
"220 629 OFFCURVE",
"243 608 OFFCURVE",
"243 584 CURVE SMOOTH",
"243 558 OFFCURVE",
"220 536 OFFCURVE",
"196 536 CURVE SMOOTH",
"171 536 OFFCURVE",
"149 558 OFFCURVE",
"149 584 CURVE SMOOTH",
"149 608 OFFCURVE",
"171 629 OFFCURVE",
"196 629 CURVE SMOOTH"
);
}
);
width = 391;
}
);
unicode = 016F;
},
{
glyphname = utilde;
layers = (
{
layerId = "F91748D5-4F43-431E-9F22-86E8B42883B3";
name = Regular;
paths = (
{
closed = 1;
nodes = (
"337 0 LINE",
"337 465 LINE",
"275 465 LINE",
"275 182 LINE SMOOTH",
"275 94 OFFCURVE",
"231 45 OFFCURVE",
"183 45 CURVE SMOOTH",
"145 45 OFFCURVE",
"117 60 OFFCURVE",
"117 125 CURVE SMOOTH",
"117 465 LINE",
"54 465 LINE",
"54 127 LINE SMOOTH",
"54 26 OFFCURVE",
"97 -11 OFFCURVE",
"167 -11 CURVE SMOOTH",
"210 -11 OFFCURVE",
"252 4 OFFCURVE",
"277 53 CURVE",
"283 53 LINE",
"292 0 LINE"
);
},
{
closed = 1;
nodes = (
"270 639 LINE",
"268 620 OFFCURVE",
"256 614 OFFCURVE",
"241 614 CURVE SMOOTH",
"209 614 OFFCURVE",
"181 639 OFFCURVE",
"145 639 CURVE SMOOTH",
"94 639 OFFCURVE",
"72 590 OFFCURVE",
"72 552 CURVE",
"122 552 LINE",
"124 572 OFFCURVE",
"135 578 OFFCURVE",
"151 578 CURVE SMOOTH",
"183 578 OFFCURVE",
"211 552 OFFCURVE",
"247 552 CURVE SMOOTH",
"298 552 OFFCURVE",
"320 600 OFFCURVE",
"320 639 CURVE"
);
}
);
width = 391;
}
);
unicode = 0169;
},
{
glyphname = v;
layers = (
{
layerId = "F91748D5-4F43-431E-9F22-86E8B42883B3";
name = Regular;
paths = (
{
closed = 1;
nodes = (
"340 465 LINE",
"277 465 LINE",
"212 213 LINE SMOOTH",
"202 178 OFFCURVE",
"189 142 OFFCURVE",
"180 107 CURVE",
"176 107 LINE",
"165 144 OFFCURVE",
"155 179 OFFCURVE",
"145 216 CURVE SMOOTH",
"80 465 LINE",
"10 465 LINE",
"140 0 LINE",
"211 0 LINE"
);
}
);
width = 350;
}
);
unicode = 0076;
},
{
glyphname = w;
layers = (
{
anchors = (
{
name = top;
position = "{256, 465}";
}
);
layerId = "F91748D5-4F43-431E-9F22-86E8B42883B3";
name = Regular;
paths = (
{
closed = 1;
nodes = (
"393 0 LINE",
"510 465 LINE",
"443 465 LINE",
"380 183 LINE SMOOTH",
"367 129 OFFCURVE",
"362 83 OFFCURVE",
"362 83 CURVE SMOOTH",
"359 83 LINE SMOOTH",
"359 83 OFFCURVE",
"354 135 OFFCURVE",
"347 183 CURVE SMOOTH",
"296 465 LINE",
"219 465 LINE",
"170 182 LINE SMOOTH",
"163 141 OFFCURVE",
"157 83 OFFCURVE",
"157 83 CURVE SMOOTH",
"153 83 LINE SMOOTH",
"153 83 OFFCURVE",
"143 151 OFFCURVE",
"135 182 CURVE SMOOTH",
"72 465 LINE",
"1 465 LINE",
"118 0 LINE",
"190 0 LINE",
"239 277 LINE SMOOTH",
"248 327 OFFCURVE",
"253 382 OFFCURVE",
"253 382 CURVE",
"257 382 LINE",
"257 382 OFFCURVE",
"262 326 OFFCURVE",
"271 278 CURVE SMOOTH",
"319 0 LINE"
);
}
);
width = 511;
}
);
unicode = 0077;
},
{
glyphname = wacute;
layers = (
{
layerId = "F91748D5-4F43-431E-9F22-86E8B42883B3";
name = Regular;
paths = (
{
closed = 1;
nodes = (
"510 465 LINE",
"443 465 LINE",
"380 183 LINE SMOOTH",
"367 129 OFFCURVE",
"362 83 OFFCURVE",
"362 83 CURVE SMOOTH",
"359 83 LINE SMOOTH",
"359 83 OFFCURVE",
"354 135 OFFCURVE",
"347 183 CURVE SMOOTH",
"296 465 LINE",
"219 465 LINE",
"170 182 LINE SMOOTH",
"163 141 OFFCURVE",
"157 83 OFFCURVE",
"157 83 CURVE SMOOTH",
"153 83 LINE SMOOTH",
"153 83 OFFCURVE",
"143 151 OFFCURVE",
"135 182 CURVE SMOOTH",
"72 465 LINE",
"1 465 LINE",
"118 0 LINE",
"190 0 LINE",
"239 277 LINE SMOOTH",
"248 327 OFFCURVE",
"253 382 OFFCURVE",
"253 382 CURVE",
"257 382 LINE",
"257 382 OFFCURVE",
"262 326 OFFCURVE",
"271 278 CURVE SMOOTH",
"319 0 LINE",
"393 0 LINE"
);
},
{
closed = 1;
nodes = (
"352 639 LINE",
"281 639 LINE",
"205 522 LINE",
"259 522 LINE",
"353 636 LINE"
);
}
);
width = 511;
}
);
unicode = 1E83;
},
{
glyphname = wcircumflex;
layers = (
{
layerId = "F91748D5-4F43-431E-9F22-86E8B42883B3";
name = Regular;
paths = (
{
closed = 1;
nodes = (
"393 0 LINE",
"510 465 LINE",
"443 465 LINE",
"380 183 LINE SMOOTH",
"367 129 OFFCURVE",
"362 83 OFFCURVE",
"362 83 CURVE SMOOTH",
"359 83 LINE SMOOTH",
"359 83 OFFCURVE",
"354 135 OFFCURVE",
"347 183 CURVE SMOOTH",
"296 465 LINE",
"219 465 LINE",
"170 182 LINE SMOOTH",
"163 141 OFFCURVE",
"157 83 OFFCURVE",
"157 83 CURVE SMOOTH",
"153 83 LINE SMOOTH",
"153 83 OFFCURVE",
"143 151 OFFCURVE",
"135 182 CURVE SMOOTH",
"72 465 LINE",
"1 465 LINE",
"118 0 LINE",
"190 0 LINE",
"239 277 LINE SMOOTH",
"248 327 OFFCURVE",
"253 382 OFFCURVE",
"253 382 CURVE",
"257 382 LINE",
"257 382 OFFCURVE",
"262 326 OFFCURVE",
"271 278 CURVE SMOOTH",
"319 0 LINE"
);
},
{
closed = 1;
nodes = (
"363 519 LINE",
"287 638 LINE",
"223 638 LINE",
"147 519 LINE",
"216 519 LINE",
"257 591 LINE",
"295 519 LINE"
);
}
);
width = 511;
}
);
unicode = 0175;
},
{
glyphname = wdieresis;
layers = (
{
layerId = "F91748D5-4F43-431E-9F22-86E8B42883B3";
name = Regular;
paths = (
{
closed = 1;
nodes = (
"510 465 LINE",
"443 465 LINE",
"380 183 LINE SMOOTH",
"367 129 OFFCURVE",
"362 83 OFFCURVE",
"362 83 CURVE SMOOTH",
"359 83 LINE SMOOTH",
"359 83 OFFCURVE",
"354 135 OFFCURVE",
"347 183 CURVE SMOOTH",
"296 465 LINE",
"219 465 LINE",
"170 182 LINE SMOOTH",
"163 141 OFFCURVE",
"157 83 OFFCURVE",
"157 83 CURVE SMOOTH",
"153 83 LINE SMOOTH",
"153 83 OFFCURVE",
"143 151 OFFCURVE",
"135 182 CURVE SMOOTH",
"72 465 LINE",
"1 465 LINE",
"118 0 LINE",
"190 0 LINE",
"239 277 LINE SMOOTH",
"248 327 OFFCURVE",
"253 382 OFFCURVE",
"253 382 CURVE",
"257 382 LINE",
"257 382 OFFCURVE",
"262 326 OFFCURVE",
"271 278 CURVE SMOOTH",
"319 0 LINE",
"393 0 LINE"
);
},
{
closed = 1;
nodes = (
"229 639 LINE",
"155 639 LINE",
"155 559 LINE",
"229 559 LINE"
);
},
{
closed = 1;
nodes = (
"356 639 LINE",
"281 639 LINE",
"281 559 LINE",
"356 559 LINE"
);
}
);
width = 511;
}
);
unicode = 1E85;
},
{
glyphname = wgrave;
layers = (
{
layerId = "F91748D5-4F43-431E-9F22-86E8B42883B3";
name = Regular;
paths = (
{
closed = 1;
nodes = (
"510 465 LINE",
"443 465 LINE",
"380 183 LINE SMOOTH",
"367 129 OFFCURVE",
"362 83 OFFCURVE",
"362 83 CURVE SMOOTH",
"359 83 LINE SMOOTH",
"359 83 OFFCURVE",
"354 135 OFFCURVE",
"347 183 CURVE SMOOTH",
"296 465 LINE",
"219 465 LINE",
"170 182 LINE SMOOTH",
"163 141 OFFCURVE",
"157 83 OFFCURVE",
"157 83 CURVE SMOOTH",
"153 83 LINE SMOOTH",
"153 83 OFFCURVE",
"143 151 OFFCURVE",
"135 182 CURVE SMOOTH",
"72 465 LINE",
"1 465 LINE",
"118 0 LINE",
"190 0 LINE",
"239 277 LINE SMOOTH",
"248 327 OFFCURVE",
"253 382 OFFCURVE",
"253 382 CURVE",
"257 382 LINE",
"257 382 OFFCURVE",
"262 326 OFFCURVE",
"271 278 CURVE SMOOTH",
"319 0 LINE",
"393 0 LINE"
);
},
{
closed = 1;
nodes = (
"231 639 LINE",
"157 639 LINE",
"156 636 LINE",
"254 522 LINE",
"305 522 LINE"
);
}
);
width = 511;
}
);
unicode = 1E81;
},
{
glyphname = x;
layers = (
{
layerId = "F91748D5-4F43-431E-9F22-86E8B42883B3";
name = Regular;
paths = (
{
closed = 1;
nodes = (
"339 465 LINE",
"267 465 LINE",
"171 292 LINE",
"179 292 LINE",
"88 465 LINE",
"10 465 LINE",
"141 234 LINE",
"5 0 LINE",
"75 0 LINE",
"176 181 LINE",
"170 181 LINE",
"267 0 LINE",
"344 0 LINE",
"207 240 LINE"
);
}
);
width = 350;
}
);
unicode = 0078;
},
{
glyphname = y;
layers = (
{
anchors = (
{
name = top;
position = "{175, 465}";
}
);
layerId = "F91748D5-4F43-431E-9F22-86E8B42883B3";
name = Regular;
paths = (
{
closed = 1;
nodes = (
"340 465 LINE",
"277 465 LINE",
"220 219 LINE",
"210 179 OFFCURVE",
"199 139 OFFCURVE",
"188 98 CURVE",
"185 98 LINE",
"172 139 OFFCURVE",
"159 180 OFFCURVE",
"147 220 CURVE",
"79 465 LINE",
"10 465 LINE",
"148 0 LINE",
"130 -89 OFFCURVE",
"92 -112 OFFCURVE",
"50 -112 CURVE SMOOTH",
"32 -112 LINE",
"32 -154 LINE",
"51 -160 OFFCURVE",
"65 -161 OFFCURVE",
"79 -161 CURVE SMOOTH",
"158 -161 OFFCURVE",
"199 -78 OFFCURVE",
"225 24 CURVE SMOOTH"
);
}
);
width = 350;
}
);
unicode = 0079;
},
